<?xml version="1.0" encoding="utf-8" standalone="no"?>
<!DOCTYPE svg PUBLIC "-//W3C//DTD SVG 1.1//EN"
  "http://www.w3.org/Graphics/SVG/1.1/DTD/svg11.dtd">
<svg xmlns:xlink="http://www.w3.org/1999/xlink" width="410.754375pt" height="243.293808pt" viewBox="0 0 410.754375 243.293808" xmlns="http://www.w3.org/2000/svg" version="1.1">
 <metadata>
  <rdf:RDF xmlns:dc="http://purl.org/dc/elements/1.1/" xmlns:cc="http://creativecommons.org/ns#" xmlns:rdf="http://www.w3.org/1999/02/22-rdf-syntax-ns#">
   <cc:Work>
    <dc:type rdf:resource="http://purl.org/dc/dcmitype/StillImage"/>
    <dc:date>2024-05-27T08:16:15.794668</dc:date>
    <dc:format>image/svg+xml</dc:format>
    <dc:creator>
     <cc:Agent>
      <dc:title>Matplotlib v3.5.2, https://matplotlib.org/</dc:title>
     </cc:Agent>
    </dc:creator>
   </cc:Work>
  </rdf:RDF>
 </metadata>
 <defs>
  <style type="text/css">*{stroke-linejoin: round; stroke-linecap: butt}</style>
 </defs>
 <g id="figure_1">
  <g id="patch_1">
   <path d="M 0 243.293808 
L 410.754375 243.293808 
L 410.754375 0 
L 0 0 
z
" style="fill: #ffffff"/>
  </g>
  <g id="axes_1">
   <g id="patch_2">
    <path d="M 38.482813 219.415683 
L 395.602813 219.415683 
L 395.602813 22.318125 
L 38.482813 22.318125 
z
" style="fill: #ffffff"/>
   </g>
   <g id="PathCollection_1">
    <defs>
     <path id="m37ea4f848f" d="M 0 3 
C 0.795609 3 1.55874 2.683901 2.12132 2.12132 
C 2.683901 1.55874 3 0.795609 3 0 
C 3 -0.795609 2.683901 -1.55874 2.12132 -2.12132 
C 1.55874 -2.683901 0.795609 -3 0 -3 
C -0.795609 -3 -1.55874 -2.683901 -2.12132 -2.12132 
C -2.683901 -1.55874 -3 -0.795609 -3 0 
C -3 0.795609 -2.683901 1.55874 -2.12132 2.12132 
C -1.55874 2.683901 -0.795609 3 0 3 
z
" style="stroke: #1f77b4"/>
    </defs>
    <g clip-path="url(#p5a9be24197)">
     <use xlink:href="#m37ea4f848f" x="38.482813" y="170.777105" style="fill: #1f77b4; stroke: #1f77b4"/>
     <use xlink:href="#m37ea4f848f" x="157.522813" y="170.777105" style="fill: #1f77b4; stroke: #1f77b4"/>
     <use xlink:href="#m37ea4f848f" x="157.522813" y="51.737105" style="fill: #1f77b4; stroke: #1f77b4"/>
     <use xlink:href="#m37ea4f848f" x="276.562813" y="51.737105" style="fill: #1f77b4; stroke: #1f77b4"/>
     <use xlink:href="#m37ea4f848f" x="276.562813" y="170.777105" style="fill: #1f77b4; stroke: #1f77b4"/>
     <use xlink:href="#m37ea4f848f" x="395.602813" y="170.777105" style="fill: #1f77b4; stroke: #1f77b4"/>
    </g>
   </g>
   <g id="matplotlib.axis_1">
    <g id="xtick_1">
     <g id="line2d_1">
      <defs>
       <path id="m847e282f12" d="M 0 0 
L 0 3.5 
" style="stroke: #000000; stroke-width: 0.8"/>
      </defs>
      <g>
       <use xlink:href="#m847e282f12" x="38.482813" y="219.415683" style="stroke: #000000; stroke-width: 0.8"/>
      </g>
     </g>
     <g id="text_1">
      <!-- 0.0 -->
      <g transform="translate(30.53125 234.01412)scale(0.1 -0.1)">
       <defs>
        <path id="DejaVuSans-30" d="M 2034 4250 
Q 1547 4250 1301 3770 
Q 1056 3291 1056 2328 
Q 1056 1369 1301 889 
Q 1547 409 2034 409 
Q 2525 409 2770 889 
Q 3016 1369 3016 2328 
Q 3016 3291 2770 3770 
Q 2525 4250 2034 4250 
z
M 2034 4750 
Q 2819 4750 3233 4129 
Q 3647 3509 3647 2328 
Q 3647 1150 3233 529 
Q 2819 -91 2034 -91 
Q 1250 -91 836 529 
Q 422 1150 422 2328 
Q 422 3509 836 4129 
Q 1250 4750 2034 4750 
z
" transform="scale(0.015625)"/>
        <path id="DejaVuSans-2e" d="M 684 794 
L 1344 794 
L 1344 0 
L 684 0 
L 684 794 
z
" transform="scale(0.015625)"/>
       </defs>
       <use xlink:href="#DejaVuSans-30"/>
       <use xlink:href="#DejaVuSans-2e" x="63.623047"/>
       <use xlink:href="#DejaVuSans-30" x="95.410156"/>
      </g>
     </g>
    </g>
    <g id="xtick_2">
     <g id="line2d_2">
      <g>
       <use xlink:href="#m847e282f12" x="98.002813" y="219.415683" style="stroke: #000000; stroke-width: 0.8"/>
      </g>
     </g>
     <g id="text_2">
      <!-- 0.5 -->
      <g transform="translate(90.05125 234.01412)scale(0.1 -0.1)">
       <defs>
        <path id="DejaVuSans-35" d="M 691 4666 
L 3169 4666 
L 3169 4134 
L 1269 4134 
L 1269 2991 
Q 1406 3038 1543 3061 
Q 1681 3084 1819 3084 
Q 2600 3084 3056 2656 
Q 3513 2228 3513 1497 
Q 3513 744 3044 326 
Q 2575 -91 1722 -91 
Q 1428 -91 1123 -41 
Q 819 9 494 109 
L 494 744 
Q 775 591 1075 516 
Q 1375 441 1709 441 
Q 2250 441 2565 725 
Q 2881 1009 2881 1497 
Q 2881 1984 2565 2268 
Q 2250 2553 1709 2553 
Q 1456 2553 1204 2497 
Q 953 2441 691 2322 
L 691 4666 
z
" transform="scale(0.015625)"/>
       </defs>
       <use xlink:href="#DejaVuSans-30"/>
       <use xlink:href="#DejaVuSans-2e" x="63.623047"/>
       <use xlink:href="#DejaVuSans-35" x="95.410156"/>
      </g>
     </g>
    </g>
    <g id="xtick_3">
     <g id="line2d_3">
      <g>
       <use xlink:href="#m847e282f12" x="157.522813" y="219.415683" style="stroke: #000000; stroke-width: 0.8"/>
      </g>
     </g>
     <g id="text_3">
      <!-- 1.0 -->
      <g transform="translate(149.57125 234.01412)scale(0.1 -0.1)">
       <defs>
        <path id="DejaVuSans-31" d="M 794 531 
L 1825 531 
L 1825 4091 
L 703 3866 
L 703 4441 
L 1819 4666 
L 2450 4666 
L 2450 531 
L 3481 531 
L 3481 0 
L 794 0 
L 794 531 
z
" transform="scale(0.015625)"/>
       </defs>
       <use xlink:href="#DejaVuSans-31"/>
       <use xlink:href="#DejaVuSans-2e" x="63.623047"/>
       <use xlink:href="#DejaVuSans-30" x="95.410156"/>
      </g>
     </g>
    </g>
    <g id="xtick_4">
     <g id="line2d_4">
      <g>
       <use xlink:href="#m847e282f12" x="217.042813" y="219.415683" style="stroke: #000000; stroke-width: 0.8"/>
      </g>
     </g>
     <g id="text_4">
      <!-- 1.5 -->
      <g transform="translate(209.09125 234.01412)scale(0.1 -0.1)">
       <use xlink:href="#DejaVuSans-31"/>
       <use xlink:href="#DejaVuSans-2e" x="63.623047"/>
       <use xlink:href="#DejaVuSans-35" x="95.410156"/>
      </g>
     </g>
    </g>
    <g id="xtick_5">
     <g id="line2d_5">
      <g>
       <use xlink:href="#m847e282f12" x="276.562813" y="219.415683" style="stroke: #000000; stroke-width: 0.8"/>
      </g>
     </g>
     <g id="text_5">
      <!-- 2.0 -->
      <g transform="translate(268.61125 234.01412)scale(0.1 -0.1)">
       <defs>
        <path id="DejaVuSans-32" d="M 1228 531 
L 3431 531 
L 3431 0 
L 469 0 
L 469 531 
Q 828 903 1448 1529 
Q 2069 2156 2228 2338 
Q 2531 2678 2651 2914 
Q 2772 3150 2772 3378 
Q 2772 3750 2511 3984 
Q 2250 4219 1831 4219 
Q 1534 4219 1204 4116 
Q 875 4013 500 3803 
L 500 4441 
Q 881 4594 1212 4672 
Q 1544 4750 1819 4750 
Q 2544 4750 2975 4387 
Q 3406 4025 3406 3419 
Q 3406 3131 3298 2873 
Q 3191 2616 2906 2266 
Q 2828 2175 2409 1742 
Q 1991 1309 1228 531 
z
" transform="scale(0.015625)"/>
       </defs>
       <use xlink:href="#DejaVuSans-32"/>
       <use xlink:href="#DejaVuSans-2e" x="63.623047"/>
       <use xlink:href="#DejaVuSans-30" x="95.410156"/>
      </g>
     </g>
    </g>
    <g id="xtick_6">
     <g id="line2d_6">
      <g>
       <use xlink:href="#m847e282f12" x="336.082813" y="219.415683" style="stroke: #000000; stroke-width: 0.8"/>
      </g>
     </g>
     <g id="text_6">
      <!-- 2.5 -->
      <g transform="translate(328.13125 234.01412)scale(0.1 -0.1)">
       <use xlink:href="#DejaVuSans-32"/>
       <use xlink:href="#DejaVuSans-2e" x="63.623047"/>
       <use xlink:href="#DejaVuSans-35" x="95.410156"/>
      </g>
     </g>
    </g>
    <g id="xtick_7">
     <g id="line2d_7">
      <g>
       <use xlink:href="#m847e282f12" x="395.602813" y="219.415683" style="stroke: #000000; stroke-width: 0.8"/>
      </g>
     </g>
     <g id="text_7">
      <!-- 3.0 -->
      <g transform="translate(387.65125 234.01412)scale(0.1 -0.1)">
       <defs>
        <path id="DejaVuSans-33" d="M 2597 2516 
Q 3050 2419 3304 2112 
Q 3559 1806 3559 1356 
Q 3559 666 3084 287 
Q 2609 -91 1734 -91 
Q 1441 -91 1130 -33 
Q 819 25 488 141 
L 488 750 
Q 750 597 1062 519 
Q 1375 441 1716 441 
Q 2309 441 2620 675 
Q 2931 909 2931 1356 
Q 2931 1769 2642 2001 
Q 2353 2234 1838 2234 
L 1294 2234 
L 1294 2753 
L 1863 2753 
Q 2328 2753 2575 2939 
Q 2822 3125 2822 3475 
Q 2822 3834 2567 4026 
Q 2313 4219 1838 4219 
Q 1578 4219 1281 4162 
Q 984 4106 628 3988 
L 628 4550 
Q 988 4650 1302 4700 
Q 1616 4750 1894 4750 
Q 2613 4750 3031 4423 
Q 3450 4097 3450 3541 
Q 3450 3153 3228 2886 
Q 3006 2619 2597 2516 
z
" transform="scale(0.015625)"/>
       </defs>
       <use xlink:href="#DejaVuSans-33"/>
       <use xlink:href="#DejaVuSans-2e" x="63.623047"/>
       <use xlink:href="#DejaVuSans-30" x="95.410156"/>
      </g>
     </g>
    </g>
   </g>
   <g id="matplotlib.axis_2">
    <g id="ytick_1">
     <g id="line2d_8">
      <defs>
       <path id="m6240c76dda" d="M 0 0 
L -3.5 0 
" style="stroke: #000000; stroke-width: 0.8"/>
      </defs>
      <g>
       <use xlink:href="#m6240c76dda" x="38.482813" y="218.393105" style="stroke: #000000; stroke-width: 0.8"/>
      </g>
     </g>
     <g id="text_8">
      <!-- −0.4 -->
      <g transform="translate(7.2 222.192324)scale(0.1 -0.1)">
       <defs>
        <path id="DejaVuSans-2212" d="M 678 2272 
L 4684 2272 
L 4684 1741 
L 678 1741 
L 678 2272 
z
" transform="scale(0.015625)"/>
        <path id="DejaVuSans-34" d="M 2419 4116 
L 825 1625 
L 2419 1625 
L 2419 4116 
z
M 2253 4666 
L 3047 4666 
L 3047 1625 
L 3713 1625 
L 3713 1100 
L 3047 1100 
L 3047 0 
L 2419 0 
L 2419 1100 
L 313 1100 
L 313 1709 
L 2253 4666 
z
" transform="scale(0.015625)"/>
       </defs>
       <use xlink:href="#DejaVuSans-2212"/>
       <use xlink:href="#DejaVuSans-30" x="83.789062"/>
       <use xlink:href="#DejaVuSans-2e" x="147.412109"/>
       <use xlink:href="#DejaVuSans-34" x="179.199219"/>
      </g>
     </g>
    </g>
    <g id="ytick_2">
     <g id="line2d_9">
      <g>
       <use xlink:href="#m6240c76dda" x="38.482813" y="194.585105" style="stroke: #000000; stroke-width: 0.8"/>
      </g>
     </g>
     <g id="text_9">
      <!-- −0.2 -->
      <g transform="translate(7.2 198.384324)scale(0.1 -0.1)">
       <use xlink:href="#DejaVuSans-2212"/>
       <use xlink:href="#DejaVuSans-30" x="83.789062"/>
       <use xlink:href="#DejaVuSans-2e" x="147.412109"/>
       <use xlink:href="#DejaVuSans-32" x="179.199219"/>
      </g>
     </g>
    </g>
    <g id="ytick_3">
     <g id="line2d_10">
      <g>
       <use xlink:href="#m6240c76dda" x="38.482813" y="170.777105" style="stroke: #000000; stroke-width: 0.8"/>
      </g>
     </g>
     <g id="text_10">
      <!-- 0.0 -->
      <g transform="translate(15.579688 174.576324)scale(0.1 -0.1)">
       <use xlink:href="#DejaVuSans-30"/>
       <use xlink:href="#DejaVuSans-2e" x="63.623047"/>
       <use xlink:href="#DejaVuSans-30" x="95.410156"/>
      </g>
     </g>
    </g>
    <g id="ytick_4">
     <g id="line2d_11">
      <g>
       <use xlink:href="#m6240c76dda" x="38.482813" y="146.969105" style="stroke: #000000; stroke-width: 0.8"/>
      </g>
     </g>
     <g id="text_11">
      <!-- 0.2 -->
      <g transform="translate(15.579688 150.768324)scale(0.1 -0.1)">
       <use xlink:href="#DejaVuSans-30"/>
       <use xlink:href="#DejaVuSans-2e" x="63.623047"/>
       <use xlink:href="#DejaVuSans-32" x="95.410156"/>
      </g>
     </g>
    </g>
    <g id="ytick_5">
     <g id="line2d_12">
      <g>
       <use xlink:href="#m6240c76dda" x="38.482813" y="123.161105" style="stroke: #000000; stroke-width: 0.8"/>
      </g>
     </g>
     <g id="text_12">
      <!-- 0.4 -->
      <g transform="translate(15.579688 126.960324)scale(0.1 -0.1)">
       <use xlink:href="#DejaVuSans-30"/>
       <use xlink:href="#DejaVuSans-2e" x="63.623047"/>
       <use xlink:href="#DejaVuSans-34" x="95.410156"/>
      </g>
     </g>
    </g>
    <g id="ytick_6">
     <g id="line2d_13">
      <g>
       <use xlink:href="#m6240c76dda" x="38.482813" y="99.353105" style="stroke: #000000; stroke-width: 0.8"/>
      </g>
     </g>
     <g id="text_13">
      <!-- 0.6 -->
      <g transform="translate(15.579688 103.152324)scale(0.1 -0.1)">
       <defs>
        <path id="DejaVuSans-36" d="M 2113 2584 
Q 1688 2584 1439 2293 
Q 1191 2003 1191 1497 
Q 1191 994 1439 701 
Q 1688 409 2113 409 
Q 2538 409 2786 701 
Q 3034 994 3034 1497 
Q 3034 2003 2786 2293 
Q 2538 2584 2113 2584 
z
M 3366 4563 
L 3366 3988 
Q 3128 4100 2886 4159 
Q 2644 4219 2406 4219 
Q 1781 4219 1451 3797 
Q 1122 3375 1075 2522 
Q 1259 2794 1537 2939 
Q 1816 3084 2150 3084 
Q 2853 3084 3261 2657 
Q 3669 2231 3669 1497 
Q 3669 778 3244 343 
Q 2819 -91 2113 -91 
Q 1303 -91 875 529 
Q 447 1150 447 2328 
Q 447 3434 972 4092 
Q 1497 4750 2381 4750 
Q 2619 4750 2861 4703 
Q 3103 4656 3366 4563 
z
" transform="scale(0.015625)"/>
       </defs>
       <use xlink:href="#DejaVuSans-30"/>
       <use xlink:href="#DejaVuSans-2e" x="63.623047"/>
       <use xlink:href="#DejaVuSans-36" x="95.410156"/>
      </g>
     </g>
    </g>
    <g id="ytick_7">
     <g id="line2d_14">
      <g>
       <use xlink:href="#m6240c76dda" x="38.482813" y="75.545105" style="stroke: #000000; stroke-width: 0.8"/>
      </g>
     </g>
     <g id="text_14">
      <!-- 0.8 -->
      <g transform="translate(15.579688 79.344324)scale(0.1 -0.1)">
       <defs>
        <path id="DejaVuSans-38" d="M 2034 2216 
Q 1584 2216 1326 1975 
Q 1069 1734 1069 1313 
Q 1069 891 1326 650 
Q 1584 409 2034 409 
Q 2484 409 2743 651 
Q 3003 894 3003 1313 
Q 3003 1734 2745 1975 
Q 2488 2216 2034 2216 
z
M 1403 2484 
Q 997 2584 770 2862 
Q 544 3141 544 3541 
Q 544 4100 942 4425 
Q 1341 4750 2034 4750 
Q 2731 4750 3128 4425 
Q 3525 4100 3525 3541 
Q 3525 3141 3298 2862 
Q 3072 2584 2669 2484 
Q 3125 2378 3379 2068 
Q 3634 1759 3634 1313 
Q 3634 634 3220 271 
Q 2806 -91 2034 -91 
Q 1263 -91 848 271 
Q 434 634 434 1313 
Q 434 1759 690 2068 
Q 947 2378 1403 2484 
z
M 1172 3481 
Q 1172 3119 1398 2916 
Q 1625 2713 2034 2713 
Q 2441 2713 2670 2916 
Q 2900 3119 2900 3481 
Q 2900 3844 2670 4047 
Q 2441 4250 2034 4250 
Q 1625 4250 1398 4047 
Q 1172 3844 1172 3481 
z
" transform="scale(0.015625)"/>
       </defs>
       <use xlink:href="#DejaVuSans-30"/>
       <use xlink:href="#DejaVuSans-2e" x="63.623047"/>
       <use xlink:href="#DejaVuSans-38" x="95.410156"/>
      </g>
     </g>
    </g>
    <g id="ytick_8">
     <g id="line2d_15">
      <g>
       <use xlink:href="#m6240c76dda" x="38.482813" y="51.737105" style="stroke: #000000; stroke-width: 0.8"/>
      </g>
     </g>
     <g id="text_15">
      <!-- 1.0 -->
      <g transform="translate(15.579688 55.536324)scale(0.1 -0.1)">
       <use xlink:href="#DejaVuSans-31"/>
       <use xlink:href="#DejaVuSans-2e" x="63.623047"/>
       <use xlink:href="#DejaVuSans-30" x="95.410156"/>
      </g>
     </g>
    </g>
    <g id="ytick_9">
     <g id="line2d_16">
      <g>
       <use xlink:href="#m6240c76dda" x="38.482813" y="27.929105" style="stroke: #000000; stroke-width: 0.8"/>
      </g>
     </g>
     <g id="text_16">
      <!-- 1.2 -->
      <g transform="translate(15.579688 31.728324)scale(0.1 -0.1)">
       <use xlink:href="#DejaVuSans-31"/>
       <use xlink:href="#DejaVuSans-2e" x="63.623047"/>
       <use xlink:href="#DejaVuSans-32" x="95.410156"/>
      </g>
     </g>
    </g>
   </g>
   <g id="line2d_17">
    <path d="M 44.590067 176.859367 
L 51.654653 175.588495 
L 58.543179 174.141836 
L 65.248014 172.512033 
L 71.762694 170.693006 
L 78.082138 168.680188 
L 84.202836 166.470752 
L 90.123026 164.063824 
L 95.842843 161.460685 
L 101.364434 158.664935 
L 106.692031 155.682632 
L 111.831979 152.522387 
L 116.792711 149.195425 
L 121.584675 145.715594 
L 126.870446 141.572653 
L 131.973041 137.280119 
L 137.52388 132.312871 
L 144.086976 126.116791 
L 155.61318 114.831239 
L 163.552784 107.227421 
L 169.240261 102.104899 
L 173.82886 98.26143 
L 177.884648 95.122157 
L 181.985886 92.221558 
L 186.136905 89.586348 
L 189.735851 87.557561 
L 193.372072 85.755998 
L 197.043639 84.194305 
L 200.747332 82.883531 
L 204.478772 81.833011 
L 207.605651 81.161867 
L 210.744541 80.680063 
L 213.891608 80.390011 
L 217.042813 80.293165 
L 220.194017 80.390011 
L 223.341084 80.680063 
L 226.479974 81.161867 
L 229.606853 81.833011 
L 233.338293 82.883531 
L 237.041986 84.194305 
L 240.713553 85.755998 
L 244.349774 87.557561 
L 247.94872 89.586348 
L 251.509852 91.828253 
L 255.617998 94.69253 
L 259.679913 97.799411 
L 264.27408 101.610953 
L 269.398174 106.178449 
L 275.633846 112.07069 
L 299.006112 134.535622 
L 304.642404 139.443142 
L 309.833786 143.664703 
L 314.534733 147.224673 
L 319.397622 150.640852 
L 324.433997 153.897906 
L 329.653454 156.983112 
L 335.063538 159.886368 
L 339.856656 162.224296 
L 344.796048 164.419738 
L 349.882789 166.470752 
L 356.003487 168.680188 
L 362.322931 170.693006 
L 368.837611 172.512033 
L 375.542446 174.141836 
L 382.430972 175.588495 
L 389.495558 176.859367 
L 389.495558 176.859367 
" clip-path="url(#p5a9be24197)" style="fill: none; stroke: #ff7f0e; stroke-width: 1.5; stroke-linecap: square"/>
   </g>
   <g id="line2d_18">
    <path d="M 39.142356 171.464703 
L 47.026014 173.370901 
L 54.571482 174.933799 
L 61.780836 176.1548 
L 67.308046 176.886667 
L 72.62339 177.402085 
L 77.728718 177.702463 
L 82.626151 177.789452 
L 87.318098 177.664965 
L 91.807278 177.331191 
L 96.09674 176.790618 
L 100.189876 176.04605 
L 104.090445 175.100629 
L 107.802586 173.95785 
L 111.330841 172.621586 
L 114.680165 171.096101 
L 117.855942 169.386072 
L 120.863998 167.496604 
L 123.710609 165.433248 
L 126.402509 163.202008 
L 128.94689 160.809361 
L 131.351405 158.262261 
L 133.624158 155.568143 
L 136.29287 152.005865 
L 138.78671 148.242819 
L 141.12427 144.296699 
L 143.32501 140.186324 
L 145.813808 135.06513 
L 148.553394 128.876183 
L 151.906573 120.673871 
L 160.813751 98.450483 
L 163.631195 92.153821 
L 166.191034 86.916345 
L 168.909332 81.868915 
L 171.309363 77.83607 
L 173.840944 73.983956 
L 176.509908 70.333265 
L 179.319465 66.903617 
L 182.270129 63.713447 
L 184.730862 61.345309 
L 187.278152 59.1496 
L 189.908523 57.133887 
L 192.617438 55.305121 
L 195.399356 53.669615 
L 198.247786 52.233018 
L 201.155373 51.000301 
L 204.113978 49.975729 
L 207.114788 49.162853 
L 210.148428 48.564492 
L 213.205081 48.182723 
L 216.27462 48.01887 
L 219.346744 48.073503 
L 222.41112 48.346433 
L 225.457516 48.836711 
L 228.475943 49.542636 
L 231.456791 50.461758 
L 234.390949 51.590891 
L 237.269928 52.926126 
L 240.085969 54.462841 
L 242.832139 56.195726 
L 245.502413 58.118795 
L 248.091745 60.225414 
L 250.596124 62.508321 
L 253.012614 64.95965 
L 255.906948 68.247744 
L 258.660054 71.76809 
L 261.27353 75.501766 
L 263.751648 79.428713 
L 266.101259 83.527836 
L 268.764415 88.643022 
L 271.276398 93.934934 
L 274.049015 100.27776 
L 277.434475 108.597991 
L 285.91483 129.772347 
L 288.676476 135.931581 
L 291.190778 141.0206 
L 293.417287 145.099682 
L 295.784572 149.010657 
L 298.31193 152.734928 
L 301.017763 156.25503 
L 303.322672 158.913118 
L 305.761411 161.422283 
L 308.341973 163.775211 
L 311.071894 165.965068 
L 313.958253 167.985498 
L 317.007668 169.830608 
L 320.226303 171.494963 
L 323.619872 172.973565 
L 327.19365 174.261842 
L 330.952489 175.355629 
L 334.900826 176.251151 
L 339.042706 176.945 
L 343.381793 177.434124 
L 347.921393 177.715798 
L 352.664469 177.78761 
L 357.613661 177.647442 
L 362.771305 177.293449 
L 368.139453 176.724042 
L 373.719887 175.937869 
L 379.514143 174.933799 
L 387.059611 173.370901 
L 394.943269 171.464703 
L 394.943269 171.464703 
" clip-path="url(#p5a9be24197)" style="fill: none; stroke: #2ca02c; stroke-width: 1.5; stroke-linecap: square"/>
   </g>
   <g id="line2d_19">
    <path d="M 38.503427 170.787742 
L 48.155525 175.864845 
L 57.25423 180.386738 
L 65.816358 184.369431 
L 73.85882 187.828978 
L 81.398623 190.781486 
L 88.452868 193.243111 
L 93.435248 194.776935 
L 98.161463 196.05061 
L 102.638833 197.071009 
L 106.87471 197.84502 
L 110.876469 198.379548 
L 114.65152 198.681517 
L 118.207295 198.757864 
L 121.551257 198.615545 
L 124.690893 198.261529 
L 127.633717 197.702804 
L 130.387263 196.946371 
L 132.959092 195.99925 
L 135.356783 194.868474 
L 137.587933 193.56109 
L 139.660159 192.08416 
L 141.581091 190.444762 
L 143.35837 188.649983 
L 144.999648 186.706927 
L 146.512582 184.622707 
L 147.904832 182.404447 
L 149.586673 179.250592 
L 151.085714 175.88806 
L 152.420054 172.333804 
L 153.607724 168.604791 
L 154.91338 163.723625 
L 156.052659 158.629046 
L 157.248512 152.280415 
L 158.647802 143.510025 
L 162.941537 115.242771 
L 164.464183 107.470429 
L 165.977276 100.976556 
L 167.410293 95.720569 
L 169.016822 90.634492 
L 170.80958 85.743633 
L 172.797975 81.071845 
L 174.533684 77.507179 
L 176.399943 74.107671 
L 178.39676 70.883272 
L 180.522719 67.843218 
L 182.775013 64.996019 
L 185.149486 62.349458 
L 187.640702 59.910594 
L 190.242019 57.685773 
L 192.94568 55.68064 
L 195.742909 53.900166 
L 198.624016 52.34866 
L 201.578511 51.029797 
L 204.595213 49.94664 
L 207.662368 49.101661 
L 210.767761 48.496761 
L 213.898838 48.133287 
L 217.042812 48.01204 
L 220.186787 48.133287 
L 223.317864 48.496761 
L 226.423257 49.101661 
L 229.490412 49.94664 
L 232.507114 51.029797 
L 235.461609 52.34866 
L 238.342716 53.900166 
L 241.139945 55.68064 
L 243.843606 57.685773 
L 246.444923 59.910594 
L 248.936139 62.349458 
L 251.310612 64.996019 
L 253.562906 67.843218 
L 255.688865 70.883272 
L 257.685682 74.107671 
L 259.551941 77.507179 
L 261.28765 81.071845 
L 262.894258 84.791013 
L 264.725499 89.639918 
L 266.368361 94.688931 
L 267.834909 99.913026 
L 269.383692 106.375814 
L 270.732567 113.004782 
L 272.103778 120.881716 
L 273.815105 132.244145 
L 276.47063 150.116351 
L 277.822044 157.587433 
L 279.172245 163.723625 
L 280.477901 168.604791 
L 281.665571 172.333804 
L 282.999911 175.88806 
L 284.498952 179.250592 
L 286.180793 182.404447 
L 287.573043 184.622707 
L 289.085977 186.706927 
L 290.727255 188.649983 
L 292.504534 190.444762 
L 294.425466 192.08416 
L 296.497692 193.56109 
L 298.728842 194.868474 
L 301.126533 195.99925 
L 303.698362 196.946371 
L 306.451908 197.702804 
L 309.394732 198.261529 
L 312.534368 198.615545 
L 315.87833 198.757864 
L 319.434105 198.681517 
L 323.209156 198.379548 
L 327.210915 197.84502 
L 331.446792 197.071009 
L 335.924162 196.05061 
L 340.650377 194.776935 
L 345.632757 193.243111 
L 350.87859 191.44228 
L 358.295397 188.614009 
L 366.210596 185.282734 
L 374.641218 181.432335 
L 383.604198 177.046744 
L 393.116376 172.109942 
L 395.582198 170.787742 
L 395.582198 170.787742 
" clip-path="url(#p5a9be24197)" style="fill: none; stroke: #d62728; stroke-width: 1.5; stroke-linecap: square"/>
   </g>
   <g id="line2d_20">
    <path d="M 38.482984 170.777105 
L 52.747397 178.25914 
L 65.811187 184.858337 
L 77.734365 190.611873 
L 88.575726 195.556319 
L 98.392851 199.727633 
L 105.117488 202.370039 
L 111.321044 204.612144 
L 117.026454 206.468443 
L 122.256263 207.95324 
L 127.032628 209.080643 
L 131.377311 209.86457 
L 135.311683 210.318745 
L 138.85672 210.456699 
L 142.033002 210.29177 
L 144.860712 209.837105 
L 146.561988 209.379434 
L 148.122909 208.802543 
L 149.549158 208.110182 
L 150.846343 207.306067 
L 152.019987 206.393873 
L 153.075539 205.377238 
L 154.449158 203.664323 
L 155.586897 201.736495 
L 156.506123 199.605549 
L 157.223798 197.283089 
L 157.756473 194.780525 
L 158.120289 192.109073 
L 158.369838 188.30345 
L 158.383259 184.242757 
L 158.19539 179.951984 
L 157.728441 174.30205 
L 156.909871 167.162864 
L 155.364082 155.878858 
L 153.024523 138.808355 
L 151.969291 129.451598 
L 151.291771 121.438801 
L 150.935793 114.811976 
L 150.804783 108.265906 
L 150.928463 101.831688 
L 151.228684 96.784797 
L 151.720964 91.842947 
L 152.415995 87.020003 
L 153.32309 82.329222 
L 154.450156 77.783251 
L 155.803647 73.394127 
L 157.388525 69.173279 
L 159.208198 65.131523 
L 160.728175 62.2239 
L 162.381394 59.426855 
L 164.167428 56.744275 
L 166.085275 54.179857 
L 168.133331 51.737105 
L 170.309374 49.419329 
L 172.610542 47.229646 
L 175.033316 45.170981 
L 177.573506 43.246067 
L 180.226238 41.457443 
L 182.98595 39.807454 
L 185.846396 38.298255 
L 188.800652 36.931805 
L 192.872389 35.334955 
L 197.077646 33.998659 
L 201.394907 32.925966 
L 205.80106 32.119313 
L 210.27169 31.580528 
L 214.781406 31.310831 
L 219.304219 31.310831 
L 223.813935 31.580528 
L 228.284565 32.119313 
L 232.690718 32.925966 
L 237.007979 33.998659 
L 241.213236 35.334955 
L 245.284973 36.931805 
L 248.239229 38.298255 
L 251.099675 39.807454 
L 253.859387 41.457443 
L 256.512119 43.246067 
L 259.052309 45.170981 
L 261.475083 47.229646 
L 263.776251 49.419329 
L 265.952294 51.737105 
L 268.00035 54.179857 
L 269.918197 56.744275 
L 271.704231 59.426855 
L 273.35745 62.2239 
L 274.877427 65.131523 
L 276.6971 69.173279 
L 278.281978 73.394127 
L 279.635469 77.783251 
L 280.762535 82.329222 
L 281.66963 87.020003 
L 282.364661 91.842947 
L 282.856941 96.784797 
L 283.157162 101.831688 
L 283.280842 108.265906 
L 283.149832 114.811976 
L 282.793854 121.438801 
L 282.116334 129.451598 
L 281.061102 138.808355 
L 279.45918 150.698238 
L 276.877373 169.581804 
L 276.143015 176.597603 
L 275.773266 182.124593 
L 275.681768 186.303411 
L 275.808817 190.239731 
L 276.189903 193.908258 
L 276.664519 196.468355 
L 277.318708 198.852108 
L 278.168886 201.048171 
L 279.231878 203.045006 
L 280.524916 204.830882 
L 281.523438 205.898385 
L 282.63736 206.863252 
L 283.872089 207.721863 
L 285.23311 208.470563 
L 286.725989 209.105656 
L 288.356372 209.623408 
L 290.129982 210.020049 
L 292.052623 210.29177 
L 295.228905 210.456699 
L 298.773942 210.318745 
L 302.708314 209.86457 
L 307.052997 209.080643 
L 311.829362 207.95324 
L 317.059171 206.468443 
L 322.764581 204.612144 
L 328.968137 202.370039 
L 335.692774 199.727633 
L 342.961818 196.670237 
L 350.79898 193.182971 
L 362.173976 187.838513 
L 374.660034 181.666756 
L 388.316559 174.630825 
L 395.602641 170.777105 
L 395.602641 170.777105 
" clip-path="url(#p5a9be24197)" style="fill: none; stroke: #9467bd; stroke-width: 1.5; stroke-linecap: square"/>
   </g>
   <g id="line2d_21">
    <path d="M 38.482813 170.777105 
L 83.434545 186.374563 
L 107.163915 194.394083 
L 123.559272 199.727633 
L 137.179063 203.908355 
L 146.253978 206.468443 
L 153.850098 208.36806 
L 158.65111 209.379434 
L 162.739838 210.051928 
L 166.164697 210.399202 
L 168.972474 210.434723 
L 171.208352 210.171764 
L 172.402813 209.837105 
L 173.375039 209.379434 
L 174.137261 208.802543 
L 174.701405 208.110182 
L 175.079099 207.306067 
L 175.281676 206.393873 
L 175.320176 205.377238 
L 175.093719 203.664323 
L 174.557289 201.736495 
L 173.744535 199.605549 
L 172.286562 196.468355 
L 169.963921 192.109073 
L 166.013267 185.280466 
L 156.848371 169.581804 
L 152.840307 162.221442 
L 149.621649 155.878858 
L 146.591551 149.391001 
L 144.346968 144.123267 
L 142.294063 138.808355 
L 140.459143 133.465616 
L 138.865471 128.113792 
L 137.533356 122.771015 
L 136.480259 117.454807 
L 135.720882 112.182083 
L 135.351447 108.265906 
L 135.158192 104.390024 
L 135.144461 100.560899 
L 135.312838 96.784797 
L 135.665164 93.067793 
L 136.202563 89.415769 
L 136.925465 85.834413 
L 137.833629 82.329222 
L 138.926166 78.905499 
L 140.201562 75.568355 
L 141.657703 72.322706 
L 143.291893 69.173279 
L 145.100883 66.124603 
L 147.080892 63.181019 
L 149.227629 60.346673 
L 151.536317 57.625518 
L 154.001716 55.021314 
L 156.618148 52.537629 
L 159.379516 50.177838 
L 162.279331 47.945123 
L 165.310734 45.842473 
L 168.466517 43.872684 
L 171.739152 42.038359 
L 175.120805 40.34191 
L 178.603368 38.785553 
L 183.389267 36.931805 
L 188.319212 35.334955 
L 193.372114 33.998659 
L 198.526349 32.925966 
L 203.759853 32.119313 
L 209.050223 31.580528 
L 214.374809 31.310831 
L 219.710816 31.310831 
L 225.035402 31.580528 
L 230.325772 32.119313 
L 235.559276 32.925966 
L 240.713511 33.998659 
L 245.766413 35.334955 
L 250.696358 36.931805 
L 255.482257 38.785553 
L 258.96482 40.34191 
L 262.346473 42.038359 
L 265.619108 43.872684 
L 268.774891 45.842473 
L 271.806294 47.945123 
L 274.706109 50.177838 
L 277.467477 52.537629 
L 280.083909 55.021314 
L 282.549308 57.625518 
L 284.857996 60.346673 
L 287.004733 63.181019 
L 288.984742 66.124603 
L 290.793732 69.173279 
L 292.427922 72.322706 
L 293.884063 75.568355 
L 295.159459 78.905499 
L 296.251996 82.329222 
L 297.16016 85.834413 
L 297.883062 89.415769 
L 298.420461 93.067793 
L 298.772787 96.784797 
L 298.941163 100.560899 
L 298.927433 104.390024 
L 298.734178 108.265906 
L 298.364743 112.182083 
L 297.605366 117.454807 
L 296.552269 122.771015 
L 295.220154 128.113792 
L 293.626482 133.465616 
L 291.791563 138.808355 
L 289.738657 144.123267 
L 287.494074 149.391001 
L 284.463976 155.878858 
L 281.245318 162.221442 
L 277.237254 169.581804 
L 271.883165 178.846211 
L 263.61848 193.017638 
L 261.39792 197.283089 
L 260.041486 200.337712 
L 259.317197 202.402252 
L 258.880273 204.259761 
L 258.764867 205.898384 
L 258.884049 206.863251 
L 259.172791 207.721865 
L 259.642283 208.470566 
L 260.303985 209.105658 
L 261.169707 209.62341 
L 262.251485 210.020047 
L 263.56176 210.291774 
L 265.113145 210.434722 
L 267.920934 210.399201 
L 271.345783 210.051925 
L 275.434483 209.379426 
L 280.235538 208.368064 
L 285.799052 207.003979 
L 294.49216 204.612125 
L 304.760411 201.534425 
L 320.013004 196.670227 
L 338.206043 190.611903 
L 364.321264 181.666744 
L 395.602812 170.777105 
L 395.602812 170.777105 
" clip-path="url(#p5a9be24197)" style="fill: none; stroke: #8c564b; stroke-width: 1.5; stroke-linecap: square"/>
   </g>
   <g id="patch_3">
    <path d="M 38.482813 219.415683 
L 38.482813 22.318125 
" style="fill: none; stroke: #000000; stroke-width: 0.8; stroke-linejoin: miter; stroke-linecap: square"/>
   </g>
   <g id="patch_4">
    <path d="M 395.602813 219.415683 
L 395.602813 22.318125 
" style="fill: none; stroke: #000000; stroke-width: 0.8; stroke-linejoin: miter; stroke-linecap: square"/>
   </g>
   <g id="patch_5">
    <path d="M 38.482813 219.415683 
L 395.602813 219.415683 
" style="fill: none; stroke: #000000; stroke-width: 0.8; stroke-linejoin: miter; stroke-linecap: square"/>
   </g>
   <g id="patch_6">
    <path d="M 38.482813 22.318125 
L 395.602813 22.318125 
" style="fill: none; stroke: #000000; stroke-width: 0.8; stroke-linejoin: miter; stroke-linecap: square"/>
   </g>
   <g id="text_17">
    <!-- Fitting curves of different polynomial degrees to 2D points -->
    <g transform="translate(41.765 16.318125)scale(0.12 -0.12)">
     <defs>
      <path id="DejaVuSans-46" d="M 628 4666 
L 3309 4666 
L 3309 4134 
L 1259 4134 
L 1259 2759 
L 3109 2759 
L 3109 2228 
L 1259 2228 
L 1259 0 
L 628 0 
L 628 4666 
z
" transform="scale(0.015625)"/>
      <path id="DejaVuSans-69" d="M 603 3500 
L 1178 3500 
L 1178 0 
L 603 0 
L 603 3500 
z
M 603 4863 
L 1178 4863 
L 1178 4134 
L 603 4134 
L 603 4863 
z
" transform="scale(0.015625)"/>
      <path id="DejaVuSans-74" d="M 1172 4494 
L 1172 3500 
L 2356 3500 
L 2356 3053 
L 1172 3053 
L 1172 1153 
Q 1172 725 1289 603 
Q 1406 481 1766 481 
L 2356 481 
L 2356 0 
L 1766 0 
Q 1100 0 847 248 
Q 594 497 594 1153 
L 594 3053 
L 172 3053 
L 172 3500 
L 594 3500 
L 594 4494 
L 1172 4494 
z
" transform="scale(0.015625)"/>
      <path id="DejaVuSans-6e" d="M 3513 2113 
L 3513 0 
L 2938 0 
L 2938 2094 
Q 2938 2591 2744 2837 
Q 2550 3084 2163 3084 
Q 1697 3084 1428 2787 
Q 1159 2491 1159 1978 
L 1159 0 
L 581 0 
L 581 3500 
L 1159 3500 
L 1159 2956 
Q 1366 3272 1645 3428 
Q 1925 3584 2291 3584 
Q 2894 3584 3203 3211 
Q 3513 2838 3513 2113 
z
" transform="scale(0.015625)"/>
      <path id="DejaVuSans-67" d="M 2906 1791 
Q 2906 2416 2648 2759 
Q 2391 3103 1925 3103 
Q 1463 3103 1205 2759 
Q 947 2416 947 1791 
Q 947 1169 1205 825 
Q 1463 481 1925 481 
Q 2391 481 2648 825 
Q 2906 1169 2906 1791 
z
M 3481 434 
Q 3481 -459 3084 -895 
Q 2688 -1331 1869 -1331 
Q 1566 -1331 1297 -1286 
Q 1028 -1241 775 -1147 
L 775 -588 
Q 1028 -725 1275 -790 
Q 1522 -856 1778 -856 
Q 2344 -856 2625 -561 
Q 2906 -266 2906 331 
L 2906 616 
Q 2728 306 2450 153 
Q 2172 0 1784 0 
Q 1141 0 747 490 
Q 353 981 353 1791 
Q 353 2603 747 3093 
Q 1141 3584 1784 3584 
Q 2172 3584 2450 3431 
Q 2728 3278 2906 2969 
L 2906 3500 
L 3481 3500 
L 3481 434 
z
" transform="scale(0.015625)"/>
      <path id="DejaVuSans-20" transform="scale(0.015625)"/>
      <path id="DejaVuSans-63" d="M 3122 3366 
L 3122 2828 
Q 2878 2963 2633 3030 
Q 2388 3097 2138 3097 
Q 1578 3097 1268 2742 
Q 959 2388 959 1747 
Q 959 1106 1268 751 
Q 1578 397 2138 397 
Q 2388 397 2633 464 
Q 2878 531 3122 666 
L 3122 134 
Q 2881 22 2623 -34 
Q 2366 -91 2075 -91 
Q 1284 -91 818 406 
Q 353 903 353 1747 
Q 353 2603 823 3093 
Q 1294 3584 2113 3584 
Q 2378 3584 2631 3529 
Q 2884 3475 3122 3366 
z
" transform="scale(0.015625)"/>
      <path id="DejaVuSans-75" d="M 544 1381 
L 544 3500 
L 1119 3500 
L 1119 1403 
Q 1119 906 1312 657 
Q 1506 409 1894 409 
Q 2359 409 2629 706 
Q 2900 1003 2900 1516 
L 2900 3500 
L 3475 3500 
L 3475 0 
L 2900 0 
L 2900 538 
Q 2691 219 2414 64 
Q 2138 -91 1772 -91 
Q 1169 -91 856 284 
Q 544 659 544 1381 
z
M 1991 3584 
L 1991 3584 
z
" transform="scale(0.015625)"/>
      <path id="DejaVuSans-72" d="M 2631 2963 
Q 2534 3019 2420 3045 
Q 2306 3072 2169 3072 
Q 1681 3072 1420 2755 
Q 1159 2438 1159 1844 
L 1159 0 
L 581 0 
L 581 3500 
L 1159 3500 
L 1159 2956 
Q 1341 3275 1631 3429 
Q 1922 3584 2338 3584 
Q 2397 3584 2469 3576 
Q 2541 3569 2628 3553 
L 2631 2963 
z
" transform="scale(0.015625)"/>
      <path id="DejaVuSans-76" d="M 191 3500 
L 800 3500 
L 1894 563 
L 2988 3500 
L 3597 3500 
L 2284 0 
L 1503 0 
L 191 3500 
z
" transform="scale(0.015625)"/>
      <path id="DejaVuSans-65" d="M 3597 1894 
L 3597 1613 
L 953 1613 
Q 991 1019 1311 708 
Q 1631 397 2203 397 
Q 2534 397 2845 478 
Q 3156 559 3463 722 
L 3463 178 
Q 3153 47 2828 -22 
Q 2503 -91 2169 -91 
Q 1331 -91 842 396 
Q 353 884 353 1716 
Q 353 2575 817 3079 
Q 1281 3584 2069 3584 
Q 2775 3584 3186 3129 
Q 3597 2675 3597 1894 
z
M 3022 2063 
Q 3016 2534 2758 2815 
Q 2500 3097 2075 3097 
Q 1594 3097 1305 2825 
Q 1016 2553 972 2059 
L 3022 2063 
z
" transform="scale(0.015625)"/>
      <path id="DejaVuSans-73" d="M 2834 3397 
L 2834 2853 
Q 2591 2978 2328 3040 
Q 2066 3103 1784 3103 
Q 1356 3103 1142 2972 
Q 928 2841 928 2578 
Q 928 2378 1081 2264 
Q 1234 2150 1697 2047 
L 1894 2003 
Q 2506 1872 2764 1633 
Q 3022 1394 3022 966 
Q 3022 478 2636 193 
Q 2250 -91 1575 -91 
Q 1294 -91 989 -36 
Q 684 19 347 128 
L 347 722 
Q 666 556 975 473 
Q 1284 391 1588 391 
Q 1994 391 2212 530 
Q 2431 669 2431 922 
Q 2431 1156 2273 1281 
Q 2116 1406 1581 1522 
L 1381 1569 
Q 847 1681 609 1914 
Q 372 2147 372 2553 
Q 372 3047 722 3315 
Q 1072 3584 1716 3584 
Q 2034 3584 2315 3537 
Q 2597 3491 2834 3397 
z
" transform="scale(0.015625)"/>
      <path id="DejaVuSans-6f" d="M 1959 3097 
Q 1497 3097 1228 2736 
Q 959 2375 959 1747 
Q 959 1119 1226 758 
Q 1494 397 1959 397 
Q 2419 397 2687 759 
Q 2956 1122 2956 1747 
Q 2956 2369 2687 2733 
Q 2419 3097 1959 3097 
z
M 1959 3584 
Q 2709 3584 3137 3096 
Q 3566 2609 3566 1747 
Q 3566 888 3137 398 
Q 2709 -91 1959 -91 
Q 1206 -91 779 398 
Q 353 888 353 1747 
Q 353 2609 779 3096 
Q 1206 3584 1959 3584 
z
" transform="scale(0.015625)"/>
      <path id="DejaVuSans-66" d="M 2375 4863 
L 2375 4384 
L 1825 4384 
Q 1516 4384 1395 4259 
Q 1275 4134 1275 3809 
L 1275 3500 
L 2222 3500 
L 2222 3053 
L 1275 3053 
L 1275 0 
L 697 0 
L 697 3053 
L 147 3053 
L 147 3500 
L 697 3500 
L 697 3744 
Q 697 4328 969 4595 
Q 1241 4863 1831 4863 
L 2375 4863 
z
" transform="scale(0.015625)"/>
      <path id="DejaVuSans-64" d="M 2906 2969 
L 2906 4863 
L 3481 4863 
L 3481 0 
L 2906 0 
L 2906 525 
Q 2725 213 2448 61 
Q 2172 -91 1784 -91 
Q 1150 -91 751 415 
Q 353 922 353 1747 
Q 353 2572 751 3078 
Q 1150 3584 1784 3584 
Q 2172 3584 2448 3432 
Q 2725 3281 2906 2969 
z
M 947 1747 
Q 947 1113 1208 752 
Q 1469 391 1925 391 
Q 2381 391 2643 752 
Q 2906 1113 2906 1747 
Q 2906 2381 2643 2742 
Q 2381 3103 1925 3103 
Q 1469 3103 1208 2742 
Q 947 2381 947 1747 
z
" transform="scale(0.015625)"/>
      <path id="DejaVuSans-70" d="M 1159 525 
L 1159 -1331 
L 581 -1331 
L 581 3500 
L 1159 3500 
L 1159 2969 
Q 1341 3281 1617 3432 
Q 1894 3584 2278 3584 
Q 2916 3584 3314 3078 
Q 3713 2572 3713 1747 
Q 3713 922 3314 415 
Q 2916 -91 2278 -91 
Q 1894 -91 1617 61 
Q 1341 213 1159 525 
z
M 3116 1747 
Q 3116 2381 2855 2742 
Q 2594 3103 2138 3103 
Q 1681 3103 1420 2742 
Q 1159 2381 1159 1747 
Q 1159 1113 1420 752 
Q 1681 391 2138 391 
Q 2594 391 2855 752 
Q 3116 1113 3116 1747 
z
" transform="scale(0.015625)"/>
      <path id="DejaVuSans-6c" d="M 603 4863 
L 1178 4863 
L 1178 0 
L 603 0 
L 603 4863 
z
" transform="scale(0.015625)"/>
      <path id="DejaVuSans-79" d="M 2059 -325 
Q 1816 -950 1584 -1140 
Q 1353 -1331 966 -1331 
L 506 -1331 
L 506 -850 
L 844 -850 
Q 1081 -850 1212 -737 
Q 1344 -625 1503 -206 
L 1606 56 
L 191 3500 
L 800 3500 
L 1894 763 
L 2988 3500 
L 3597 3500 
L 2059 -325 
z
" transform="scale(0.015625)"/>
      <path id="DejaVuSans-6d" d="M 3328 2828 
Q 3544 3216 3844 3400 
Q 4144 3584 4550 3584 
Q 5097 3584 5394 3201 
Q 5691 2819 5691 2113 
L 5691 0 
L 5113 0 
L 5113 2094 
Q 5113 2597 4934 2840 
Q 4756 3084 4391 3084 
Q 3944 3084 3684 2787 
Q 3425 2491 3425 1978 
L 3425 0 
L 2847 0 
L 2847 2094 
Q 2847 2600 2669 2842 
Q 2491 3084 2119 3084 
Q 1678 3084 1418 2786 
Q 1159 2488 1159 1978 
L 1159 0 
L 581 0 
L 581 3500 
L 1159 3500 
L 1159 2956 
Q 1356 3278 1631 3431 
Q 1906 3584 2284 3584 
Q 2666 3584 2933 3390 
Q 3200 3197 3328 2828 
z
" transform="scale(0.015625)"/>
      <path id="DejaVuSans-61" d="M 2194 1759 
Q 1497 1759 1228 1600 
Q 959 1441 959 1056 
Q 959 750 1161 570 
Q 1363 391 1709 391 
Q 2188 391 2477 730 
Q 2766 1069 2766 1631 
L 2766 1759 
L 2194 1759 
z
M 3341 1997 
L 3341 0 
L 2766 0 
L 2766 531 
Q 2569 213 2275 61 
Q 1981 -91 1556 -91 
Q 1019 -91 701 211 
Q 384 513 384 1019 
Q 384 1609 779 1909 
Q 1175 2209 1959 2209 
L 2766 2209 
L 2766 2266 
Q 2766 2663 2505 2880 
Q 2244 3097 1772 3097 
Q 1472 3097 1187 3025 
Q 903 2953 641 2809 
L 641 3341 
Q 956 3463 1253 3523 
Q 1550 3584 1831 3584 
Q 2591 3584 2966 3190 
Q 3341 2797 3341 1997 
z
" transform="scale(0.015625)"/>
      <path id="DejaVuSans-44" d="M 1259 4147 
L 1259 519 
L 2022 519 
Q 2988 519 3436 956 
Q 3884 1394 3884 2338 
Q 3884 3275 3436 3711 
Q 2988 4147 2022 4147 
L 1259 4147 
z
M 628 4666 
L 1925 4666 
Q 3281 4666 3915 4102 
Q 4550 3538 4550 2338 
Q 4550 1131 3912 565 
Q 3275 0 1925 0 
L 628 0 
L 628 4666 
z
" transform="scale(0.015625)"/>
     </defs>
     <use xlink:href="#DejaVuSans-46"/>
     <use xlink:href="#DejaVuSans-69" x="50.269531"/>
     <use xlink:href="#DejaVuSans-74" x="78.052734"/>
     <use xlink:href="#DejaVuSans-74" x="117.261719"/>
     <use xlink:href="#DejaVuSans-69" x="156.470703"/>
     <use xlink:href="#DejaVuSans-6e" x="184.253906"/>
     <use xlink:href="#DejaVuSans-67" x="247.632812"/>
     <use xlink:href="#DejaVuSans-20" x="311.109375"/>
     <use xlink:href="#DejaVuSans-63" x="342.896484"/>
     <use xlink:href="#DejaVuSans-75" x="397.876953"/>
     <use xlink:href="#DejaVuSans-72" x="461.255859"/>
     <use xlink:href="#DejaVuSans-76" x="502.369141"/>
     <use xlink:href="#DejaVuSans-65" x="561.548828"/>
     <use xlink:href="#DejaVuSans-73" x="623.072266"/>
     <use xlink:href="#DejaVuSans-20" x="675.171875"/>
     <use xlink:href="#DejaVuSans-6f" x="706.958984"/>
     <use xlink:href="#DejaVuSans-66" x="768.140625"/>
     <use xlink:href="#DejaVuSans-20" x="803.345703"/>
     <use xlink:href="#DejaVuSans-64" x="835.132812"/>
     <use xlink:href="#DejaVuSans-69" x="898.609375"/>
     <use xlink:href="#DejaVuSans-66" x="926.392578"/>
     <use xlink:href="#DejaVuSans-66" x="961.597656"/>
     <use xlink:href="#DejaVuSans-65" x="996.802734"/>
     <use xlink:href="#DejaVuSans-72" x="1058.326172"/>
     <use xlink:href="#DejaVuSans-65" x="1097.189453"/>
     <use xlink:href="#DejaVuSans-6e" x="1158.712891"/>
     <use xlink:href="#DejaVuSans-74" x="1222.091797"/>
     <use xlink:href="#DejaVuSans-20" x="1261.300781"/>
     <use xlink:href="#DejaVuSans-70" x="1293.087891"/>
     <use xlink:href="#DejaVuSans-6f" x="1356.564453"/>
     <use xlink:href="#DejaVuSans-6c" x="1417.746094"/>
     <use xlink:href="#DejaVuSans-79" x="1445.529297"/>
     <use xlink:href="#DejaVuSans-6e" x="1504.708984"/>
     <use xlink:href="#DejaVuSans-6f" x="1568.087891"/>
     <use xlink:href="#DejaVuSans-6d" x="1629.269531"/>
     <use xlink:href="#DejaVuSans-69" x="1726.681641"/>
     <use xlink:href="#DejaVuSans-61" x="1754.464844"/>
     <use xlink:href="#DejaVuSans-6c" x="1815.744141"/>
     <use xlink:href="#DejaVuSans-20" x="1843.527344"/>
     <use xlink:href="#DejaVuSans-64" x="1875.314453"/>
     <use xlink:href="#DejaVuSans-65" x="1938.791016"/>
     <use xlink:href="#DejaVuSans-67" x="2000.314453"/>
     <use xlink:href="#DejaVuSans-72" x="2063.791016"/>
     <use xlink:href="#DejaVuSans-65" x="2102.654297"/>
     <use xlink:href="#DejaVuSans-65" x="2164.177734"/>
     <use xlink:href="#DejaVuSans-73" x="2225.701172"/>
     <use xlink:href="#DejaVuSans-20" x="2277.800781"/>
     <use xlink:href="#DejaVuSans-74" x="2309.587891"/>
     <use xlink:href="#DejaVuSans-6f" x="2348.796875"/>
     <use xlink:href="#DejaVuSans-20" x="2409.978516"/>
     <use xlink:href="#DejaVuSans-32" x="2441.765625"/>
     <use xlink:href="#DejaVuSans-44" x="2505.388672"/>
     <use xlink:href="#DejaVuSans-20" x="2582.390625"/>
     <use xlink:href="#DejaVuSans-70" x="2614.177734"/>
     <use xlink:href="#DejaVuSans-6f" x="2677.654297"/>
     <use xlink:href="#DejaVuSans-69" x="2738.835938"/>
     <use xlink:href="#DejaVuSans-6e" x="2766.619141"/>
     <use xlink:href="#DejaVuSans-74" x="2829.998047"/>
     <use xlink:href="#DejaVuSans-73" x="2869.207031"/>
    </g>
   </g>
   <g id="legend_1">
    <g id="patch_7">
     <path d="M 306.818438 118.386875 
L 388.602813 118.386875 
Q 390.602813 118.386875 390.602813 116.386875 
L 390.602813 29.318125 
Q 390.602813 27.318125 388.602813 27.318125 
L 306.818438 27.318125 
Q 304.818438 27.318125 304.818438 29.318125 
L 304.818438 116.386875 
Q 304.818438 118.386875 306.818438 118.386875 
z
" style="fill: #ffffff; opacity: 0.8; stroke: #cccccc; stroke-linejoin: miter"/>
    </g>
    <g id="PathCollection_2">
     <g>
      <use xlink:href="#m37ea4f848f" x="318.818438" y="36.291562" style="fill: #1f77b4; stroke: #1f77b4"/>
     </g>
    </g>
    <g id="text_18">
     <!-- Y -->
     <g transform="translate(336.818438 38.916562)scale(0.1 -0.1)">
      <defs>
       <path id="DejaVuSans-59" d="M -13 4666 
L 666 4666 
L 1959 2747 
L 3244 4666 
L 3922 4666 
L 2272 2222 
L 2272 0 
L 1638 0 
L 1638 2222 
L -13 4666 
z
" transform="scale(0.015625)"/>
      </defs>
      <use xlink:href="#DejaVuSans-59"/>
     </g>
    </g>
    <g id="line2d_22">
     <path d="M 308.818438 50.094687 
L 318.818438 50.094687 
L 328.818438 50.094687 
" style="fill: none; stroke: #ff7f0e; stroke-width: 1.5; stroke-linecap: square"/>
    </g>
    <g id="text_19">
     <!-- degree=1 -->
     <g transform="translate(336.818438 53.594687)scale(0.1 -0.1)">
      <defs>
       <path id="DejaVuSans-3d" d="M 678 2906 
L 4684 2906 
L 4684 2381 
L 678 2381 
L 678 2906 
z
M 678 1631 
L 4684 1631 
L 4684 1100 
L 678 1100 
L 678 1631 
z
" transform="scale(0.015625)"/>
      </defs>
      <use xlink:href="#DejaVuSans-64"/>
      <use xlink:href="#DejaVuSans-65" x="63.476562"/>
      <use xlink:href="#DejaVuSans-67" x="125"/>
      <use xlink:href="#DejaVuSans-72" x="188.476562"/>
      <use xlink:href="#DejaVuSans-65" x="227.339844"/>
      <use xlink:href="#DejaVuSans-65" x="288.863281"/>
      <use xlink:href="#DejaVuSans-3d" x="350.386719"/>
      <use xlink:href="#DejaVuSans-31" x="434.175781"/>
     </g>
    </g>
    <g id="line2d_23">
     <path d="M 308.818438 64.772812 
L 318.818438 64.772812 
L 328.818438 64.772812 
" style="fill: none; stroke: #2ca02c; stroke-width: 1.5; stroke-linecap: square"/>
    </g>
    <g id="text_20">
     <!-- degree=2 -->
     <g transform="translate(336.818438 68.272812)scale(0.1 -0.1)">
      <use xlink:href="#DejaVuSans-64"/>
      <use xlink:href="#DejaVuSans-65" x="63.476562"/>
      <use xlink:href="#DejaVuSans-67" x="125"/>
      <use xlink:href="#DejaVuSans-72" x="188.476562"/>
      <use xlink:href="#DejaVuSans-65" x="227.339844"/>
      <use xlink:href="#DejaVuSans-65" x="288.863281"/>
      <use xlink:href="#DejaVuSans-3d" x="350.386719"/>
      <use xlink:href="#DejaVuSans-32" x="434.175781"/>
     </g>
    </g>
    <g id="line2d_24">
     <path d="M 308.818438 79.450938 
L 318.818438 79.450938 
L 328.818438 79.450938 
" style="fill: none; stroke: #d62728; stroke-width: 1.5; stroke-linecap: square"/>
    </g>
    <g id="text_21">
     <!-- degree=3 -->
     <g transform="translate(336.818438 82.950938)scale(0.1 -0.1)">
      <use xlink:href="#DejaVuSans-64"/>
      <use xlink:href="#DejaVuSans-65" x="63.476562"/>
      <use xlink:href="#DejaVuSans-67" x="125"/>
      <use xlink:href="#DejaVuSans-72" x="188.476562"/>
      <use xlink:href="#DejaVuSans-65" x="227.339844"/>
      <use xlink:href="#DejaVuSans-65" x="288.863281"/>
      <use xlink:href="#DejaVuSans-3d" x="350.386719"/>
      <use xlink:href="#DejaVuSans-33" x="434.175781"/>
     </g>
    </g>
    <g id="line2d_25">
     <path d="M 308.818438 94.129063 
L 318.818438 94.129063 
L 328.818438 94.129063 
" style="fill: none; stroke: #9467bd; stroke-width: 1.5; stroke-linecap: square"/>
    </g>
    <g id="text_22">
     <!-- degree=4 -->
     <g transform="translate(336.818438 97.629063)scale(0.1 -0.1)">
      <use xlink:href="#DejaVuSans-64"/>
      <use xlink:href="#DejaVuSans-65" x="63.476562"/>
      <use xlink:href="#DejaVuSans-67" x="125"/>
      <use xlink:href="#DejaVuSans-72" x="188.476562"/>
      <use xlink:href="#DejaVuSans-65" x="227.339844"/>
      <use xlink:href="#DejaVuSans-65" x="288.863281"/>
      <use xlink:href="#DejaVuSans-3d" x="350.386719"/>
      <use xlink:href="#DejaVuSans-34" x="434.175781"/>
     </g>
    </g>
    <g id="line2d_26">
     <path d="M 308.818438 108.807187 
L 318.818438 108.807187 
L 328.818438 108.807187 
" style="fill: none; stroke: #8c564b; stroke-width: 1.5; stroke-linecap: square"/>
    </g>
    <g id="text_23">
     <!-- degree=5 -->
     <g transform="translate(336.818438 112.307187)scale(0.1 -0.1)">
      <use xlink:href="#DejaVuSans-64"/>
      <use xlink:href="#DejaVuSans-65" x="63.476562"/>
      <use xlink:href="#DejaVuSans-67" x="125"/>
      <use xlink:href="#DejaVuSans-72" x="188.476562"/>
      <use xlink:href="#DejaVuSans-65" x="227.339844"/>
      <use xlink:href="#DejaVuSans-65" x="288.863281"/>
      <use xlink:href="#DejaVuSans-3d" x="350.386719"/>
      <use xlink:href="#DejaVuSans-35" x="434.175781"/>
     </g>
    </g>
   </g>
  </g>
 </g>
 <defs>
  <clipPath id="p5a9be24197">
   <rect x="38.482813" y="22.318125" width="357.12" height="197.097558"/>
  </clipPath>
 </defs>
</svg>
