<?xml version="1.0" encoding="utf-8" standalone="no"?>
<!DOCTYPE svg PUBLIC "-//W3C//DTD SVG 1.1//EN"
  "http://www.w3.org/Graphics/SVG/1.1/DTD/svg11.dtd">
<svg xmlns:xlink="http://www.w3.org/1999/xlink" width="460.8pt" height="345.6pt" viewBox="0 0 460.8 345.6" xmlns="http://www.w3.org/2000/svg" version="1.1">
 <metadata>
  <rdf:RDF xmlns:dc="http://purl.org/dc/elements/1.1/" xmlns:cc="http://creativecommons.org/ns#" xmlns:rdf="http://www.w3.org/1999/02/22-rdf-syntax-ns#">
   <cc:Work>
    <dc:type rdf:resource="http://purl.org/dc/dcmitype/StillImage"/>
    <dc:date>2022-06-12T15:23:28.457419</dc:date>
    <dc:format>image/svg+xml</dc:format>
    <dc:creator>
     <cc:Agent>
      <dc:title>Matplotlib v3.5.2, https://matplotlib.org/</dc:title>
     </cc:Agent>
    </dc:creator>
   </cc:Work>
  </rdf:RDF>
 </metadata>
 <defs>
  <style type="text/css">*{stroke-linejoin: round; stroke-linecap: butt}</style>
 </defs>
 <g id="figure_1">
  <g id="patch_1">
   <path d="M 0 345.6 
L 460.8 345.6 
L 460.8 0 
L 0 0 
z
" style="fill: #ffffff"/>
  </g>
  <g id="axes_1">
   <g id="patch_2">
    <path d="M 57.6 256.45171 
L 414.72 256.45171 
L 414.72 92.60429 
L 57.6 92.60429 
z
" style="fill: #ffffff"/>
   </g>
   <g id="PathCollection_1">
    <defs>
     <path id="mf2717a6d50" d="M 0 3 
C 0.795609 3 1.55874 2.683901 2.12132 2.12132 
C 2.683901 1.55874 3 0.795609 3 0 
C 3 -0.795609 2.683901 -1.55874 2.12132 -2.12132 
C 1.55874 -2.683901 0.795609 -3 0 -3 
C -0.795609 -3 -1.55874 -2.683901 -2.12132 -2.12132 
C -2.683901 -1.55874 -3 -0.795609 -3 0 
C -3 0.795609 -2.683901 1.55874 -2.12132 2.12132 
C -1.55874 2.683901 -0.795609 3 0 3 
z
" style="stroke: #1f77b4"/>
    </defs>
    <g clip-path="url(#p7ce65de559)">
     <use xlink:href="#mf2717a6d50" x="73.832727" y="221.76506" style="fill: #1f77b4; stroke: #1f77b4"/>
     <use xlink:href="#mf2717a6d50" x="182.048983" y="221.76506" style="fill: #1f77b4; stroke: #1f77b4"/>
     <use xlink:href="#mf2717a6d50" x="182.048983" y="113.548804" style="fill: #1f77b4; stroke: #1f77b4"/>
     <use xlink:href="#mf2717a6d50" x="290.265238" y="113.548804" style="fill: #1f77b4; stroke: #1f77b4"/>
     <use xlink:href="#mf2717a6d50" x="290.265238" y="221.76506" style="fill: #1f77b4; stroke: #1f77b4"/>
     <use xlink:href="#mf2717a6d50" x="398.481493" y="221.76506" style="fill: #1f77b4; stroke: #1f77b4"/>
    </g>
   </g>
   <g id="matplotlib.axis_1">
    <g id="xtick_1">
     <g id="line2d_1">
      <defs>
       <path id="m7c8703fff3" d="M 0 0 
L 0 3.5 
" style="stroke: #000000; stroke-width: 0.8"/>
      </defs>
      <g>
       <use xlink:href="#m7c8703fff3" x="73.832727" y="256.45171" style="stroke: #000000; stroke-width: 0.8"/>
      </g>
     </g>
     <g id="text_1">
      <!-- 0.0 -->
      <g transform="translate(65.881165 271.050148)scale(0.1 -0.1)">
       <defs>
        <path id="DejaVuSans-30" d="M 2034 4250 
Q 1547 4250 1301 3770 
Q 1056 3291 1056 2328 
Q 1056 1369 1301 889 
Q 1547 409 2034 409 
Q 2525 409 2770 889 
Q 3016 1369 3016 2328 
Q 3016 3291 2770 3770 
Q 2525 4250 2034 4250 
z
M 2034 4750 
Q 2819 4750 3233 4129 
Q 3647 3509 3647 2328 
Q 3647 1150 3233 529 
Q 2819 -91 2034 -91 
Q 1250 -91 836 529 
Q 422 1150 422 2328 
Q 422 3509 836 4129 
Q 1250 4750 2034 4750 
z
" transform="scale(0.015625)"/>
        <path id="DejaVuSans-2e" d="M 684 794 
L 1344 794 
L 1344 0 
L 684 0 
L 684 794 
z
" transform="scale(0.015625)"/>
       </defs>
       <use xlink:href="#DejaVuSans-30"/>
       <use xlink:href="#DejaVuSans-2e" x="63.623047"/>
       <use xlink:href="#DejaVuSans-30" x="95.410156"/>
      </g>
     </g>
    </g>
    <g id="xtick_2">
     <g id="line2d_2">
      <g>
       <use xlink:href="#m7c8703fff3" x="127.940855" y="256.45171" style="stroke: #000000; stroke-width: 0.8"/>
      </g>
     </g>
     <g id="text_2">
      <!-- 0.5 -->
      <g transform="translate(119.989292 271.050148)scale(0.1 -0.1)">
       <defs>
        <path id="DejaVuSans-35" d="M 691 4666 
L 3169 4666 
L 3169 4134 
L 1269 4134 
L 1269 2991 
Q 1406 3038 1543 3061 
Q 1681 3084 1819 3084 
Q 2600 3084 3056 2656 
Q 3513 2228 3513 1497 
Q 3513 744 3044 326 
Q 2575 -91 1722 -91 
Q 1428 -91 1123 -41 
Q 819 9 494 109 
L 494 744 
Q 775 591 1075 516 
Q 1375 441 1709 441 
Q 2250 441 2565 725 
Q 2881 1009 2881 1497 
Q 2881 1984 2565 2268 
Q 2250 2553 1709 2553 
Q 1456 2553 1204 2497 
Q 953 2441 691 2322 
L 691 4666 
z
" transform="scale(0.015625)"/>
       </defs>
       <use xlink:href="#DejaVuSans-30"/>
       <use xlink:href="#DejaVuSans-2e" x="63.623047"/>
       <use xlink:href="#DejaVuSans-35" x="95.410156"/>
      </g>
     </g>
    </g>
    <g id="xtick_3">
     <g id="line2d_3">
      <g>
       <use xlink:href="#m7c8703fff3" x="182.048983" y="256.45171" style="stroke: #000000; stroke-width: 0.8"/>
      </g>
     </g>
     <g id="text_3">
      <!-- 1.0 -->
      <g transform="translate(174.09742 271.050148)scale(0.1 -0.1)">
       <defs>
        <path id="DejaVuSans-31" d="M 794 531 
L 1825 531 
L 1825 4091 
L 703 3866 
L 703 4441 
L 1819 4666 
L 2450 4666 
L 2450 531 
L 3481 531 
L 3481 0 
L 794 0 
L 794 531 
z
" transform="scale(0.015625)"/>
       </defs>
       <use xlink:href="#DejaVuSans-31"/>
       <use xlink:href="#DejaVuSans-2e" x="63.623047"/>
       <use xlink:href="#DejaVuSans-30" x="95.410156"/>
      </g>
     </g>
    </g>
    <g id="xtick_4">
     <g id="line2d_4">
      <g>
       <use xlink:href="#m7c8703fff3" x="236.15711" y="256.45171" style="stroke: #000000; stroke-width: 0.8"/>
      </g>
     </g>
     <g id="text_4">
      <!-- 1.5 -->
      <g transform="translate(228.205548 271.050148)scale(0.1 -0.1)">
       <use xlink:href="#DejaVuSans-31"/>
       <use xlink:href="#DejaVuSans-2e" x="63.623047"/>
       <use xlink:href="#DejaVuSans-35" x="95.410156"/>
      </g>
     </g>
    </g>
    <g id="xtick_5">
     <g id="line2d_5">
      <g>
       <use xlink:href="#m7c8703fff3" x="290.265238" y="256.45171" style="stroke: #000000; stroke-width: 0.8"/>
      </g>
     </g>
     <g id="text_5">
      <!-- 2.0 -->
      <g transform="translate(282.313675 271.050148)scale(0.1 -0.1)">
       <defs>
        <path id="DejaVuSans-32" d="M 1228 531 
L 3431 531 
L 3431 0 
L 469 0 
L 469 531 
Q 828 903 1448 1529 
Q 2069 2156 2228 2338 
Q 2531 2678 2651 2914 
Q 2772 3150 2772 3378 
Q 2772 3750 2511 3984 
Q 2250 4219 1831 4219 
Q 1534 4219 1204 4116 
Q 875 4013 500 3803 
L 500 4441 
Q 881 4594 1212 4672 
Q 1544 4750 1819 4750 
Q 2544 4750 2975 4387 
Q 3406 4025 3406 3419 
Q 3406 3131 3298 2873 
Q 3191 2616 2906 2266 
Q 2828 2175 2409 1742 
Q 1991 1309 1228 531 
z
" transform="scale(0.015625)"/>
       </defs>
       <use xlink:href="#DejaVuSans-32"/>
       <use xlink:href="#DejaVuSans-2e" x="63.623047"/>
       <use xlink:href="#DejaVuSans-30" x="95.410156"/>
      </g>
     </g>
    </g>
    <g id="xtick_6">
     <g id="line2d_6">
      <g>
       <use xlink:href="#m7c8703fff3" x="344.373366" y="256.45171" style="stroke: #000000; stroke-width: 0.8"/>
      </g>
     </g>
     <g id="text_6">
      <!-- 2.5 -->
      <g transform="translate(336.421803 271.050148)scale(0.1 -0.1)">
       <use xlink:href="#DejaVuSans-32"/>
       <use xlink:href="#DejaVuSans-2e" x="63.623047"/>
       <use xlink:href="#DejaVuSans-35" x="95.410156"/>
      </g>
     </g>
    </g>
    <g id="xtick_7">
     <g id="line2d_7">
      <g>
       <use xlink:href="#m7c8703fff3" x="398.481493" y="256.45171" style="stroke: #000000; stroke-width: 0.8"/>
      </g>
     </g>
     <g id="text_7">
      <!-- 3.0 -->
      <g transform="translate(390.529931 271.050148)scale(0.1 -0.1)">
       <defs>
        <path id="DejaVuSans-33" d="M 2597 2516 
Q 3050 2419 3304 2112 
Q 3559 1806 3559 1356 
Q 3559 666 3084 287 
Q 2609 -91 1734 -91 
Q 1441 -91 1130 -33 
Q 819 25 488 141 
L 488 750 
Q 750 597 1062 519 
Q 1375 441 1716 441 
Q 2309 441 2620 675 
Q 2931 909 2931 1356 
Q 2931 1769 2642 2001 
Q 2353 2234 1838 2234 
L 1294 2234 
L 1294 2753 
L 1863 2753 
Q 2328 2753 2575 2939 
Q 2822 3125 2822 3475 
Q 2822 3834 2567 4026 
Q 2313 4219 1838 4219 
Q 1578 4219 1281 4162 
Q 984 4106 628 3988 
L 628 4550 
Q 988 4650 1302 4700 
Q 1616 4750 1894 4750 
Q 2613 4750 3031 4423 
Q 3450 4097 3450 3541 
Q 3450 3153 3228 2886 
Q 3006 2619 2597 2516 
z
" transform="scale(0.015625)"/>
       </defs>
       <use xlink:href="#DejaVuSans-33"/>
       <use xlink:href="#DejaVuSans-2e" x="63.623047"/>
       <use xlink:href="#DejaVuSans-30" x="95.410156"/>
      </g>
     </g>
    </g>
   </g>
   <g id="matplotlib.axis_2">
    <g id="ytick_1">
     <g id="line2d_8">
      <defs>
       <path id="mb597ff0d04" d="M 0 0 
L -3.5 0 
" style="stroke: #000000; stroke-width: 0.8"/>
      </defs>
      <g>
       <use xlink:href="#mb597ff0d04" x="57.6" y="243.408311" style="stroke: #000000; stroke-width: 0.8"/>
      </g>
     </g>
     <g id="text_8">
      <!-- −0.2 -->
      <g transform="translate(26.317187 247.20753)scale(0.1 -0.1)">
       <defs>
        <path id="DejaVuSans-2212" d="M 678 2272 
L 4684 2272 
L 4684 1741 
L 678 1741 
L 678 2272 
z
" transform="scale(0.015625)"/>
       </defs>
       <use xlink:href="#DejaVuSans-2212"/>
       <use xlink:href="#DejaVuSans-30" x="83.789062"/>
       <use xlink:href="#DejaVuSans-2e" x="147.412109"/>
       <use xlink:href="#DejaVuSans-32" x="179.199219"/>
      </g>
     </g>
    </g>
    <g id="ytick_2">
     <g id="line2d_9">
      <g>
       <use xlink:href="#mb597ff0d04" x="57.6" y="221.76506" style="stroke: #000000; stroke-width: 0.8"/>
      </g>
     </g>
     <g id="text_9">
      <!-- 0.0 -->
      <g transform="translate(34.696875 225.564279)scale(0.1 -0.1)">
       <use xlink:href="#DejaVuSans-30"/>
       <use xlink:href="#DejaVuSans-2e" x="63.623047"/>
       <use xlink:href="#DejaVuSans-30" x="95.410156"/>
      </g>
     </g>
    </g>
    <g id="ytick_3">
     <g id="line2d_10">
      <g>
       <use xlink:href="#mb597ff0d04" x="57.6" y="200.121809" style="stroke: #000000; stroke-width: 0.8"/>
      </g>
     </g>
     <g id="text_10">
      <!-- 0.2 -->
      <g transform="translate(34.696875 203.921027)scale(0.1 -0.1)">
       <use xlink:href="#DejaVuSans-30"/>
       <use xlink:href="#DejaVuSans-2e" x="63.623047"/>
       <use xlink:href="#DejaVuSans-32" x="95.410156"/>
      </g>
     </g>
    </g>
    <g id="ytick_4">
     <g id="line2d_11">
      <g>
       <use xlink:href="#mb597ff0d04" x="57.6" y="178.478558" style="stroke: #000000; stroke-width: 0.8"/>
      </g>
     </g>
     <g id="text_11">
      <!-- 0.4 -->
      <g transform="translate(34.696875 182.277776)scale(0.1 -0.1)">
       <defs>
        <path id="DejaVuSans-34" d="M 2419 4116 
L 825 1625 
L 2419 1625 
L 2419 4116 
z
M 2253 4666 
L 3047 4666 
L 3047 1625 
L 3713 1625 
L 3713 1100 
L 3047 1100 
L 3047 0 
L 2419 0 
L 2419 1100 
L 313 1100 
L 313 1709 
L 2253 4666 
z
" transform="scale(0.015625)"/>
       </defs>
       <use xlink:href="#DejaVuSans-30"/>
       <use xlink:href="#DejaVuSans-2e" x="63.623047"/>
       <use xlink:href="#DejaVuSans-34" x="95.410156"/>
      </g>
     </g>
    </g>
    <g id="ytick_5">
     <g id="line2d_12">
      <g>
       <use xlink:href="#mb597ff0d04" x="57.6" y="156.835307" style="stroke: #000000; stroke-width: 0.8"/>
      </g>
     </g>
     <g id="text_12">
      <!-- 0.6 -->
      <g transform="translate(34.696875 160.634525)scale(0.1 -0.1)">
       <defs>
        <path id="DejaVuSans-36" d="M 2113 2584 
Q 1688 2584 1439 2293 
Q 1191 2003 1191 1497 
Q 1191 994 1439 701 
Q 1688 409 2113 409 
Q 2538 409 2786 701 
Q 3034 994 3034 1497 
Q 3034 2003 2786 2293 
Q 2538 2584 2113 2584 
z
M 3366 4563 
L 3366 3988 
Q 3128 4100 2886 4159 
Q 2644 4219 2406 4219 
Q 1781 4219 1451 3797 
Q 1122 3375 1075 2522 
Q 1259 2794 1537 2939 
Q 1816 3084 2150 3084 
Q 2853 3084 3261 2657 
Q 3669 2231 3669 1497 
Q 3669 778 3244 343 
Q 2819 -91 2113 -91 
Q 1303 -91 875 529 
Q 447 1150 447 2328 
Q 447 3434 972 4092 
Q 1497 4750 2381 4750 
Q 2619 4750 2861 4703 
Q 3103 4656 3366 4563 
z
" transform="scale(0.015625)"/>
       </defs>
       <use xlink:href="#DejaVuSans-30"/>
       <use xlink:href="#DejaVuSans-2e" x="63.623047"/>
       <use xlink:href="#DejaVuSans-36" x="95.410156"/>
      </g>
     </g>
    </g>
    <g id="ytick_6">
     <g id="line2d_13">
      <g>
       <use xlink:href="#mb597ff0d04" x="57.6" y="135.192055" style="stroke: #000000; stroke-width: 0.8"/>
      </g>
     </g>
     <g id="text_13">
      <!-- 0.8 -->
      <g transform="translate(34.696875 138.991274)scale(0.1 -0.1)">
       <defs>
        <path id="DejaVuSans-38" d="M 2034 2216 
Q 1584 2216 1326 1975 
Q 1069 1734 1069 1313 
Q 1069 891 1326 650 
Q 1584 409 2034 409 
Q 2484 409 2743 651 
Q 3003 894 3003 1313 
Q 3003 1734 2745 1975 
Q 2488 2216 2034 2216 
z
M 1403 2484 
Q 997 2584 770 2862 
Q 544 3141 544 3541 
Q 544 4100 942 4425 
Q 1341 4750 2034 4750 
Q 2731 4750 3128 4425 
Q 3525 4100 3525 3541 
Q 3525 3141 3298 2862 
Q 3072 2584 2669 2484 
Q 3125 2378 3379 2068 
Q 3634 1759 3634 1313 
Q 3634 634 3220 271 
Q 2806 -91 2034 -91 
Q 1263 -91 848 271 
Q 434 634 434 1313 
Q 434 1759 690 2068 
Q 947 2378 1403 2484 
z
M 1172 3481 
Q 1172 3119 1398 2916 
Q 1625 2713 2034 2713 
Q 2441 2713 2670 2916 
Q 2900 3119 2900 3481 
Q 2900 3844 2670 4047 
Q 2441 4250 2034 4250 
Q 1625 4250 1398 4047 
Q 1172 3844 1172 3481 
z
" transform="scale(0.015625)"/>
       </defs>
       <use xlink:href="#DejaVuSans-30"/>
       <use xlink:href="#DejaVuSans-2e" x="63.623047"/>
       <use xlink:href="#DejaVuSans-38" x="95.410156"/>
      </g>
     </g>
    </g>
    <g id="ytick_7">
     <g id="line2d_14">
      <g>
       <use xlink:href="#mb597ff0d04" x="57.6" y="113.548804" style="stroke: #000000; stroke-width: 0.8"/>
      </g>
     </g>
     <g id="text_14">
      <!-- 1.0 -->
      <g transform="translate(34.696875 117.348023)scale(0.1 -0.1)">
       <use xlink:href="#DejaVuSans-31"/>
       <use xlink:href="#DejaVuSans-2e" x="63.623047"/>
       <use xlink:href="#DejaVuSans-30" x="95.410156"/>
      </g>
     </g>
    </g>
   </g>
   <g id="line2d_15">
    <path d="M 73.832727 221.76506 
L 82.954038 226.557731 
L 91.569758 230.844813 
L 99.693738 234.640158 
L 107.33983 237.957618 
L 114.521885 240.811044 
L 121.253755 243.214287 
L 127.54929 245.181198 
L 133.422342 246.72563 
L 137.558209 247.615035 
L 141.470065 248.28043 
L 145.163753 248.727659 
L 148.645118 248.962566 
L 151.920003 248.990995 
L 154.994252 248.81879 
L 157.873711 248.451795 
L 160.564224 247.895854 
L 163.071635 247.156812 
L 165.40179 246.240512 
L 167.560534 245.152799 
L 169.553714 243.899519 
L 171.387176 242.486517 
L 173.066768 240.919637 
L 174.598336 239.204726 
L 175.98773 237.347629 
L 177.240798 235.354194 
L 178.363392 233.230267 
L 179.667336 230.205483 
L 180.7636 226.972972 
L 181.666063 223.546599 
L 182.388606 219.940229 
L 182.945117 216.167734 
L 183.428439 211.239634 
L 183.701193 206.100739 
L 183.788784 199.69398 
L 183.659186 193.069545 
L 183.229499 183.979237 
L 182.434294 172.357444 
L 180.603633 146.748892 
L 179.981503 134.372716 
L 179.764311 126.774907 
L 179.84559 122.619315 
L 180.149444 119.669153 
L 180.540065 117.819511 
L 181.13073 116.089398 
L 181.956994 114.497471 
L 183.039266 113.054813 
L 184.377505 111.762281 
L 185.951225 110.610507 
L 187.724821 109.58256 
L 190.666943 108.228197 
L 193.828693 107.042279 
L 198.220371 105.645326 
L 203.829716 104.123498 
L 209.50013 102.827666 
L 215.219826 101.765526 
L 220.988925 100.95065 
L 226.801564 100.393414 
L 232.644392 100.100006 
L 238.499193 100.073283 
L 244.345973 100.313493 
L 250.165919 100.818338 
L 255.944459 101.582374 
L 261.674121 102.596095 
L 267.35445 103.846245 
L 272.979055 105.322439 
L 277.401186 106.67572 
L 281.647277 108.228197 
L 284.5894 109.58256 
L 286.362996 110.610507 
L 287.936716 111.762281 
L 289.274954 113.054813 
L 290.357227 114.497471 
L 291.183491 116.089398 
L 291.774155 117.819511 
L 292.164777 119.669153 
L 292.46863 122.619315 
L 292.549909 126.774907 
L 292.376442 133.270688 
L 291.77722 145.606846 
L 290.940664 158.310432 
L 288.895131 187.41667 
L 288.590598 195.298986 
L 288.528185 201.856065 
L 288.698599 208.179858 
L 289.052321 213.237687 
L 289.627474 218.07388 
L 290.265264 221.765047 
L 291.076032 225.283152 
L 292.07366 228.614327 
L 293.272029 231.744707 
L 294.685016 234.660428 
L 295.893942 236.698011 
L 297.237246 238.601203 
L 298.720773 240.364159 
L 300.350373 241.981032 
L 302.131894 243.445977 
L 304.071185 244.753147 
L 306.174091 245.896698 
L 308.446468 246.870785 
L 310.894135 247.669562 
L 313.522966 248.287188 
L 316.338813 248.717814 
L 319.347469 248.955599 
L 322.554693 248.994696 
L 325.966769 248.82926 
L 329.589086 248.45346 
L 333.427289 247.861434 
L 337.487952 247.047359 
L 341.776412 246.005352 
L 346.298711 244.729625 
L 352.701467 242.654916 
L 359.544063 240.140443 
L 366.841185 237.172321 
L 374.606396 233.736644 
L 382.853448 229.81969 
L 391.586749 225.40752 
L 398.487273 221.765059 
L 398.487273 221.765059 
" clip-path="url(#p7ce65de559)" style="fill: none; stroke: #ff7f0e; stroke-width: 1.5; stroke-linecap: square"/>
   </g>
   <g id="line2d_16">
    <path d="M 73.832762 221.765077 
L 82.934833 226.548123 
L 91.530466 230.825155 
L 99.633601 234.61007 
L 107.258199 237.916773 
L 114.418242 240.759181 
L 121.127738 243.151224 
L 127.400719 245.106844 
L 133.251249 246.639997 
L 137.370389 247.521023 
L 141.265784 248.178171 
L 144.943404 248.617349 
L 148.409229 248.844467 
L 151.669253 248.865445 
L 154.729482 248.686207 
L 157.595934 248.312685 
L 160.274645 247.750818 
L 162.771661 247.006551 
L 165.093046 246.085839 
L 167.244878 244.994641 
L 169.233252 243.738929 
L 171.064276 242.324678 
L 172.744078 240.757875 
L 174.2788 239.044513 
L 175.674603 237.190596 
L 176.937661 235.202132 
L 178.074166 233.085143 
L 179.40338 230.072978 
L 180.533407 226.857348 
L 181.47905 223.452583 
L 182.255156 219.87304 
L 183.009555 215.174731 
L 183.551455 210.253913 
L 183.962385 204.094874 
L 184.160032 197.704722 
L 184.179736 188.909507 
L 183.935333 175.364679 
L 183.746926 161.757295 
L 183.854211 153.961875 
L 184.180421 147.453124 
L 184.68152 142.202003 
L 185.271476 138.144254 
L 186.061352 134.237995 
L 187.080469 130.505797 
L 188.011739 127.834004 
L 189.097221 125.280829 
L 190.344748 122.853758 
L 191.759568 120.55903 
L 193.343949 118.401422 
L 195.096978 116.384133 
L 197.014607 114.508787 
L 199.089918 112.775549 
L 201.313571 111.183342 
L 203.674381 109.730122 
L 206.15993 108.413189 
L 209.64542 106.863967 
L 213.298238 105.544133 
L 217.088241 104.446717 
L 220.987201 103.565729 
L 224.969101 102.896386 
L 229.009992 102.435145 
L 233.087588 102.179643 
L 237.180714 102.128605 
L 241.268676 102.281781 
L 245.330622 102.639927 
L 249.344895 103.204852 
L 253.288441 103.979498 
L 257.136314 104.968023 
L 260.861386 106.175831 
L 264.434401 107.609442 
L 267.824546 109.276148 
L 270.228359 110.683615 
L 272.499047 112.229227 
L 274.624947 113.915281 
L 276.596036 115.743209 
L 278.404531 117.713289 
L 280.045386 119.824401 
L 281.51663 122.073877 
L 282.81948 124.457458 
L 283.958223 126.969373 
L 284.939888 129.602524 
L 285.773741 132.348748 
L 286.674653 136.170771 
L 287.360855 140.155607 
L 287.861955 144.280652 
L 288.272034 149.600566 
L 288.515892 156.170854 
L 288.559466 164.011664 
L 288.354473 176.501501 
L 288.115728 192.238302 
L 288.199506 199.857438 
L 288.462611 206.175975 
L 288.955894 212.24714 
L 289.579291 217.082331 
L 290.426855 221.683761 
L 291.285871 225.17771 
L 292.321853 228.489701 
L 293.549626 231.605389 
L 294.98397 234.510452 
L 296.204155 236.542427 
L 297.555022 238.441861 
L 299.042753 240.202743 
L 300.673511 241.819065 
L 302.453447 243.284832 
L 304.38869 244.594055 
L 306.485358 245.740754 
L 308.749549 246.718958 
L 311.187348 247.522702 
L 313.804821 248.14603 
L 316.608022 248.582994 
L 319.602989 248.827652 
L 322.795747 248.874072 
L 326.192305 248.716325 
L 329.798661 248.348491 
L 333.620801 247.764656 
L 337.664697 246.958912 
L 341.93631 245.925356 
L 346.441592 244.65809 
L 352.822385 242.594673 
L 359.643203 240.091345 
L 366.918072 237.134169 
L 374.660994 233.709217 
L 382.885947 229.802576 
L 391.606882 225.400343 
L 398.481458 221.765077 
L 398.481458 221.765077 
" clip-path="url(#p7ce65de559)" style="fill: none; stroke: #2ca02c; stroke-width: 1.5; stroke-linecap: square"/>
   </g>
   <g id="line2d_17">
    <path d="M 73.851468 221.77473 
L 82.625946 226.390195 
L 90.897348 230.500935 
L 98.680962 234.121499 
L 105.992161 237.266486 
L 112.846406 239.950537 
L 119.259242 242.188338 
L 125.246305 243.994623 
L 130.823313 245.384174 
L 134.746476 246.161772 
L 138.454571 246.71957 
L 141.954322 247.063853 
L 145.252481 247.200926 
L 148.355822 247.137105 
L 151.271144 246.878722 
L 154.00527 246.432124 
L 156.565042 245.803673 
L 158.957327 244.999743 
L 161.189009 244.026723 
L 163.266989 242.891017 
L 165.198185 241.59904 
L 166.98953 240.157221 
L 168.647967 238.572001 
L 170.180449 236.849831 
L 171.593937 234.997177 
L 173.30552 232.335183 
L 174.834438 229.468093 
L 176.197179 226.4113 
L 177.410193 223.180216 
L 178.740875 218.919761 
L 179.895046 214.441206 
L 181.09144 208.821442 
L 182.29498 201.992162 
L 183.812776 191.881954 
L 186.270606 175.377487 
L 187.739664 167.222945 
L 189.022926 161.242109 
L 190.49817 155.427089 
L 191.89398 150.73885 
L 193.454815 146.219027 
L 195.190447 141.889849 
L 197.107567 137.772157 
L 199.209705 133.885321 
L 201.02496 130.954101 
L 202.957617 128.190465 
L 205.00512 125.602148 
L 207.163693 123.196227 
L 209.428395 120.979117 
L 211.793187 118.956588 
L 214.251016 117.133773 
L 216.793906 115.515189 
L 219.413048 114.104754 
L 222.098905 112.905808 
L 224.841313 111.921138 
L 227.629585 111.152989 
L 230.45262 110.60309 
L 233.299002 110.272664 
L 236.15711 110.162442 
L 239.015218 110.272664 
L 241.861601 110.60309 
L 244.684636 111.152989 
L 247.472908 111.921138 
L 250.215316 112.905808 
L 252.901172 114.104754 
L 255.520314 115.515189 
L 258.063204 117.133773 
L 260.521034 118.956588 
L 262.885826 120.979117 
L 265.150527 123.196227 
L 267.309101 125.602148 
L 269.356604 128.190465 
L 271.28926 130.954101 
L 273.104516 133.885321 
L 274.801084 136.975728 
L 276.755028 141.04875 
L 278.526522 145.337253 
L 280.121631 149.820681 
L 281.549521 154.477079 
L 283.059554 160.260241 
L 284.372697 166.216506 
L 285.698239 173.324711 
L 287.166644 182.601626 
L 290.686046 205.926277 
L 291.999852 212.595463 
L 293.329405 218.040534 
L 294.622246 222.347019 
L 295.800392 225.619266 
L 297.124161 228.721077 
L 298.609991 231.637037 
L 300.274361 234.351747 
L 302.133771 236.849831 
L 303.666254 238.572001 
L 305.324691 240.157221 
L 307.116036 241.59904 
L 309.047232 242.891017 
L 311.125212 244.026723 
L 313.356893 244.999743 
L 315.749178 245.803673 
L 318.308951 246.432124 
L 321.043077 246.878722 
L 323.958399 247.137105 
L 327.06174 247.200926 
L 330.359898 247.063853 
L 333.85965 246.71957 
L 337.567745 246.161772 
L 341.490908 245.384174 
L 345.635837 244.380502 
L 350.009206 243.144497 
L 356.207196 241.124299 
L 362.838787 238.665212 
L 369.919571 235.752526 
L 377.465051 232.371578 
L 385.490643 228.507747 
L 394.011677 224.146461 
L 398.462753 221.77473 
L 398.462753 221.77473 
" clip-path="url(#p7ce65de559)" style="fill: none; stroke: #d62728; stroke-width: 1.5; stroke-linecap: square"/>
   </g>
   <g id="line2d_18">
    <path d="M 74.15036 221.956374 
L 81.877674 225.957239 
L 89.154965 229.476838 
L 95.999895 232.531136 
L 102.430093 235.136118 
L 108.463146 237.307787 
L 114.116582 239.062155 
L 119.407855 240.41524 
L 123.149085 241.176348 
L 126.703649 241.727499 
L 130.078791 242.075443 
L 133.281709 242.226922 
L 136.319557 242.188674 
L 139.199431 241.967423 
L 141.928372 241.569882 
L 144.513356 241.002751 
L 146.96129 240.272711 
L 149.279007 239.386426 
L 151.473263 238.350538 
L 153.550727 237.171663 
L 155.51798 235.856395 
L 157.98074 233.901871 
L 160.274177 231.731996 
L 162.413041 229.362123 
L 164.411717 226.807477 
L 166.284203 224.083151 
L 168.468015 220.461872 
L 170.50144 216.627615 
L 172.777404 211.785296 
L 174.912002 206.725239 
L 177.602539 199.720885 
L 181.466369 188.880283 
L 186.650874 174.335485 
L 189.729701 166.364834 
L 192.623432 159.534299 
L 195.299712 153.819423 
L 197.711102 149.154872 
L 200.236045 144.736749 
L 202.876547 140.591794 
L 205.164873 137.364162 
L 207.531403 134.356472 
L 209.973359 131.580781 
L 212.486921 129.048081 
L 215.067319 126.768295 
L 217.708909 124.750272 
L 220.405273 123.001776 
L 223.14931 121.529483 
L 225.933331 120.338982 
L 228.18386 119.592527 
L 230.450395 119.031114 
L 232.728449 118.656089 
L 235.013449 118.468352 
L 237.300771 118.468352 
L 239.585772 118.656089 
L 241.863826 119.031114 
L 244.13036 119.592527 
L 246.38089 120.338982 
L 248.61105 121.26868 
L 251.363716 122.685026 
L 254.070203 124.378781 
L 256.723285 126.343486 
L 259.316398 128.571592 
L 261.843739 131.054468 
L 264.300352 133.782407 
L 266.682225 136.744628 
L 268.986362 139.929286 
L 271.646132 144.026261 
L 274.190268 148.400657 
L 276.620329 153.026082 
L 279.317106 158.701585 
L 281.876314 164.631216 
L 284.655026 171.651777 
L 287.961481 180.669728 
L 296.715553 204.998327 
L 299.172277 210.95579 
L 301.421969 215.837711 
L 303.428289 219.711145 
L 305.580012 223.377311 
L 307.42309 226.141717 
L 309.388922 228.740192 
L 311.491405 231.157681 
L 313.74483 233.37899 
L 316.163857 235.388797 
L 318.095819 236.748071 
L 320.13582 237.973141 
L 322.290408 239.057425 
L 324.566225 239.994315 
L 326.969998 240.777176 
L 329.508534 241.399351 
L 332.188718 241.854166 
L 335.017502 242.134925 
L 338.001906 242.234921 
L 341.149009 242.147432 
L 344.465945 241.865726 
L 347.959898 241.38306 
L 351.638099 240.692688 
L 355.507819 239.787856 
L 360.977997 238.236132 
L 366.819055 236.275116 
L 373.048486 233.888792 
L 379.683848 231.061151 
L 386.742753 227.776199 
L 394.242846 224.017961 
L 398.16386 221.956374 
L 398.16386 221.956374 
" clip-path="url(#p7ce65de559)" style="fill: none; stroke: #9467bd; stroke-width: 1.5; stroke-linecap: square"/>
   </g>
   <g id="patch_3">
    <path d="M 57.6 256.45171 
L 57.6 92.60429 
" style="fill: none; stroke: #000000; stroke-width: 0.8; stroke-linejoin: miter; stroke-linecap: square"/>
   </g>
   <g id="patch_4">
    <path d="M 414.72 256.45171 
L 414.72 92.60429 
" style="fill: none; stroke: #000000; stroke-width: 0.8; stroke-linejoin: miter; stroke-linecap: square"/>
   </g>
   <g id="patch_5">
    <path d="M 57.6 256.45171 
L 414.72 256.45171 
" style="fill: none; stroke: #000000; stroke-width: 0.8; stroke-linejoin: miter; stroke-linecap: square"/>
   </g>
   <g id="patch_6">
    <path d="M 57.6 92.60429 
L 414.72 92.60429 
" style="fill: none; stroke: #000000; stroke-width: 0.8; stroke-linejoin: miter; stroke-linecap: square"/>
   </g>
   <g id="legend_1">
    <g id="patch_7">
     <path d="M 322.740313 173.994915 
L 407.72 173.994915 
Q 409.72 173.994915 409.72 171.994915 
L 409.72 99.60429 
Q 409.72 97.60429 407.72 97.60429 
L 322.740313 97.60429 
Q 320.740313 97.60429 320.740313 99.60429 
L 320.740313 171.994915 
Q 320.740313 173.994915 322.740313 173.994915 
z
" style="fill: #ffffff; opacity: 0.8; stroke: #cccccc; stroke-linejoin: miter"/>
    </g>
    <g id="PathCollection_2">
     <g>
      <use xlink:href="#mf2717a6d50" x="334.740313" y="106.577727" style="fill: #1f77b4; stroke: #1f77b4"/>
     </g>
    </g>
    <g id="text_15">
     <!-- data -->
     <g transform="translate(352.740313 109.202727)scale(0.1 -0.1)">
      <defs>
       <path id="DejaVuSans-64" d="M 2906 2969 
L 2906 4863 
L 3481 4863 
L 3481 0 
L 2906 0 
L 2906 525 
Q 2725 213 2448 61 
Q 2172 -91 1784 -91 
Q 1150 -91 751 415 
Q 353 922 353 1747 
Q 353 2572 751 3078 
Q 1150 3584 1784 3584 
Q 2172 3584 2448 3432 
Q 2725 3281 2906 2969 
z
M 947 1747 
Q 947 1113 1208 752 
Q 1469 391 1925 391 
Q 2381 391 2643 752 
Q 2906 1113 2906 1747 
Q 2906 2381 2643 2742 
Q 2381 3103 1925 3103 
Q 1469 3103 1208 2742 
Q 947 2381 947 1747 
z
" transform="scale(0.015625)"/>
       <path id="DejaVuSans-61" d="M 2194 1759 
Q 1497 1759 1228 1600 
Q 959 1441 959 1056 
Q 959 750 1161 570 
Q 1363 391 1709 391 
Q 2188 391 2477 730 
Q 2766 1069 2766 1631 
L 2766 1759 
L 2194 1759 
z
M 3341 1997 
L 3341 0 
L 2766 0 
L 2766 531 
Q 2569 213 2275 61 
Q 1981 -91 1556 -91 
Q 1019 -91 701 211 
Q 384 513 384 1019 
Q 384 1609 779 1909 
Q 1175 2209 1959 2209 
L 2766 2209 
L 2766 2266 
Q 2766 2663 2505 2880 
Q 2244 3097 1772 3097 
Q 1472 3097 1187 3025 
Q 903 2953 641 2809 
L 641 3341 
Q 956 3463 1253 3523 
Q 1550 3584 1831 3584 
Q 2591 3584 2966 3190 
Q 3341 2797 3341 1997 
z
" transform="scale(0.015625)"/>
       <path id="DejaVuSans-74" d="M 1172 4494 
L 1172 3500 
L 2356 3500 
L 2356 3053 
L 1172 3053 
L 1172 1153 
Q 1172 725 1289 603 
Q 1406 481 1766 481 
L 2356 481 
L 2356 0 
L 1766 0 
Q 1100 0 847 248 
Q 594 497 594 1153 
L 594 3053 
L 172 3053 
L 172 3500 
L 594 3500 
L 594 4494 
L 1172 4494 
z
" transform="scale(0.015625)"/>
      </defs>
      <use xlink:href="#DejaVuSans-64"/>
      <use xlink:href="#DejaVuSans-61" x="63.476562"/>
      <use xlink:href="#DejaVuSans-74" x="124.755859"/>
      <use xlink:href="#DejaVuSans-61" x="163.964844"/>
     </g>
    </g>
    <g id="line2d_19">
     <path d="M 324.740313 120.380852 
L 334.740313 120.380852 
L 344.740313 120.380852 
" style="fill: none; stroke: #ff7f0e; stroke-width: 1.5; stroke-linecap: square"/>
    </g>
    <g id="text_16">
     <!-- stddev 0.5 -->
     <g transform="translate(352.740313 123.880852)scale(0.1 -0.1)">
      <defs>
       <path id="DejaVuSans-73" d="M 2834 3397 
L 2834 2853 
Q 2591 2978 2328 3040 
Q 2066 3103 1784 3103 
Q 1356 3103 1142 2972 
Q 928 2841 928 2578 
Q 928 2378 1081 2264 
Q 1234 2150 1697 2047 
L 1894 2003 
Q 2506 1872 2764 1633 
Q 3022 1394 3022 966 
Q 3022 478 2636 193 
Q 2250 -91 1575 -91 
Q 1294 -91 989 -36 
Q 684 19 347 128 
L 347 722 
Q 666 556 975 473 
Q 1284 391 1588 391 
Q 1994 391 2212 530 
Q 2431 669 2431 922 
Q 2431 1156 2273 1281 
Q 2116 1406 1581 1522 
L 1381 1569 
Q 847 1681 609 1914 
Q 372 2147 372 2553 
Q 372 3047 722 3315 
Q 1072 3584 1716 3584 
Q 2034 3584 2315 3537 
Q 2597 3491 2834 3397 
z
" transform="scale(0.015625)"/>
       <path id="DejaVuSans-65" d="M 3597 1894 
L 3597 1613 
L 953 1613 
Q 991 1019 1311 708 
Q 1631 397 2203 397 
Q 2534 397 2845 478 
Q 3156 559 3463 722 
L 3463 178 
Q 3153 47 2828 -22 
Q 2503 -91 2169 -91 
Q 1331 -91 842 396 
Q 353 884 353 1716 
Q 353 2575 817 3079 
Q 1281 3584 2069 3584 
Q 2775 3584 3186 3129 
Q 3597 2675 3597 1894 
z
M 3022 2063 
Q 3016 2534 2758 2815 
Q 2500 3097 2075 3097 
Q 1594 3097 1305 2825 
Q 1016 2553 972 2059 
L 3022 2063 
z
" transform="scale(0.015625)"/>
       <path id="DejaVuSans-76" d="M 191 3500 
L 800 3500 
L 1894 563 
L 2988 3500 
L 3597 3500 
L 2284 0 
L 1503 0 
L 191 3500 
z
" transform="scale(0.015625)"/>
       <path id="DejaVuSans-20" transform="scale(0.015625)"/>
      </defs>
      <use xlink:href="#DejaVuSans-73"/>
      <use xlink:href="#DejaVuSans-74" x="52.099609"/>
      <use xlink:href="#DejaVuSans-64" x="91.308594"/>
      <use xlink:href="#DejaVuSans-64" x="154.785156"/>
      <use xlink:href="#DejaVuSans-65" x="218.261719"/>
      <use xlink:href="#DejaVuSans-76" x="279.785156"/>
      <use xlink:href="#DejaVuSans-20" x="338.964844"/>
      <use xlink:href="#DejaVuSans-30" x="370.751953"/>
      <use xlink:href="#DejaVuSans-2e" x="434.375"/>
      <use xlink:href="#DejaVuSans-35" x="466.162109"/>
     </g>
    </g>
    <g id="line2d_20">
     <path d="M 324.740313 135.058977 
L 334.740313 135.058977 
L 344.740313 135.058977 
" style="fill: none; stroke: #2ca02c; stroke-width: 1.5; stroke-linecap: square"/>
    </g>
    <g id="text_17">
     <!-- stddev 0.7 -->
     <g transform="translate(352.740313 138.558977)scale(0.1 -0.1)">
      <defs>
       <path id="DejaVuSans-37" d="M 525 4666 
L 3525 4666 
L 3525 4397 
L 1831 0 
L 1172 0 
L 2766 4134 
L 525 4134 
L 525 4666 
z
" transform="scale(0.015625)"/>
      </defs>
      <use xlink:href="#DejaVuSans-73"/>
      <use xlink:href="#DejaVuSans-74" x="52.099609"/>
      <use xlink:href="#DejaVuSans-64" x="91.308594"/>
      <use xlink:href="#DejaVuSans-64" x="154.785156"/>
      <use xlink:href="#DejaVuSans-65" x="218.261719"/>
      <use xlink:href="#DejaVuSans-76" x="279.785156"/>
      <use xlink:href="#DejaVuSans-20" x="338.964844"/>
      <use xlink:href="#DejaVuSans-30" x="370.751953"/>
      <use xlink:href="#DejaVuSans-2e" x="434.375"/>
      <use xlink:href="#DejaVuSans-37" x="466.162109"/>
     </g>
    </g>
    <g id="line2d_21">
     <path d="M 324.740313 149.737102 
L 334.740313 149.737102 
L 344.740313 149.737102 
" style="fill: none; stroke: #d62728; stroke-width: 1.5; stroke-linecap: square"/>
    </g>
    <g id="text_18">
     <!-- stddev 0.9 -->
     <g transform="translate(352.740313 153.237102)scale(0.1 -0.1)">
      <defs>
       <path id="DejaVuSans-39" d="M 703 97 
L 703 672 
Q 941 559 1184 500 
Q 1428 441 1663 441 
Q 2288 441 2617 861 
Q 2947 1281 2994 2138 
Q 2813 1869 2534 1725 
Q 2256 1581 1919 1581 
Q 1219 1581 811 2004 
Q 403 2428 403 3163 
Q 403 3881 828 4315 
Q 1253 4750 1959 4750 
Q 2769 4750 3195 4129 
Q 3622 3509 3622 2328 
Q 3622 1225 3098 567 
Q 2575 -91 1691 -91 
Q 1453 -91 1209 -44 
Q 966 3 703 97 
z
M 1959 2075 
Q 2384 2075 2632 2365 
Q 2881 2656 2881 3163 
Q 2881 3666 2632 3958 
Q 2384 4250 1959 4250 
Q 1534 4250 1286 3958 
Q 1038 3666 1038 3163 
Q 1038 2656 1286 2365 
Q 1534 2075 1959 2075 
z
" transform="scale(0.015625)"/>
      </defs>
      <use xlink:href="#DejaVuSans-73"/>
      <use xlink:href="#DejaVuSans-74" x="52.099609"/>
      <use xlink:href="#DejaVuSans-64" x="91.308594"/>
      <use xlink:href="#DejaVuSans-64" x="154.785156"/>
      <use xlink:href="#DejaVuSans-65" x="218.261719"/>
      <use xlink:href="#DejaVuSans-76" x="279.785156"/>
      <use xlink:href="#DejaVuSans-20" x="338.964844"/>
      <use xlink:href="#DejaVuSans-30" x="370.751953"/>
      <use xlink:href="#DejaVuSans-2e" x="434.375"/>
      <use xlink:href="#DejaVuSans-39" x="466.162109"/>
     </g>
    </g>
    <g id="line2d_22">
     <path d="M 324.740313 164.415227 
L 334.740313 164.415227 
L 344.740313 164.415227 
" style="fill: none; stroke: #9467bd; stroke-width: 1.5; stroke-linecap: square"/>
    </g>
    <g id="text_19">
     <!-- stddev 1.1 -->
     <g transform="translate(352.740313 167.915227)scale(0.1 -0.1)">
      <use xlink:href="#DejaVuSans-73"/>
      <use xlink:href="#DejaVuSans-74" x="52.099609"/>
      <use xlink:href="#DejaVuSans-64" x="91.308594"/>
      <use xlink:href="#DejaVuSans-64" x="154.785156"/>
      <use xlink:href="#DejaVuSans-65" x="218.261719"/>
      <use xlink:href="#DejaVuSans-76" x="279.785156"/>
      <use xlink:href="#DejaVuSans-20" x="338.964844"/>
      <use xlink:href="#DejaVuSans-31" x="370.751953"/>
      <use xlink:href="#DejaVuSans-2e" x="434.375"/>
      <use xlink:href="#DejaVuSans-31" x="466.162109"/>
     </g>
    </g>
   </g>
  </g>
 </g>
 <defs>
  <clipPath id="p7ce65de559">
   <rect x="57.6" y="92.60429" width="357.12" height="163.847421"/>
  </clipPath>
 </defs>
</svg>
