<?xml version="1.0" encoding="utf-8" standalone="no"?>
<!DOCTYPE svg PUBLIC "-//W3C//DTD SVG 1.1//EN"
  "http://www.w3.org/Graphics/SVG/1.1/DTD/svg11.dtd">
<svg xmlns:xlink="http://www.w3.org/1999/xlink" width="402.374687pt" height="194.685817pt" viewBox="0 0 402.374687 194.685817" xmlns="http://www.w3.org/2000/svg" version="1.1">
 <metadata>
  <rdf:RDF xmlns:dc="http://purl.org/dc/elements/1.1/" xmlns:cc="http://creativecommons.org/ns#" xmlns:rdf="http://www.w3.org/1999/02/22-rdf-syntax-ns#">
   <cc:Work>
    <dc:type rdf:resource="http://purl.org/dc/dcmitype/StillImage"/>
    <dc:date>2024-05-26T21:02:44.709107</dc:date>
    <dc:format>image/svg+xml</dc:format>
    <dc:creator>
     <cc:Agent>
      <dc:title>Matplotlib v3.5.2, https://matplotlib.org/</dc:title>
     </cc:Agent>
    </dc:creator>
   </cc:Work>
  </rdf:RDF>
 </metadata>
 <defs>
  <style type="text/css">*{stroke-linejoin: round; stroke-linecap: butt}</style>
 </defs>
 <g id="figure_1">
  <g id="patch_1">
   <path d="M 0 194.685817 
L 402.374687 194.685817 
L 402.374687 0 
L 0 0 
z
" style="fill: #ffffff"/>
  </g>
  <g id="axes_1">
   <g id="patch_2">
    <path d="M 30.103125 170.807692 
L 387.223125 170.807692 
L 387.223125 7.2 
L 30.103125 7.2 
z
" style="fill: #ffffff"/>
   </g>
   <g id="PathCollection_1">
    <defs>
     <path id="m2f875d21aa" d="M 0 3 
C 0.795609 3 1.55874 2.683901 2.12132 2.12132 
C 2.683901 1.55874 3 0.795609 3 0 
C 3 -0.795609 2.683901 -1.55874 2.12132 -2.12132 
C 1.55874 -2.683901 0.795609 -3 0 -3 
C -0.795609 -3 -1.55874 -2.683901 -2.12132 -2.12132 
C -2.683901 -1.55874 -3 -0.795609 -3 0 
C -3 0.795609 -2.683901 1.55874 -2.12132 2.12132 
C -1.55874 2.683901 -0.795609 3 0 3 
z
" style="stroke: #1f77b4"/>
    </defs>
    <g clip-path="url(#p6df4ed2275)">
     <use xlink:href="#m2f875d21aa" x="30.103125" y="148.523573" style="fill: #1f77b4; stroke: #1f77b4"/>
     <use xlink:href="#m2f875d21aa" x="149.143125" y="148.523573" style="fill: #1f77b4; stroke: #1f77b4"/>
     <use xlink:href="#m2f875d21aa" x="149.143125" y="29.483573" style="fill: #1f77b4; stroke: #1f77b4"/>
     <use xlink:href="#m2f875d21aa" x="268.183125" y="29.483573" style="fill: #1f77b4; stroke: #1f77b4"/>
     <use xlink:href="#m2f875d21aa" x="268.183125" y="148.523573" style="fill: #1f77b4; stroke: #1f77b4"/>
     <use xlink:href="#m2f875d21aa" x="387.223125" y="148.523573" style="fill: #1f77b4; stroke: #1f77b4"/>
    </g>
   </g>
   <g id="matplotlib.axis_1">
    <g id="xtick_1">
     <g id="line2d_1">
      <defs>
       <path id="me3ab3daf87" d="M 0 0 
L 0 3.5 
" style="stroke: #000000; stroke-width: 0.8"/>
      </defs>
      <g>
       <use xlink:href="#me3ab3daf87" x="30.103125" y="170.807692" style="stroke: #000000; stroke-width: 0.8"/>
      </g>
     </g>
     <g id="text_1">
      <!-- 0.0 -->
      <g transform="translate(22.151563 185.40613)scale(0.1 -0.1)">
       <defs>
        <path id="DejaVuSans-30" d="M 2034 4250 
Q 1547 4250 1301 3770 
Q 1056 3291 1056 2328 
Q 1056 1369 1301 889 
Q 1547 409 2034 409 
Q 2525 409 2770 889 
Q 3016 1369 3016 2328 
Q 3016 3291 2770 3770 
Q 2525 4250 2034 4250 
z
M 2034 4750 
Q 2819 4750 3233 4129 
Q 3647 3509 3647 2328 
Q 3647 1150 3233 529 
Q 2819 -91 2034 -91 
Q 1250 -91 836 529 
Q 422 1150 422 2328 
Q 422 3509 836 4129 
Q 1250 4750 2034 4750 
z
" transform="scale(0.015625)"/>
        <path id="DejaVuSans-2e" d="M 684 794 
L 1344 794 
L 1344 0 
L 684 0 
L 684 794 
z
" transform="scale(0.015625)"/>
       </defs>
       <use xlink:href="#DejaVuSans-30"/>
       <use xlink:href="#DejaVuSans-2e" x="63.623047"/>
       <use xlink:href="#DejaVuSans-30" x="95.410156"/>
      </g>
     </g>
    </g>
    <g id="xtick_2">
     <g id="line2d_2">
      <g>
       <use xlink:href="#me3ab3daf87" x="89.623125" y="170.807692" style="stroke: #000000; stroke-width: 0.8"/>
      </g>
     </g>
     <g id="text_2">
      <!-- 0.5 -->
      <g transform="translate(81.671563 185.40613)scale(0.1 -0.1)">
       <defs>
        <path id="DejaVuSans-35" d="M 691 4666 
L 3169 4666 
L 3169 4134 
L 1269 4134 
L 1269 2991 
Q 1406 3038 1543 3061 
Q 1681 3084 1819 3084 
Q 2600 3084 3056 2656 
Q 3513 2228 3513 1497 
Q 3513 744 3044 326 
Q 2575 -91 1722 -91 
Q 1428 -91 1123 -41 
Q 819 9 494 109 
L 494 744 
Q 775 591 1075 516 
Q 1375 441 1709 441 
Q 2250 441 2565 725 
Q 2881 1009 2881 1497 
Q 2881 1984 2565 2268 
Q 2250 2553 1709 2553 
Q 1456 2553 1204 2497 
Q 953 2441 691 2322 
L 691 4666 
z
" transform="scale(0.015625)"/>
       </defs>
       <use xlink:href="#DejaVuSans-30"/>
       <use xlink:href="#DejaVuSans-2e" x="63.623047"/>
       <use xlink:href="#DejaVuSans-35" x="95.410156"/>
      </g>
     </g>
    </g>
    <g id="xtick_3">
     <g id="line2d_3">
      <g>
       <use xlink:href="#me3ab3daf87" x="149.143125" y="170.807692" style="stroke: #000000; stroke-width: 0.8"/>
      </g>
     </g>
     <g id="text_3">
      <!-- 1.0 -->
      <g transform="translate(141.191563 185.40613)scale(0.1 -0.1)">
       <defs>
        <path id="DejaVuSans-31" d="M 794 531 
L 1825 531 
L 1825 4091 
L 703 3866 
L 703 4441 
L 1819 4666 
L 2450 4666 
L 2450 531 
L 3481 531 
L 3481 0 
L 794 0 
L 794 531 
z
" transform="scale(0.015625)"/>
       </defs>
       <use xlink:href="#DejaVuSans-31"/>
       <use xlink:href="#DejaVuSans-2e" x="63.623047"/>
       <use xlink:href="#DejaVuSans-30" x="95.410156"/>
      </g>
     </g>
    </g>
    <g id="xtick_4">
     <g id="line2d_4">
      <g>
       <use xlink:href="#me3ab3daf87" x="208.663125" y="170.807692" style="stroke: #000000; stroke-width: 0.8"/>
      </g>
     </g>
     <g id="text_4">
      <!-- 1.5 -->
      <g transform="translate(200.711563 185.40613)scale(0.1 -0.1)">
       <use xlink:href="#DejaVuSans-31"/>
       <use xlink:href="#DejaVuSans-2e" x="63.623047"/>
       <use xlink:href="#DejaVuSans-35" x="95.410156"/>
      </g>
     </g>
    </g>
    <g id="xtick_5">
     <g id="line2d_5">
      <g>
       <use xlink:href="#me3ab3daf87" x="268.183125" y="170.807692" style="stroke: #000000; stroke-width: 0.8"/>
      </g>
     </g>
     <g id="text_5">
      <!-- 2.0 -->
      <g transform="translate(260.231562 185.40613)scale(0.1 -0.1)">
       <defs>
        <path id="DejaVuSans-32" d="M 1228 531 
L 3431 531 
L 3431 0 
L 469 0 
L 469 531 
Q 828 903 1448 1529 
Q 2069 2156 2228 2338 
Q 2531 2678 2651 2914 
Q 2772 3150 2772 3378 
Q 2772 3750 2511 3984 
Q 2250 4219 1831 4219 
Q 1534 4219 1204 4116 
Q 875 4013 500 3803 
L 500 4441 
Q 881 4594 1212 4672 
Q 1544 4750 1819 4750 
Q 2544 4750 2975 4387 
Q 3406 4025 3406 3419 
Q 3406 3131 3298 2873 
Q 3191 2616 2906 2266 
Q 2828 2175 2409 1742 
Q 1991 1309 1228 531 
z
" transform="scale(0.015625)"/>
       </defs>
       <use xlink:href="#DejaVuSans-32"/>
       <use xlink:href="#DejaVuSans-2e" x="63.623047"/>
       <use xlink:href="#DejaVuSans-30" x="95.410156"/>
      </g>
     </g>
    </g>
    <g id="xtick_6">
     <g id="line2d_6">
      <g>
       <use xlink:href="#me3ab3daf87" x="327.703125" y="170.807692" style="stroke: #000000; stroke-width: 0.8"/>
      </g>
     </g>
     <g id="text_6">
      <!-- 2.5 -->
      <g transform="translate(319.751562 185.40613)scale(0.1 -0.1)">
       <use xlink:href="#DejaVuSans-32"/>
       <use xlink:href="#DejaVuSans-2e" x="63.623047"/>
       <use xlink:href="#DejaVuSans-35" x="95.410156"/>
      </g>
     </g>
    </g>
    <g id="xtick_7">
     <g id="line2d_7">
      <g>
       <use xlink:href="#me3ab3daf87" x="387.223125" y="170.807692" style="stroke: #000000; stroke-width: 0.8"/>
      </g>
     </g>
     <g id="text_7">
      <!-- 3.0 -->
      <g transform="translate(379.271562 185.40613)scale(0.1 -0.1)">
       <defs>
        <path id="DejaVuSans-33" d="M 2597 2516 
Q 3050 2419 3304 2112 
Q 3559 1806 3559 1356 
Q 3559 666 3084 287 
Q 2609 -91 1734 -91 
Q 1441 -91 1130 -33 
Q 819 25 488 141 
L 488 750 
Q 750 597 1062 519 
Q 1375 441 1716 441 
Q 2309 441 2620 675 
Q 2931 909 2931 1356 
Q 2931 1769 2642 2001 
Q 2353 2234 1838 2234 
L 1294 2234 
L 1294 2753 
L 1863 2753 
Q 2328 2753 2575 2939 
Q 2822 3125 2822 3475 
Q 2822 3834 2567 4026 
Q 2313 4219 1838 4219 
Q 1578 4219 1281 4162 
Q 984 4106 628 3988 
L 628 4550 
Q 988 4650 1302 4700 
Q 1616 4750 1894 4750 
Q 2613 4750 3031 4423 
Q 3450 4097 3450 3541 
Q 3450 3153 3228 2886 
Q 3006 2619 2597 2516 
z
" transform="scale(0.015625)"/>
       </defs>
       <use xlink:href="#DejaVuSans-33"/>
       <use xlink:href="#DejaVuSans-2e" x="63.623047"/>
       <use xlink:href="#DejaVuSans-30" x="95.410156"/>
      </g>
     </g>
    </g>
   </g>
   <g id="matplotlib.axis_2">
    <g id="ytick_1">
     <g id="line2d_8">
      <defs>
       <path id="m744a5b8b11" d="M 0 0 
L -3.5 0 
" style="stroke: #000000; stroke-width: 0.8"/>
      </defs>
      <g>
       <use xlink:href="#m744a5b8b11" x="30.103125" y="148.523573" style="stroke: #000000; stroke-width: 0.8"/>
      </g>
     </g>
     <g id="text_8">
      <!-- 0.0 -->
      <g transform="translate(7.2 152.322791)scale(0.1 -0.1)">
       <use xlink:href="#DejaVuSans-30"/>
       <use xlink:href="#DejaVuSans-2e" x="63.623047"/>
       <use xlink:href="#DejaVuSans-30" x="95.410156"/>
      </g>
     </g>
    </g>
    <g id="ytick_2">
     <g id="line2d_9">
      <g>
       <use xlink:href="#m744a5b8b11" x="30.103125" y="124.715573" style="stroke: #000000; stroke-width: 0.8"/>
      </g>
     </g>
     <g id="text_9">
      <!-- 0.2 -->
      <g transform="translate(7.2 128.514791)scale(0.1 -0.1)">
       <use xlink:href="#DejaVuSans-30"/>
       <use xlink:href="#DejaVuSans-2e" x="63.623047"/>
       <use xlink:href="#DejaVuSans-32" x="95.410156"/>
      </g>
     </g>
    </g>
    <g id="ytick_3">
     <g id="line2d_10">
      <g>
       <use xlink:href="#m744a5b8b11" x="30.103125" y="100.907573" style="stroke: #000000; stroke-width: 0.8"/>
      </g>
     </g>
     <g id="text_10">
      <!-- 0.4 -->
      <g transform="translate(7.2 104.706791)scale(0.1 -0.1)">
       <defs>
        <path id="DejaVuSans-34" d="M 2419 4116 
L 825 1625 
L 2419 1625 
L 2419 4116 
z
M 2253 4666 
L 3047 4666 
L 3047 1625 
L 3713 1625 
L 3713 1100 
L 3047 1100 
L 3047 0 
L 2419 0 
L 2419 1100 
L 313 1100 
L 313 1709 
L 2253 4666 
z
" transform="scale(0.015625)"/>
       </defs>
       <use xlink:href="#DejaVuSans-30"/>
       <use xlink:href="#DejaVuSans-2e" x="63.623047"/>
       <use xlink:href="#DejaVuSans-34" x="95.410156"/>
      </g>
     </g>
    </g>
    <g id="ytick_4">
     <g id="line2d_11">
      <g>
       <use xlink:href="#m744a5b8b11" x="30.103125" y="77.099573" style="stroke: #000000; stroke-width: 0.8"/>
      </g>
     </g>
     <g id="text_11">
      <!-- 0.6 -->
      <g transform="translate(7.2 80.898791)scale(0.1 -0.1)">
       <defs>
        <path id="DejaVuSans-36" d="M 2113 2584 
Q 1688 2584 1439 2293 
Q 1191 2003 1191 1497 
Q 1191 994 1439 701 
Q 1688 409 2113 409 
Q 2538 409 2786 701 
Q 3034 994 3034 1497 
Q 3034 2003 2786 2293 
Q 2538 2584 2113 2584 
z
M 3366 4563 
L 3366 3988 
Q 3128 4100 2886 4159 
Q 2644 4219 2406 4219 
Q 1781 4219 1451 3797 
Q 1122 3375 1075 2522 
Q 1259 2794 1537 2939 
Q 1816 3084 2150 3084 
Q 2853 3084 3261 2657 
Q 3669 2231 3669 1497 
Q 3669 778 3244 343 
Q 2819 -91 2113 -91 
Q 1303 -91 875 529 
Q 447 1150 447 2328 
Q 447 3434 972 4092 
Q 1497 4750 2381 4750 
Q 2619 4750 2861 4703 
Q 3103 4656 3366 4563 
z
" transform="scale(0.015625)"/>
       </defs>
       <use xlink:href="#DejaVuSans-30"/>
       <use xlink:href="#DejaVuSans-2e" x="63.623047"/>
       <use xlink:href="#DejaVuSans-36" x="95.410156"/>
      </g>
     </g>
    </g>
    <g id="ytick_5">
     <g id="line2d_12">
      <g>
       <use xlink:href="#m744a5b8b11" x="30.103125" y="53.291573" style="stroke: #000000; stroke-width: 0.8"/>
      </g>
     </g>
     <g id="text_12">
      <!-- 0.8 -->
      <g transform="translate(7.2 57.090791)scale(0.1 -0.1)">
       <defs>
        <path id="DejaVuSans-38" d="M 2034 2216 
Q 1584 2216 1326 1975 
Q 1069 1734 1069 1313 
Q 1069 891 1326 650 
Q 1584 409 2034 409 
Q 2484 409 2743 651 
Q 3003 894 3003 1313 
Q 3003 1734 2745 1975 
Q 2488 2216 2034 2216 
z
M 1403 2484 
Q 997 2584 770 2862 
Q 544 3141 544 3541 
Q 544 4100 942 4425 
Q 1341 4750 2034 4750 
Q 2731 4750 3128 4425 
Q 3525 4100 3525 3541 
Q 3525 3141 3298 2862 
Q 3072 2584 2669 2484 
Q 3125 2378 3379 2068 
Q 3634 1759 3634 1313 
Q 3634 634 3220 271 
Q 2806 -91 2034 -91 
Q 1263 -91 848 271 
Q 434 634 434 1313 
Q 434 1759 690 2068 
Q 947 2378 1403 2484 
z
M 1172 3481 
Q 1172 3119 1398 2916 
Q 1625 2713 2034 2713 
Q 2441 2713 2670 2916 
Q 2900 3119 2900 3481 
Q 2900 3844 2670 4047 
Q 2441 4250 2034 4250 
Q 1625 4250 1398 4047 
Q 1172 3844 1172 3481 
z
" transform="scale(0.015625)"/>
       </defs>
       <use xlink:href="#DejaVuSans-30"/>
       <use xlink:href="#DejaVuSans-2e" x="63.623047"/>
       <use xlink:href="#DejaVuSans-38" x="95.410156"/>
      </g>
     </g>
    </g>
    <g id="ytick_6">
     <g id="line2d_13">
      <g>
       <use xlink:href="#m744a5b8b11" x="30.103125" y="29.483573" style="stroke: #000000; stroke-width: 0.8"/>
      </g>
     </g>
     <g id="text_13">
      <!-- 1.0 -->
      <g transform="translate(7.2 33.282791)scale(0.1 -0.1)">
       <use xlink:href="#DejaVuSans-31"/>
       <use xlink:href="#DejaVuSans-2e" x="63.623047"/>
       <use xlink:href="#DejaVuSans-30" x="95.410156"/>
      </g>
     </g>
    </g>
   </g>
   <g id="line2d_14">
    <path d="M 30.103129 148.523576 
L 38.881379 151.349827 
L 47.361726 153.878174 
L 55.544104 156.108552 
L 63.428442 158.04089 
L 71.014659 159.675107 
L 78.302664 161.011111 
L 85.29236 162.048807 
L 91.983643 162.78809 
L 98.376404 163.228852 
L 103.275602 163.36645 
L 107.983616 163.312863 
L 112.500384 163.068031 
L 116.825841 162.631888 
L 120.95991 162.004356 
L 124.902493 161.185339 
L 128.653449 160.174694 
L 132.212557 158.972201 
L 135.579448 157.577491 
L 138.753501 155.989942 
L 141.733657 154.208495 
L 144.518126 152.231359 
L 147.103902 150.055529 
L 149.486006 147.676022 
L 151.13419 145.752993 
L 152.658161 143.705747 
L 154.050601 141.526959 
L 155.301249 139.206364 
L 156.395928 136.729778 
L 157.315397 134.077945 
L 158.034152 131.225343 
L 158.519465 128.139213 
L 158.731208 124.779385 
L 158.697807 122.364835 
L 158.50815 119.79392 
L 158.148662 117.053037 
L 157.607932 114.13074 
L 156.442559 109.392613 
L 154.858077 104.234768 
L 152.905027 98.707615 
L 149.136785 88.980638 
L 145.373544 79.256234 
L 143.427731 73.73268 
L 141.852779 68.579332 
L 140.698436 63.846036 
L 139.967829 59.535978 
L 139.632738 55.620957 
L 139.649268 52.057046 
L 139.969753 48.796492 
L 140.549949 45.794906 
L 141.352378 43.014588 
L 142.347167 40.425337 
L 143.511564 38.003919 
L 144.82891 35.732964 
L 146.287534 33.599769 
L 147.879808 31.595189 
L 149.601438 29.712729 
L 151.451042 27.947825 
L 153.430008 26.297296 
L 155.542636 24.758943 
L 157.796563 23.331259 
L 160.203471 22.013212 
L 162.780037 20.804108 
L 165.54904 19.703481 
L 168.540385 18.711028 
L 171.791593 17.826565 
L 175.346953 17.050002 
L 179.254167 16.381332 
L 185.084997 15.657735 
L 191.670813 15.126435 
L 198.949097 14.787945 
L 206.694702 14.642764 
L 214.542311 14.691166 
L 222.092782 14.933055 
L 229.042287 15.368018 
L 235.249638 15.995523 
L 240.718327 16.815122 
L 244.385667 17.555724 
L 247.733069 18.404214 
L 250.806496 19.360655 
L 253.645916 20.425197 
L 256.283763 21.5981 
L 258.745093 22.879768 
L 261.048491 24.270811 
L 263.207187 25.772134 
L 265.230075 27.385066 
L 267.122508 29.111547 
L 268.886813 30.954393 
L 270.522533 32.917653 
L 272.026378 35.007108 
L 273.391896 37.230928 
L 274.608859 39.600517 
L 275.662388 42.131556 
L 276.531887 44.845192 
L 277.189949 47.769204 
L 277.601625 50.938795 
L 277.724706 54.396342 
L 277.623223 56.88461 
L 277.358421 59.535978 
L 276.917522 62.363231 
L 276.290766 65.376125 
L 274.993847 70.251821 
L 273.287108 75.536749 
L 271.238136 81.16322 
L 262.468173 104.234768 
L 260.883691 109.392613 
L 259.718318 114.13074 
L 258.975831 118.445511 
L 258.628443 122.364835 
L 258.632474 125.932494 
L 258.940286 129.196205 
L 259.507517 132.200384 
L 260.296442 134.982795 
L 261.276815 137.57371 
L 262.425346 139.996435 
L 263.724618 142.2684 
L 265.161878 144.402364 
L 266.727946 146.407512 
L 268.416299 148.290371 
L 270.849935 150.618343 
L 273.485758 152.744127 
L 276.319372 154.672116 
L 279.348136 156.404956 
L 282.570476 157.944217 
L 285.985467 159.290827 
L 289.592564 160.445331 
L 293.391444 161.408052 
L 297.38191 162.179186 
L 301.563834 162.758863 
L 305.937125 163.147172 
L 310.50171 163.344187 
L 315.257526 163.349971 
L 320.204511 163.164586 
L 325.342607 162.78809 
L 332.03389 162.048807 
L 339.023586 161.011111 
L 346.311591 159.675107 
L 353.897808 158.04089 
L 361.782146 156.108552 
L 369.964524 153.878174 
L 378.444871 151.349827 
L 387.223121 148.523576 
L 387.223121 148.523576 
" clip-path="url(#p6df4ed2275)" style="fill: none; stroke: #ff7f0e; stroke-width: 1.5; stroke-linecap: square"/>
   </g>
   <g id="line2d_15">
    <path d="M 30.126354 148.546858 
L 38.780625 151.248909 
L 47.120872 153.63685 
L 55.145813 155.709379 
L 62.854103 157.46512 
L 70.24432 158.902614 
L 77.314958 160.020307 
L 84.064405 160.816532 
L 89.231547 161.220846 
L 94.191069 161.417269 
L 98.941948 161.404723 
L 103.483087 161.182043 
L 107.8133 160.747962 
L 111.931304 160.1011 
L 115.835719 159.239958 
L 119.525062 158.162909 
L 122.997758 156.868203 
L 126.252158 155.35398 
L 128.548688 154.073089 
L 130.720771 152.666794 
L 132.767732 151.134271 
L 134.688948 149.474729 
L 136.48389 147.687444 
L 138.152165 145.771802 
L 139.693573 143.727349 
L 141.108179 141.553862 
L 142.396385 139.251417 
L 143.559031 136.820487 
L 144.916382 133.38114 
L 146.058169 129.7192 
L 146.992107 125.841137 
L 147.729017 121.756382 
L 148.283296 117.477806 
L 148.747667 111.882862 
L 149.000593 106.053023 
L 149.105425 97.595912 
L 149.210041 76.630427 
L 149.500688 70.636566 
L 150.026113 64.833038 
L 150.651035 60.361195 
L 151.48226 56.064496 
L 152.538072 51.960043 
L 153.832923 48.06115 
L 154.967653 45.277972 
L 156.246549 42.619185 
L 157.672199 40.087132 
L 159.246378 37.683517 
L 160.970108 35.409534 
L 162.843688 33.265984 
L 164.866692 31.253381 
L 167.037938 29.372044 
L 169.355434 27.622169 
L 171.816292 26.003892 
L 174.41662 24.517333 
L 177.151412 23.162633 
L 180.014428 21.939966 
L 184.017931 20.515519 
L 188.213804 19.326835 
L 192.575453 18.374643 
L 197.071757 17.659683 
L 201.667538 17.182619 
L 206.324396 16.943953 
L 211.001854 16.943953 
L 215.658712 17.182619 
L 220.254493 17.659683 
L 224.750797 18.374643 
L 229.112446 19.326835 
L 233.308319 20.515519 
L 237.311822 21.939966 
L 240.174838 23.162633 
L 242.90963 24.517333 
L 245.509958 26.003892 
L 247.970816 27.622169 
L 250.288312 29.372044 
L 252.459558 31.253381 
L 254.482562 33.265984 
L 256.356142 35.409534 
L 258.079872 37.683517 
L 259.654051 40.087132 
L 261.079701 42.619185 
L 262.358597 45.277972 
L 263.493327 48.06115 
L 264.48736 50.965606 
L 265.601719 55.019778 
L 266.487532 59.269865 
L 267.162097 63.699743 
L 267.646713 68.289302 
L 268.024383 74.213628 
L 268.220598 81.523312 
L 268.231123 92.665682 
L 268.295787 104.863217 
L 268.578583 111.882862 
L 269.042954 117.477806 
L 269.597233 121.756382 
L 270.334143 125.841137 
L 271.268081 129.7192 
L 272.409868 133.38114 
L 273.767219 136.820487 
L 274.929865 139.251417 
L 276.218071 141.553862 
L 277.632677 143.727349 
L 279.174085 145.771802 
L 280.84236 147.687444 
L 282.637302 149.474729 
L 284.558518 151.134271 
L 286.605479 152.666794 
L 288.777562 154.073089 
L 291.074092 155.35398 
L 294.328492 156.868203 
L 297.801188 158.162909 
L 301.490531 159.239958 
L 305.394946 160.1011 
L 309.51295 160.747962 
L 313.843163 161.182043 
L 318.384302 161.404723 
L 323.135181 161.417269 
L 328.094703 161.220846 
L 333.261845 160.816532 
L 338.635654 160.205326 
L 345.642186 159.151788 
L 352.968611 157.778127 
L 360.613403 156.085916 
L 368.575124 154.076632 
L 376.852413 151.751666 
L 385.443979 149.112336 
L 387.199896 148.546858 
L 387.199896 148.546858 
" clip-path="url(#p6df4ed2275)" style="fill: none; stroke: #2ca02c; stroke-width: 1.5; stroke-linecap: square"/>
   </g>
   <g id="line2d_16">
    <path d="M 30.762669 149.211171 
L 38.646326 151.117369 
L 46.191795 152.680267 
L 53.401149 153.901268 
L 58.928358 154.633135 
L 64.243703 155.148552 
L 69.349031 155.44893 
L 74.246463 155.53592 
L 78.93841 155.411432 
L 83.427591 155.077658 
L 87.717053 154.537085 
L 91.810189 153.792518 
L 95.710757 152.847097 
L 99.422899 151.704318 
L 102.951154 150.368054 
L 106.300477 148.842569 
L 109.476254 147.13254 
L 112.48431 145.243072 
L 115.330921 143.179715 
L 118.022821 140.948476 
L 120.567203 138.555829 
L 122.971718 136.008729 
L 125.24447 133.31461 
L 127.913182 129.752333 
L 130.407023 125.989287 
L 132.744582 122.043167 
L 134.945323 117.932792 
L 137.434121 112.811598 
L 140.173706 106.622651 
L 143.526885 98.420339 
L 152.434063 76.196951 
L 155.251508 69.900289 
L 157.811346 64.662812 
L 160.529644 59.615383 
L 162.929675 55.582538 
L 165.461257 51.730423 
L 168.13022 48.079733 
L 170.939777 44.650085 
L 173.890442 41.459915 
L 176.351175 39.091777 
L 178.898465 36.896068 
L 181.528835 34.880355 
L 184.237751 33.051589 
L 187.019668 31.416082 
L 189.868099 29.979486 
L 192.775685 28.746769 
L 195.73429 27.722197 
L 198.735101 26.909321 
L 201.768741 26.31096 
L 204.825393 25.92919 
L 207.894932 25.765338 
L 210.967057 25.819971 
L 214.031432 26.092901 
L 217.077828 26.583179 
L 220.096256 27.289103 
L 223.077103 28.208226 
L 226.011261 29.337359 
L 228.89024 30.672594 
L 231.706282 32.209309 
L 234.452452 33.942194 
L 237.122726 35.865263 
L 239.712058 37.971882 
L 242.216436 40.254789 
L 244.632926 42.706117 
L 247.527261 45.994211 
L 250.280367 49.514557 
L 252.893843 53.248234 
L 255.371961 57.17518 
L 257.721571 61.274304 
L 260.384727 66.38949 
L 262.89671 71.681402 
L 265.669328 78.024228 
L 269.054788 86.344459 
L 277.535143 107.518814 
L 280.296789 113.678049 
L 282.811091 118.767067 
L 285.0376 122.84615 
L 287.404885 126.757125 
L 289.932242 130.481396 
L 292.638075 134.001498 
L 294.942984 136.659585 
L 297.381724 139.168751 
L 299.962285 141.521679 
L 302.692206 143.711536 
L 305.578565 145.731966 
L 308.627981 147.577076 
L 311.846616 149.241431 
L 315.240184 150.720033 
L 318.813963 152.00831 
L 322.572801 153.102097 
L 326.521139 153.997618 
L 330.663019 154.691468 
L 335.002106 155.180592 
L 339.541706 155.462265 
L 344.284781 155.534078 
L 349.233973 155.39391 
L 354.391618 155.039917 
L 359.759765 154.47051 
L 365.3402 153.684337 
L 371.134455 152.680267 
L 378.679924 151.117369 
L 386.563581 149.211171 
L 386.563581 149.211171 
" clip-path="url(#p6df4ed2275)" style="fill: none; stroke: #d62728; stroke-width: 1.5; stroke-linecap: square"/>
   </g>
   <g id="line2d_17">
    <path d="M 32.789252 151.698154 
L 38.160655 152.121695 
L 43.34875 152.348097 
L 48.357687 152.381157 
L 53.191789 152.224877 
L 57.855547 151.883471 
L 62.353619 151.361359 
L 66.690823 150.663174 
L 70.872131 149.793757 
L 74.902661 148.758159 
L 78.787672 147.561639 
L 82.532555 146.209662 
L 86.142819 144.707896 
L 89.624088 143.06221 
L 93.803001 140.811971 
L 97.800673 138.358608 
L 101.628644 135.714832 
L 105.298585 132.893783 
L 108.822256 129.909005 
L 112.211452 126.774422 
L 116.117568 122.835297 
L 119.867235 118.726279 
L 124.070718 113.752183 
L 128.119387 108.623829 
L 133.145354 101.871949 
L 139.628817 92.739601 
L 151.255364 76.27978 
L 156.034572 69.894867 
L 160.334765 64.491908 
L 164.151385 60.020391 
L 168.026832 55.824702 
L 171.399431 52.472907 
L 174.820661 49.367203 
L 178.290671 46.525413 
L 181.808233 43.963828 
L 184.774082 42.053855 
L 187.769149 40.356279 
L 190.790837 38.877842 
L 193.836086 37.624414 
L 196.901438 36.600966 
L 199.983095 35.811559 
L 203.076991 35.259322 
L 206.178853 34.946444 
L 209.284282 34.874165 
L 212.388818 35.042772 
L 215.488016 35.451595 
L 218.577519 36.099016 
L 221.653129 36.982467 
L 224.710878 38.098446 
L 227.747097 39.442525 
L 230.758478 41.009371 
L 233.742142 42.792763 
L 236.695692 44.785616 
L 240.19762 47.442314 
L 243.651441 50.373964 
L 247.056374 53.563752 
L 250.413043 56.993365 
L 254.271035 61.271316 
L 258.072188 65.815289 
L 262.358193 71.288293 
L 267.127344 77.734841 
L 273.983549 87.421593 
L 284.731046 102.628454 
L 289.776914 109.364292 
L 293.845839 114.473196 
L 298.073947 119.421824 
L 301.848293 123.504305 
L 305.782445 127.412643 
L 309.197592 130.518396 
L 312.749574 133.47153 
L 316.450183 136.258195 
L 320.311164 138.864926 
L 324.344165 141.278667 
L 328.560697 143.486796 
L 332.073682 145.097063 
L 335.717078 146.561924 
L 339.496481 147.87556 
L 343.417371 149.032354 
L 347.485108 150.026892 
L 351.704916 150.853966 
L 356.081877 151.508578 
L 360.620925 151.98594 
L 365.326839 152.281471 
L 370.204234 152.390802 
L 375.257562 152.309774 
L 380.491102 152.034435 
L 384.536998 151.698154 
L 384.536998 151.698154 
" clip-path="url(#p6df4ed2275)" style="fill: none; stroke: #9467bd; stroke-width: 1.5; stroke-linecap: square"/>
   </g>
   <g id="patch_3">
    <path d="M 30.103125 170.807692 
L 30.103125 7.2 
" style="fill: none; stroke: #000000; stroke-width: 0.8; stroke-linejoin: miter; stroke-linecap: square"/>
   </g>
   <g id="patch_4">
    <path d="M 387.223125 170.807692 
L 387.223125 7.2 
" style="fill: none; stroke: #000000; stroke-width: 0.8; stroke-linejoin: miter; stroke-linecap: square"/>
   </g>
   <g id="patch_5">
    <path d="M 30.103125 170.807692 
L 387.223125 170.807692 
" style="fill: none; stroke: #000000; stroke-width: 0.8; stroke-linejoin: miter; stroke-linecap: square"/>
   </g>
   <g id="patch_6">
    <path d="M 30.103125 7.2 
L 387.223125 7.2 
" style="fill: none; stroke: #000000; stroke-width: 0.8; stroke-linejoin: miter; stroke-linecap: square"/>
   </g>
   <g id="legend_1">
    <g id="patch_7">
     <path d="M 317.602813 88.590625 
L 380.223125 88.590625 
Q 382.223125 88.590625 382.223125 86.590625 
L 382.223125 14.2 
Q 382.223125 12.2 380.223125 12.2 
L 317.602813 12.2 
Q 315.602813 12.2 315.602813 14.2 
L 315.602813 86.590625 
Q 315.602813 88.590625 317.602813 88.590625 
z
" style="fill: #ffffff; opacity: 0.8; stroke: #cccccc; stroke-linejoin: miter"/>
    </g>
    <g id="PathCollection_2">
     <g>
      <use xlink:href="#m2f875d21aa" x="329.602813" y="21.173437" style="fill: #1f77b4; stroke: #1f77b4"/>
     </g>
    </g>
    <g id="text_14">
     <!-- Y -->
     <g transform="translate(347.602813 23.798437)scale(0.1 -0.1)">
      <defs>
       <path id="DejaVuSans-59" d="M -13 4666 
L 666 4666 
L 1959 2747 
L 3244 4666 
L 3922 4666 
L 2272 2222 
L 2272 0 
L 1638 0 
L 1638 2222 
L -13 4666 
z
" transform="scale(0.015625)"/>
      </defs>
      <use xlink:href="#DejaVuSans-59"/>
     </g>
    </g>
    <g id="line2d_18">
     <path d="M 319.602813 34.976562 
L 329.602813 34.976562 
L 339.602813 34.976562 
" style="fill: none; stroke: #ff7f0e; stroke-width: 1.5; stroke-linecap: square"/>
    </g>
    <g id="text_15">
     <!-- σ=0.5 -->
     <g transform="translate(347.602813 38.476562)scale(0.1 -0.1)">
      <defs>
       <path id="DejaVuSans-3c3" d="M 1959 3044 
Q 1484 3044 1228 2700 
Q 959 2341 959 1747 
Q 959 1119 1226 758 
Q 1494 397 1959 397 
Q 2419 397 2687 759 
Q 2956 1122 2956 1747 
Q 2956 2319 2688 2700 
Q 2441 3044 1959 3044 
z
M 1959 3500 
L 3869 3500 
L 3869 2925 
L 3225 2925 
Q 3566 2438 3566 1747 
Q 3566 888 3138 400 
Q 2709 -91 1959 -91 
Q 1206 -91 781 400 
Q 353 888 353 1747 
Q 353 2613 781 3097 
Q 1134 3500 1959 3500 
z
" transform="scale(0.015625)"/>
       <path id="DejaVuSans-3d" d="M 678 2906 
L 4684 2906 
L 4684 2381 
L 678 2381 
L 678 2906 
z
M 678 1631 
L 4684 1631 
L 4684 1100 
L 678 1100 
L 678 1631 
z
" transform="scale(0.015625)"/>
      </defs>
      <use xlink:href="#DejaVuSans-3c3"/>
      <use xlink:href="#DejaVuSans-3d" x="63.378906"/>
      <use xlink:href="#DejaVuSans-30" x="147.167969"/>
      <use xlink:href="#DejaVuSans-2e" x="210.791016"/>
      <use xlink:href="#DejaVuSans-35" x="242.578125"/>
     </g>
    </g>
    <g id="line2d_19">
     <path d="M 319.602813 49.654687 
L 329.602813 49.654687 
L 339.602813 49.654687 
" style="fill: none; stroke: #2ca02c; stroke-width: 1.5; stroke-linecap: square"/>
    </g>
    <g id="text_16">
     <!-- σ=0.7 -->
     <g transform="translate(347.602813 53.154687)scale(0.1 -0.1)">
      <defs>
       <path id="DejaVuSans-37" d="M 525 4666 
L 3525 4666 
L 3525 4397 
L 1831 0 
L 1172 0 
L 2766 4134 
L 525 4134 
L 525 4666 
z
" transform="scale(0.015625)"/>
      </defs>
      <use xlink:href="#DejaVuSans-3c3"/>
      <use xlink:href="#DejaVuSans-3d" x="63.378906"/>
      <use xlink:href="#DejaVuSans-30" x="147.167969"/>
      <use xlink:href="#DejaVuSans-2e" x="210.791016"/>
      <use xlink:href="#DejaVuSans-37" x="242.578125"/>
     </g>
    </g>
    <g id="line2d_20">
     <path d="M 319.602813 64.332812 
L 329.602813 64.332812 
L 339.602813 64.332812 
" style="fill: none; stroke: #d62728; stroke-width: 1.5; stroke-linecap: square"/>
    </g>
    <g id="text_17">
     <!-- σ=0.9 -->
     <g transform="translate(347.602813 67.832812)scale(0.1 -0.1)">
      <defs>
       <path id="DejaVuSans-39" d="M 703 97 
L 703 672 
Q 941 559 1184 500 
Q 1428 441 1663 441 
Q 2288 441 2617 861 
Q 2947 1281 2994 2138 
Q 2813 1869 2534 1725 
Q 2256 1581 1919 1581 
Q 1219 1581 811 2004 
Q 403 2428 403 3163 
Q 403 3881 828 4315 
Q 1253 4750 1959 4750 
Q 2769 4750 3195 4129 
Q 3622 3509 3622 2328 
Q 3622 1225 3098 567 
Q 2575 -91 1691 -91 
Q 1453 -91 1209 -44 
Q 966 3 703 97 
z
M 1959 2075 
Q 2384 2075 2632 2365 
Q 2881 2656 2881 3163 
Q 2881 3666 2632 3958 
Q 2384 4250 1959 4250 
Q 1534 4250 1286 3958 
Q 1038 3666 1038 3163 
Q 1038 2656 1286 2365 
Q 1534 2075 1959 2075 
z
" transform="scale(0.015625)"/>
      </defs>
      <use xlink:href="#DejaVuSans-3c3"/>
      <use xlink:href="#DejaVuSans-3d" x="63.378906"/>
      <use xlink:href="#DejaVuSans-30" x="147.167969"/>
      <use xlink:href="#DejaVuSans-2e" x="210.791016"/>
      <use xlink:href="#DejaVuSans-39" x="242.578125"/>
     </g>
    </g>
    <g id="line2d_21">
     <path d="M 319.602813 79.010937 
L 329.602813 79.010937 
L 339.602813 79.010937 
" style="fill: none; stroke: #9467bd; stroke-width: 1.5; stroke-linecap: square"/>
    </g>
    <g id="text_18">
     <!-- σ=1.1 -->
     <g transform="translate(347.602813 82.510937)scale(0.1 -0.1)">
      <use xlink:href="#DejaVuSans-3c3"/>
      <use xlink:href="#DejaVuSans-3d" x="63.378906"/>
      <use xlink:href="#DejaVuSans-31" x="147.167969"/>
      <use xlink:href="#DejaVuSans-2e" x="210.791016"/>
      <use xlink:href="#DejaVuSans-31" x="242.578125"/>
     </g>
    </g>
   </g>
  </g>
 </g>
 <defs>
  <clipPath id="p6df4ed2275">
   <rect x="30.103125" y="7.2" width="357.12" height="163.607692"/>
  </clipPath>
 </defs>
</svg>
