<?xml version="1.0" encoding="utf-8" standalone="no"?>
<!DOCTYPE svg PUBLIC "-//W3C//DTD SVG 1.1//EN"
  "http://www.w3.org/Graphics/SVG/1.1/DTD/svg11.dtd">
<svg xmlns:xlink="http://www.w3.org/1999/xlink" width="410.754375pt" height="226.431623pt" viewBox="0 0 410.754375 226.431623" xmlns="http://www.w3.org/2000/svg" version="1.1">
 <metadata>
  <rdf:RDF xmlns:dc="http://purl.org/dc/elements/1.1/" xmlns:cc="http://creativecommons.org/ns#" xmlns:rdf="http://www.w3.org/1999/02/22-rdf-syntax-ns#">
   <cc:Work>
    <dc:type rdf:resource="http://purl.org/dc/dcmitype/StillImage"/>
    <dc:date>2024-05-27T08:16:15.972665</dc:date>
    <dc:format>image/svg+xml</dc:format>
    <dc:creator>
     <cc:Agent>
      <dc:title>Matplotlib v3.5.2, https://matplotlib.org/</dc:title>
     </cc:Agent>
    </dc:creator>
   </cc:Work>
  </rdf:RDF>
 </metadata>
 <defs>
  <style type="text/css">*{stroke-linejoin: round; stroke-linecap: butt}</style>
 </defs>
 <g id="figure_1">
  <g id="patch_1">
   <path d="M 0 226.431623 
L 410.754375 226.431623 
L 410.754375 0 
L 0 0 
z
" style="fill: #ffffff"/>
  </g>
  <g id="axes_1">
   <g id="patch_2">
    <path d="M 38.482813 202.553498 
L 395.602813 202.553498 
L 395.602813 22.318125 
L 38.482813 22.318125 
z
" style="fill: #ffffff"/>
   </g>
   <g id="PathCollection_1">
    <defs>
     <path id="maf61498778" d="M 0 3 
C 0.795609 3 1.55874 2.683901 2.12132 2.12132 
C 2.683901 1.55874 3 0.795609 3 0 
C 3 -0.795609 2.683901 -1.55874 2.12132 -2.12132 
C 1.55874 -2.683901 0.795609 -3 0 -3 
C -0.795609 -3 -1.55874 -2.683901 -2.12132 -2.12132 
C -2.683901 -1.55874 -3 -0.795609 -3 0 
C -3 0.795609 -2.683901 1.55874 -2.12132 2.12132 
C -1.55874 2.683901 -0.795609 3 0 3 
z
" style="stroke: #1f77b4"/>
    </defs>
    <g clip-path="url(#p24abc36da9)">
     <use xlink:href="#maf61498778" x="38.482813" y="164.397501" style="fill: #1f77b4; stroke: #1f77b4"/>
     <use xlink:href="#maf61498778" x="157.522812" y="164.397501" style="fill: #1f77b4; stroke: #1f77b4"/>
     <use xlink:href="#maf61498778" x="157.522812" y="45.357501" style="fill: #1f77b4; stroke: #1f77b4"/>
     <use xlink:href="#maf61498778" x="276.562813" y="45.357501" style="fill: #1f77b4; stroke: #1f77b4"/>
     <use xlink:href="#maf61498778" x="276.562813" y="164.397501" style="fill: #1f77b4; stroke: #1f77b4"/>
     <use xlink:href="#maf61498778" x="395.602813" y="164.397501" style="fill: #1f77b4; stroke: #1f77b4"/>
    </g>
   </g>
   <g id="matplotlib.axis_1">
    <g id="xtick_1">
     <g id="line2d_1">
      <defs>
       <path id="m721a6062a6" d="M 0 0 
L 0 3.5 
" style="stroke: #000000; stroke-width: 0.8"/>
      </defs>
      <g>
       <use xlink:href="#m721a6062a6" x="38.482813" y="202.553498" style="stroke: #000000; stroke-width: 0.8"/>
      </g>
     </g>
     <g id="text_1">
      <!-- 0.0 -->
      <g transform="translate(30.53125 217.151936)scale(0.1 -0.1)">
       <defs>
        <path id="DejaVuSans-30" d="M 2034 4250 
Q 1547 4250 1301 3770 
Q 1056 3291 1056 2328 
Q 1056 1369 1301 889 
Q 1547 409 2034 409 
Q 2525 409 2770 889 
Q 3016 1369 3016 2328 
Q 3016 3291 2770 3770 
Q 2525 4250 2034 4250 
z
M 2034 4750 
Q 2819 4750 3233 4129 
Q 3647 3509 3647 2328 
Q 3647 1150 3233 529 
Q 2819 -91 2034 -91 
Q 1250 -91 836 529 
Q 422 1150 422 2328 
Q 422 3509 836 4129 
Q 1250 4750 2034 4750 
z
" transform="scale(0.015625)"/>
        <path id="DejaVuSans-2e" d="M 684 794 
L 1344 794 
L 1344 0 
L 684 0 
L 684 794 
z
" transform="scale(0.015625)"/>
       </defs>
       <use xlink:href="#DejaVuSans-30"/>
       <use xlink:href="#DejaVuSans-2e" x="63.623047"/>
       <use xlink:href="#DejaVuSans-30" x="95.410156"/>
      </g>
     </g>
    </g>
    <g id="xtick_2">
     <g id="line2d_2">
      <g>
       <use xlink:href="#m721a6062a6" x="98.002813" y="202.553498" style="stroke: #000000; stroke-width: 0.8"/>
      </g>
     </g>
     <g id="text_2">
      <!-- 0.5 -->
      <g transform="translate(90.05125 217.151936)scale(0.1 -0.1)">
       <defs>
        <path id="DejaVuSans-35" d="M 691 4666 
L 3169 4666 
L 3169 4134 
L 1269 4134 
L 1269 2991 
Q 1406 3038 1543 3061 
Q 1681 3084 1819 3084 
Q 2600 3084 3056 2656 
Q 3513 2228 3513 1497 
Q 3513 744 3044 326 
Q 2575 -91 1722 -91 
Q 1428 -91 1123 -41 
Q 819 9 494 109 
L 494 744 
Q 775 591 1075 516 
Q 1375 441 1709 441 
Q 2250 441 2565 725 
Q 2881 1009 2881 1497 
Q 2881 1984 2565 2268 
Q 2250 2553 1709 2553 
Q 1456 2553 1204 2497 
Q 953 2441 691 2322 
L 691 4666 
z
" transform="scale(0.015625)"/>
       </defs>
       <use xlink:href="#DejaVuSans-30"/>
       <use xlink:href="#DejaVuSans-2e" x="63.623047"/>
       <use xlink:href="#DejaVuSans-35" x="95.410156"/>
      </g>
     </g>
    </g>
    <g id="xtick_3">
     <g id="line2d_3">
      <g>
       <use xlink:href="#m721a6062a6" x="157.522812" y="202.553498" style="stroke: #000000; stroke-width: 0.8"/>
      </g>
     </g>
     <g id="text_3">
      <!-- 1.0 -->
      <g transform="translate(149.57125 217.151936)scale(0.1 -0.1)">
       <defs>
        <path id="DejaVuSans-31" d="M 794 531 
L 1825 531 
L 1825 4091 
L 703 3866 
L 703 4441 
L 1819 4666 
L 2450 4666 
L 2450 531 
L 3481 531 
L 3481 0 
L 794 0 
L 794 531 
z
" transform="scale(0.015625)"/>
       </defs>
       <use xlink:href="#DejaVuSans-31"/>
       <use xlink:href="#DejaVuSans-2e" x="63.623047"/>
       <use xlink:href="#DejaVuSans-30" x="95.410156"/>
      </g>
     </g>
    </g>
    <g id="xtick_4">
     <g id="line2d_4">
      <g>
       <use xlink:href="#m721a6062a6" x="217.042813" y="202.553498" style="stroke: #000000; stroke-width: 0.8"/>
      </g>
     </g>
     <g id="text_4">
      <!-- 1.5 -->
      <g transform="translate(209.09125 217.151936)scale(0.1 -0.1)">
       <use xlink:href="#DejaVuSans-31"/>
       <use xlink:href="#DejaVuSans-2e" x="63.623047"/>
       <use xlink:href="#DejaVuSans-35" x="95.410156"/>
      </g>
     </g>
    </g>
    <g id="xtick_5">
     <g id="line2d_5">
      <g>
       <use xlink:href="#m721a6062a6" x="276.562813" y="202.553498" style="stroke: #000000; stroke-width: 0.8"/>
      </g>
     </g>
     <g id="text_5">
      <!-- 2.0 -->
      <g transform="translate(268.61125 217.151936)scale(0.1 -0.1)">
       <defs>
        <path id="DejaVuSans-32" d="M 1228 531 
L 3431 531 
L 3431 0 
L 469 0 
L 469 531 
Q 828 903 1448 1529 
Q 2069 2156 2228 2338 
Q 2531 2678 2651 2914 
Q 2772 3150 2772 3378 
Q 2772 3750 2511 3984 
Q 2250 4219 1831 4219 
Q 1534 4219 1204 4116 
Q 875 4013 500 3803 
L 500 4441 
Q 881 4594 1212 4672 
Q 1544 4750 1819 4750 
Q 2544 4750 2975 4387 
Q 3406 4025 3406 3419 
Q 3406 3131 3298 2873 
Q 3191 2616 2906 2266 
Q 2828 2175 2409 1742 
Q 1991 1309 1228 531 
z
" transform="scale(0.015625)"/>
       </defs>
       <use xlink:href="#DejaVuSans-32"/>
       <use xlink:href="#DejaVuSans-2e" x="63.623047"/>
       <use xlink:href="#DejaVuSans-30" x="95.410156"/>
      </g>
     </g>
    </g>
    <g id="xtick_6">
     <g id="line2d_6">
      <g>
       <use xlink:href="#m721a6062a6" x="336.082812" y="202.553498" style="stroke: #000000; stroke-width: 0.8"/>
      </g>
     </g>
     <g id="text_6">
      <!-- 2.5 -->
      <g transform="translate(328.13125 217.151936)scale(0.1 -0.1)">
       <use xlink:href="#DejaVuSans-32"/>
       <use xlink:href="#DejaVuSans-2e" x="63.623047"/>
       <use xlink:href="#DejaVuSans-35" x="95.410156"/>
      </g>
     </g>
    </g>
    <g id="xtick_7">
     <g id="line2d_7">
      <g>
       <use xlink:href="#m721a6062a6" x="395.602813" y="202.553498" style="stroke: #000000; stroke-width: 0.8"/>
      </g>
     </g>
     <g id="text_7">
      <!-- 3.0 -->
      <g transform="translate(387.65125 217.151936)scale(0.1 -0.1)">
       <defs>
        <path id="DejaVuSans-33" d="M 2597 2516 
Q 3050 2419 3304 2112 
Q 3559 1806 3559 1356 
Q 3559 666 3084 287 
Q 2609 -91 1734 -91 
Q 1441 -91 1130 -33 
Q 819 25 488 141 
L 488 750 
Q 750 597 1062 519 
Q 1375 441 1716 441 
Q 2309 441 2620 675 
Q 2931 909 2931 1356 
Q 2931 1769 2642 2001 
Q 2353 2234 1838 2234 
L 1294 2234 
L 1294 2753 
L 1863 2753 
Q 2328 2753 2575 2939 
Q 2822 3125 2822 3475 
Q 2822 3834 2567 4026 
Q 2313 4219 1838 4219 
Q 1578 4219 1281 4162 
Q 984 4106 628 3988 
L 628 4550 
Q 988 4650 1302 4700 
Q 1616 4750 1894 4750 
Q 2613 4750 3031 4423 
Q 3450 4097 3450 3541 
Q 3450 3153 3228 2886 
Q 3006 2619 2597 2516 
z
" transform="scale(0.015625)"/>
       </defs>
       <use xlink:href="#DejaVuSans-33"/>
       <use xlink:href="#DejaVuSans-2e" x="63.623047"/>
       <use xlink:href="#DejaVuSans-30" x="95.410156"/>
      </g>
     </g>
    </g>
   </g>
   <g id="matplotlib.axis_2">
    <g id="ytick_1">
     <g id="line2d_8">
      <defs>
       <path id="md4ed958516" d="M 0 0 
L -3.5 0 
" style="stroke: #000000; stroke-width: 0.8"/>
      </defs>
      <g>
       <use xlink:href="#md4ed958516" x="38.482813" y="188.205501" style="stroke: #000000; stroke-width: 0.8"/>
      </g>
     </g>
     <g id="text_8">
      <!-- −0.2 -->
      <g transform="translate(7.2 192.00472)scale(0.1 -0.1)">
       <defs>
        <path id="DejaVuSans-2212" d="M 678 2272 
L 4684 2272 
L 4684 1741 
L 678 1741 
L 678 2272 
z
" transform="scale(0.015625)"/>
       </defs>
       <use xlink:href="#DejaVuSans-2212"/>
       <use xlink:href="#DejaVuSans-30" x="83.789062"/>
       <use xlink:href="#DejaVuSans-2e" x="147.412109"/>
       <use xlink:href="#DejaVuSans-32" x="179.199219"/>
      </g>
     </g>
    </g>
    <g id="ytick_2">
     <g id="line2d_9">
      <g>
       <use xlink:href="#md4ed958516" x="38.482813" y="164.397501" style="stroke: #000000; stroke-width: 0.8"/>
      </g>
     </g>
     <g id="text_9">
      <!-- 0.0 -->
      <g transform="translate(15.579688 168.19672)scale(0.1 -0.1)">
       <use xlink:href="#DejaVuSans-30"/>
       <use xlink:href="#DejaVuSans-2e" x="63.623047"/>
       <use xlink:href="#DejaVuSans-30" x="95.410156"/>
      </g>
     </g>
    </g>
    <g id="ytick_3">
     <g id="line2d_10">
      <g>
       <use xlink:href="#md4ed958516" x="38.482813" y="140.589501" style="stroke: #000000; stroke-width: 0.8"/>
      </g>
     </g>
     <g id="text_10">
      <!-- 0.2 -->
      <g transform="translate(15.579688 144.38872)scale(0.1 -0.1)">
       <use xlink:href="#DejaVuSans-30"/>
       <use xlink:href="#DejaVuSans-2e" x="63.623047"/>
       <use xlink:href="#DejaVuSans-32" x="95.410156"/>
      </g>
     </g>
    </g>
    <g id="ytick_4">
     <g id="line2d_11">
      <g>
       <use xlink:href="#md4ed958516" x="38.482813" y="116.781501" style="stroke: #000000; stroke-width: 0.8"/>
      </g>
     </g>
     <g id="text_11">
      <!-- 0.4 -->
      <g transform="translate(15.579688 120.58072)scale(0.1 -0.1)">
       <defs>
        <path id="DejaVuSans-34" d="M 2419 4116 
L 825 1625 
L 2419 1625 
L 2419 4116 
z
M 2253 4666 
L 3047 4666 
L 3047 1625 
L 3713 1625 
L 3713 1100 
L 3047 1100 
L 3047 0 
L 2419 0 
L 2419 1100 
L 313 1100 
L 313 1709 
L 2253 4666 
z
" transform="scale(0.015625)"/>
       </defs>
       <use xlink:href="#DejaVuSans-30"/>
       <use xlink:href="#DejaVuSans-2e" x="63.623047"/>
       <use xlink:href="#DejaVuSans-34" x="95.410156"/>
      </g>
     </g>
    </g>
    <g id="ytick_5">
     <g id="line2d_12">
      <g>
       <use xlink:href="#md4ed958516" x="38.482813" y="92.973501" style="stroke: #000000; stroke-width: 0.8"/>
      </g>
     </g>
     <g id="text_12">
      <!-- 0.6 -->
      <g transform="translate(15.579688 96.77272)scale(0.1 -0.1)">
       <defs>
        <path id="DejaVuSans-36" d="M 2113 2584 
Q 1688 2584 1439 2293 
Q 1191 2003 1191 1497 
Q 1191 994 1439 701 
Q 1688 409 2113 409 
Q 2538 409 2786 701 
Q 3034 994 3034 1497 
Q 3034 2003 2786 2293 
Q 2538 2584 2113 2584 
z
M 3366 4563 
L 3366 3988 
Q 3128 4100 2886 4159 
Q 2644 4219 2406 4219 
Q 1781 4219 1451 3797 
Q 1122 3375 1075 2522 
Q 1259 2794 1537 2939 
Q 1816 3084 2150 3084 
Q 2853 3084 3261 2657 
Q 3669 2231 3669 1497 
Q 3669 778 3244 343 
Q 2819 -91 2113 -91 
Q 1303 -91 875 529 
Q 447 1150 447 2328 
Q 447 3434 972 4092 
Q 1497 4750 2381 4750 
Q 2619 4750 2861 4703 
Q 3103 4656 3366 4563 
z
" transform="scale(0.015625)"/>
       </defs>
       <use xlink:href="#DejaVuSans-30"/>
       <use xlink:href="#DejaVuSans-2e" x="63.623047"/>
       <use xlink:href="#DejaVuSans-36" x="95.410156"/>
      </g>
     </g>
    </g>
    <g id="ytick_6">
     <g id="line2d_13">
      <g>
       <use xlink:href="#md4ed958516" x="38.482813" y="69.165501" style="stroke: #000000; stroke-width: 0.8"/>
      </g>
     </g>
     <g id="text_13">
      <!-- 0.8 -->
      <g transform="translate(15.579688 72.96472)scale(0.1 -0.1)">
       <defs>
        <path id="DejaVuSans-38" d="M 2034 2216 
Q 1584 2216 1326 1975 
Q 1069 1734 1069 1313 
Q 1069 891 1326 650 
Q 1584 409 2034 409 
Q 2484 409 2743 651 
Q 3003 894 3003 1313 
Q 3003 1734 2745 1975 
Q 2488 2216 2034 2216 
z
M 1403 2484 
Q 997 2584 770 2862 
Q 544 3141 544 3541 
Q 544 4100 942 4425 
Q 1341 4750 2034 4750 
Q 2731 4750 3128 4425 
Q 3525 4100 3525 3541 
Q 3525 3141 3298 2862 
Q 3072 2584 2669 2484 
Q 3125 2378 3379 2068 
Q 3634 1759 3634 1313 
Q 3634 634 3220 271 
Q 2806 -91 2034 -91 
Q 1263 -91 848 271 
Q 434 634 434 1313 
Q 434 1759 690 2068 
Q 947 2378 1403 2484 
z
M 1172 3481 
Q 1172 3119 1398 2916 
Q 1625 2713 2034 2713 
Q 2441 2713 2670 2916 
Q 2900 3119 2900 3481 
Q 2900 3844 2670 4047 
Q 2441 4250 2034 4250 
Q 1625 4250 1398 4047 
Q 1172 3844 1172 3481 
z
" transform="scale(0.015625)"/>
       </defs>
       <use xlink:href="#DejaVuSans-30"/>
       <use xlink:href="#DejaVuSans-2e" x="63.623047"/>
       <use xlink:href="#DejaVuSans-38" x="95.410156"/>
      </g>
     </g>
    </g>
    <g id="ytick_7">
     <g id="line2d_14">
      <g>
       <use xlink:href="#md4ed958516" x="38.482813" y="45.357501" style="stroke: #000000; stroke-width: 0.8"/>
      </g>
     </g>
     <g id="text_14">
      <!-- 1.0 -->
      <g transform="translate(15.579688 49.15672)scale(0.1 -0.1)">
       <use xlink:href="#DejaVuSans-31"/>
       <use xlink:href="#DejaVuSans-2e" x="63.623047"/>
       <use xlink:href="#DejaVuSans-30" x="95.410156"/>
      </g>
     </g>
    </g>
   </g>
   <g id="line2d_15">
    <path d="M 38.482813 164.397501 
L 48.516433 169.669533 
L 57.993893 174.385408 
L 66.930431 178.560362 
L 75.341282 182.209633 
L 83.241683 185.348457 
L 90.646871 187.992071 
L 95.884945 189.658966 
L 100.859459 191.062305 
L 105.576843 192.208515 
L 110.043525 193.104025 
L 114.265933 193.755262 
L 118.250494 194.168656 
L 122.003639 194.350634 
L 125.531794 194.307626 
L 128.84139 194.046058 
L 131.938855 193.572361 
L 134.830619 192.892962 
L 137.523111 192.014291 
L 140.022761 190.942776 
L 142.336 189.684848 
L 144.469258 188.246935 
L 146.428967 186.635467 
L 148.22156 184.856875 
L 149.853468 182.917589 
L 151.331127 180.82404 
L 152.66097 178.582659 
L 153.849433 176.199879 
L 154.902954 173.682132 
L 156.108867 170.126307 
L 157.101593 166.357229 
L 157.896404 162.390152 
L 158.508578 158.240333 
L 159.040242 152.819327 
L 159.340277 147.166442 
L 159.438554 141.311495 
L 159.33223 134.060817 
L 158.964139 125.3569 
L 158.229962 113.904271 
L 155.653107 76.873896 
L 155.114458 64.643388 
L 155.006819 58.744358 
L 155.099038 55.33524 
L 155.433282 52.090005 
L 155.862974 50.055362 
L 156.512716 48.152204 
L 157.421623 46.401053 
L 158.612144 44.814101 
L 160.084232 43.392291 
L 161.815356 42.125317 
L 163.766346 40.994555 
L 165.890385 39.977552 
L 169.302259 38.618106 
L 174.091103 37.029575 
L 179.003562 35.628969 
L 185.218062 34.104194 
L 191.488097 32.831173 
L 197.81275 31.824357 
L 202.910033 31.219612 
L 208.034903 30.7984 
L 213.178753 30.563559 
L 218.331071 30.516523 
L 223.480544 30.657564 
L 228.616126 30.98585 
L 233.728114 31.499285 
L 238.809283 32.194193 
L 245.112024 33.309306 
L 251.360497 34.684496 
L 257.547672 36.308339 
L 262.412104 37.796974 
L 265.944047 39.052315 
L 269.275916 40.473262 
L 271.319401 41.544279 
L 273.166053 42.740468 
L 274.771707 44.082956 
L 276.1045 45.586714 
L 277.152737 47.256624 
L 277.928022 49.085919 
L 278.462148 51.057736 
L 278.799243 53.149044 
L 279.03786 56.456743 
L 279.061702 61.078616 
L 278.786206 69.481304 
L 278.152726 81.878248 
L 277.211681 95.879873 
L 275.121486 125.3569 
L 274.753395 134.060817 
L 274.647071 141.311495 
L 274.745348 147.166442 
L 275.045383 152.819327 
L 275.577047 158.240333 
L 276.189221 162.390152 
L 276.984032 166.357229 
L 277.976758 170.126307 
L 279.182671 173.682132 
L 280.236192 176.199879 
L 281.424655 178.582659 
L 282.754498 180.82404 
L 284.232157 182.917589 
L 285.864065 184.856875 
L 287.656658 186.635467 
L 289.616367 188.246935 
L 291.749625 189.684848 
L 294.062864 190.942776 
L 296.562514 192.01429 
L 299.255005 192.892963 
L 302.146767 193.572363 
L 305.244235 194.046058 
L 308.55383 194.307627 
L 312.081988 194.350633 
L 315.835132 194.168655 
L 319.819699 193.755256 
L 324.042093 193.104032 
L 328.508771 192.208525 
L 333.226161 191.06231 
L 338.200705 189.658944 
L 343.438781 187.992044 
L 348.946807 186.055198 
L 356.721989 183.041595 
L 365.003876 179.521289 
L 373.807477 175.479269 
L 383.148222 170.900107 
L 393.04146 165.768457 
L 395.602812 164.397501 
L 395.602812 164.397501 
" clip-path="url(#p24abc36da9)" style="fill: none; stroke: #ff7f0e; stroke-width: 1.5; stroke-linecap: square"/>
   </g>
   <g id="line2d_16">
    <path d="M 38.482851 164.397521 
L 48.495307 169.658964 
L 57.950671 174.363784 
L 66.864279 178.527264 
L 75.251486 182.164702 
L 83.127674 185.291407 
L 90.50825 187.922701 
L 95.727723 189.580283 
L 100.683621 190.9743 
L 105.38248 192.111232 
L 109.830844 192.997566 
L 114.035273 193.639796 
L 118.002336 194.044421 
L 121.738616 194.217945 
L 125.250712 194.166883 
L 128.545235 193.897754 
L 131.628811 193.417085 
L 134.508082 192.731412 
L 137.189708 191.847278 
L 139.680363 190.771235 
L 141.986738 189.509843 
L 144.115544 188.069672 
L 146.073508 186.4573 
L 147.867375 184.679314 
L 149.503907 182.74231 
L 150.989888 180.652895 
L 152.332115 178.417683 
L 153.537407 176.043298 
L 154.612597 173.536374 
L 155.855649 169.999118 
L 156.895876 166.25381 
L 157.749608 162.316242 
L 158.433218 158.202229 
L 159.0735 152.835709 
L 159.505738 147.249203 
L 159.795158 140.298689 
L 159.887315 131.91749 
L 159.755038 120.842775 
L 159.392267 97.15193 
L 159.508599 89.81267 
L 159.786984 83.830699 
L 160.286956 78.015614 
L 160.886038 73.514229 
L 161.696875 69.17327 
L 162.751944 65.017613 
L 163.722139 62.037118 
L 164.858562 59.184107 
L 166.170655 56.467207 
L 167.665198 53.893768 
L 169.345812 51.4696 
L 171.212667 49.198808 
L 173.262441 47.083749 
L 175.488528 45.125116 
L 177.881477 43.322149 
L 180.429588 41.672917 
L 183.119575 40.174653 
L 185.937239 38.824087 
L 188.868046 37.617746 
L 192.926981 36.227752 
L 197.128839 35.08066 
L 201.44317 34.1702 
L 205.841949 33.491451 
L 210.299342 33.040851 
L 214.791199 32.816109 
L 219.294426 32.816109 
L 223.786283 33.040851 
L 228.243676 33.491451 
L 232.642455 34.1702 
L 236.956786 35.08066 
L 241.158644 36.227752 
L 245.217579 37.617746 
L 248.148386 38.824087 
L 250.96605 40.174653 
L 253.656037 41.672917 
L 256.204148 43.322149 
L 258.597097 45.125116 
L 260.823184 47.083749 
L 262.872958 49.198808 
L 264.739813 51.4696 
L 266.420427 53.893768 
L 267.91497 56.467207 
L 269.227063 59.184107 
L 270.363486 62.037118 
L 271.333681 65.017613 
L 272.149128 68.116016 
L 273.018007 72.412977 
L 273.66697 76.876581 
L 274.128435 81.482155 
L 274.48871 87.40264 
L 274.676274 94.689839 
L 274.664078 103.356412 
L 274.355209 119.59863 
L 274.198405 133.129764 
L 274.323487 141.473727 
L 274.651236 148.382615 
L 275.122509 153.927603 
L 275.808258 159.246408 
L 276.532861 163.317794 
L 277.431683 167.208779 
L 278.521087 170.903553 
L 279.817391 174.386333 
L 280.935188 176.849814 
L 282.185367 179.178544 
L 283.574755 181.365893 
L 285.110165 183.405239 
L 286.79839 185.28997 
L 288.646205 187.013484 
L 290.660368 188.569188 
L 292.847617 189.950496 
L 295.214674 191.150834 
L 297.768243 192.163636 
L 300.51501 192.982344 
L 303.461644 193.600409 
L 306.614799 194.01129 
L 309.98111 194.208456 
L 313.5672 194.18538 
L 317.379676 193.935545 
L 321.42513 193.452441 
L 325.710141 192.729565 
L 330.241275 191.760419 
L 335.025087 190.538513 
L 340.068118 189.057361 
L 345.376899 187.310484 
L 350.957951 185.291407 
L 358.834139 182.164702 
L 367.221346 178.527264 
L 376.134954 174.363784 
L 385.590318 169.658964 
L 395.602774 164.397521 
L 395.602774 164.397521 
" clip-path="url(#p24abc36da9)" style="fill: none; stroke: #2ca02c; stroke-width: 1.5; stroke-linecap: square"/>
   </g>
   <g id="line2d_17">
    <path d="M 38.503427 164.408139 
L 48.155525 169.485241 
L 57.25423 174.007135 
L 65.816358 177.989827 
L 73.85882 181.449374 
L 81.398623 184.401882 
L 88.452868 186.863507 
L 93.435248 188.397332 
L 98.161463 189.671007 
L 102.638833 190.691405 
L 106.87471 191.465416 
L 110.876469 191.999945 
L 114.65152 192.301914 
L 118.207295 192.378261 
L 121.551257 192.235941 
L 124.690893 191.881925 
L 127.633717 191.3232 
L 130.387263 190.566768 
L 132.959092 189.619647 
L 135.356783 188.48887 
L 137.587933 187.181486 
L 139.660159 185.704557 
L 141.581091 184.065158 
L 143.35837 182.27038 
L 144.999648 180.327324 
L 146.512582 178.243104 
L 147.904832 176.024844 
L 149.586673 172.870988 
L 151.085714 169.508456 
L 152.420054 165.954201 
L 153.607724 162.225187 
L 154.91338 157.344021 
L 156.052659 152.249443 
L 157.248512 145.900812 
L 158.647802 137.130422 
L 162.941537 108.863167 
L 164.464183 101.090825 
L 165.977276 94.596952 
L 167.410293 89.340966 
L 169.016822 84.254889 
L 170.80958 79.364029 
L 172.797975 74.692241 
L 174.533684 71.127576 
L 176.399943 67.728068 
L 178.39676 64.503668 
L 180.522719 61.463614 
L 182.775013 58.616416 
L 185.149486 55.969855 
L 187.640702 53.530991 
L 190.242019 51.306169 
L 192.94568 49.301037 
L 195.742909 47.520563 
L 198.624016 45.969056 
L 201.578511 44.650193 
L 204.595213 43.567036 
L 207.662368 42.722057 
L 210.767761 42.117158 
L 213.898838 41.753683 
L 217.042812 41.632436 
L 220.186787 41.753683 
L 223.317864 42.117158 
L 226.423257 42.722057 
L 229.490412 43.567036 
L 232.507114 44.650193 
L 235.461609 45.969056 
L 238.342716 47.520563 
L 241.139945 49.301037 
L 243.843606 51.306169 
L 246.444923 53.530991 
L 248.936139 55.969855 
L 251.310612 58.616416 
L 253.562906 61.463614 
L 255.688865 64.503668 
L 257.685682 67.728068 
L 259.551941 71.127576 
L 261.28765 74.692241 
L 262.894258 78.411409 
L 264.725499 83.260314 
L 266.368361 88.309328 
L 267.834909 93.533423 
L 269.383692 99.99621 
L 270.732567 106.625179 
L 272.103778 114.502112 
L 273.815105 125.864542 
L 276.47063 143.736747 
L 277.822044 151.20783 
L 279.172245 157.344021 
L 280.477901 162.225187 
L 281.665571 165.954201 
L 282.999911 169.508456 
L 284.498952 172.870988 
L 286.180793 176.024844 
L 287.573043 178.243104 
L 289.085977 180.327324 
L 290.727255 182.27038 
L 292.504534 184.065158 
L 294.425466 185.704557 
L 296.497692 187.181486 
L 298.728842 188.48887 
L 301.126533 189.619647 
L 303.698362 190.566768 
L 306.451908 191.3232 
L 309.394732 191.881925 
L 312.534368 192.235941 
L 315.87833 192.378261 
L 319.434105 192.301914 
L 323.209156 191.999945 
L 327.210915 191.465416 
L 331.446792 190.691405 
L 335.924162 189.671007 
L 340.650377 188.397332 
L 345.632757 186.863507 
L 350.87859 185.062676 
L 358.295397 182.234406 
L 366.210596 178.90313 
L 374.641218 175.052732 
L 383.604198 170.667141 
L 393.116376 165.730339 
L 395.582198 164.408139 
L 395.582198 164.408139 
" clip-path="url(#p24abc36da9)" style="fill: none; stroke: #d62728; stroke-width: 1.5; stroke-linecap: square"/>
   </g>
   <g id="line2d_18">
    <path d="M 38.832215 164.607951 
L 47.332411 169.00898 
L 55.337574 172.880609 
L 62.867131 176.240396 
L 69.940474 179.105927 
L 76.576951 181.494805 
L 81.279217 182.984256 
L 85.754696 184.222931 
L 90.011463 185.218264 
L 94.057556 185.977686 
L 97.900974 186.508628 
L 101.549668 186.81851 
L 105.011543 186.91475 
L 108.294446 186.804752 
L 111.406164 186.495911 
L 114.354418 185.995607 
L 117.146858 185.311201 
L 119.791055 184.450039 
L 122.294498 183.419442 
L 124.664587 182.226708 
L 126.908628 180.879107 
L 129.033825 179.383879 
L 131.047274 177.748232 
L 133.5701 175.361327 
L 135.922892 172.754419 
L 138.121475 169.944259 
L 140.181246 166.947447 
L 142.117153 163.780415 
L 144.384852 159.607 
L 146.508755 155.224317 
L 148.903971 149.732186 
L 151.539751 143.069324 
L 154.771832 134.22227 
L 164.067994 108.293807 
L 167.144348 100.602365 
L 169.980128 94.116155 
L 172.53248 88.78328 
L 175.205595 83.695222 
L 178.004194 78.883301 
L 180.433541 75.105319 
L 182.950745 71.554861 
L 185.553974 68.246344 
L 188.240173 65.193029 
L 191.005141 62.407009 
L 193.843629 59.8992 
L 196.74943 57.679335 
L 199.117818 56.116542 
L 201.520815 54.747344 
L 203.954183 53.575073 
L 206.413446 52.602568 
L 208.89393 51.832174 
L 211.390797 51.265747 
L 213.899086 50.904644 
L 216.413748 50.749731 
L 218.929687 50.801379 
L 221.441798 51.059464 
L 223.945002 51.523368 
L 226.434291 52.19198 
L 228.90476 53.063691 
L 231.351648 54.136404 
L 233.770376 55.407524 
L 236.156582 56.873967 
L 238.506159 58.532155 
L 241.385837 60.868289 
L 244.19561 63.488616 
L 246.929644 66.38293 
L 249.583097 69.539843 
L 252.152216 72.946793 
L 254.634425 76.590055 
L 257.028407 80.454753 
L 259.784841 85.362059 
L 262.417025 90.535315 
L 264.930711 95.942446 
L 267.725675 102.500481 
L 270.763193 110.253107 
L 274.38439 120.193451 
L 282.914167 144.035159 
L 285.570884 150.663162 
L 287.991408 156.116109 
L 290.141958 160.459419 
L 292.441636 164.587239 
L 294.407133 167.713247 
L 296.500188 170.664944 
L 298.735863 173.425853 
L 301.129664 175.979336 
L 303.697518 178.308606 
L 305.747435 179.898246 
L 307.911452 181.345067 
L 310.196703 182.641852 
L 312.610428 183.78135 
L 315.159962 184.75628 
L 317.852737 185.559338 
L 320.696269 186.183194 
L 323.698158 186.620496 
L 326.866076 186.863877 
L 330.207768 186.905951 
L 333.731041 186.73932 
L 337.443763 186.356576 
L 341.353853 185.750299 
L 345.46928 184.913065 
L 349.798056 183.837444 
L 354.348232 182.516003 
L 359.127893 180.941309 
L 364.145151 179.105927 
L 371.218494 176.240396 
L 378.748051 172.880609 
L 386.753214 169.00898 
L 395.25341 164.607951 
L 395.25341 164.607951 
" clip-path="url(#p24abc36da9)" style="fill: none; stroke: #9467bd; stroke-width: 1.5; stroke-linecap: square"/>
   </g>
   <g id="patch_3">
    <path d="M 38.482813 202.553498 
L 38.482813 22.318125 
" style="fill: none; stroke: #000000; stroke-width: 0.8; stroke-linejoin: miter; stroke-linecap: square"/>
   </g>
   <g id="patch_4">
    <path d="M 395.602813 202.553498 
L 395.602813 22.318125 
" style="fill: none; stroke: #000000; stroke-width: 0.8; stroke-linejoin: miter; stroke-linecap: square"/>
   </g>
   <g id="patch_5">
    <path d="M 38.482813 202.553498 
L 395.602813 202.553498 
" style="fill: none; stroke: #000000; stroke-width: 0.8; stroke-linejoin: miter; stroke-linecap: square"/>
   </g>
   <g id="patch_6">
    <path d="M 38.482813 22.318125 
L 395.602813 22.318125 
" style="fill: none; stroke: #000000; stroke-width: 0.8; stroke-linejoin: miter; stroke-linecap: square"/>
   </g>
   <g id="text_15">
    <!-- 3ʳᵈ degree curves of different smoothness -->
    <g transform="translate(91.177813 16.318125)scale(0.12 -0.12)">
     <defs>
      <path id="DejaVuSans-2b3" d="M 1656 3747 
Q 1597 3778 1525 3792 
Q 1453 3806 1366 3806 
Q 1059 3806 895 3629 
Q 731 3453 731 3119 
L 731 2088 
L 366 2088 
L 366 4047 
L 731 4047 
L 731 3744 
Q 844 3922 1026 4008 
Q 1209 4094 1472 4094 
Q 1509 4094 1554 4091 
Q 1600 4088 1656 4078 
L 1656 3747 
z
" transform="scale(0.015625)"/>
      <path id="DejaVuSans-1d48" d="M 1831 3750 
L 1831 4809 
L 2194 4809 
L 2194 2088 
L 1831 2088 
L 1831 2381 
Q 1716 2206 1544 2122 
Q 1369 2038 1125 2038 
Q 725 2038 475 2319 
Q 222 2603 222 3065 
Q 222 3528 475 3813 
Q 725 4094 1125 4094 
Q 1369 4094 1544 4009 
Q 1716 3925 1831 3750 
z
M 759 3622 
Q 597 3422 597 3065 
Q 597 2709 759 2509 
Q 925 2306 1212 2306 
Q 1500 2306 1666 2509 
Q 1831 2709 1831 3065 
Q 1831 3422 1666 3622 
Q 1500 3825 1212 3825 
Q 925 3825 759 3622 
z
" transform="scale(0.015625)"/>
      <path id="DejaVuSans-20" transform="scale(0.015625)"/>
      <path id="DejaVuSans-64" d="M 2906 2969 
L 2906 4863 
L 3481 4863 
L 3481 0 
L 2906 0 
L 2906 525 
Q 2725 213 2448 61 
Q 2172 -91 1784 -91 
Q 1150 -91 751 415 
Q 353 922 353 1747 
Q 353 2572 751 3078 
Q 1150 3584 1784 3584 
Q 2172 3584 2448 3432 
Q 2725 3281 2906 2969 
z
M 947 1747 
Q 947 1113 1208 752 
Q 1469 391 1925 391 
Q 2381 391 2643 752 
Q 2906 1113 2906 1747 
Q 2906 2381 2643 2742 
Q 2381 3103 1925 3103 
Q 1469 3103 1208 2742 
Q 947 2381 947 1747 
z
" transform="scale(0.015625)"/>
      <path id="DejaVuSans-65" d="M 3597 1894 
L 3597 1613 
L 953 1613 
Q 991 1019 1311 708 
Q 1631 397 2203 397 
Q 2534 397 2845 478 
Q 3156 559 3463 722 
L 3463 178 
Q 3153 47 2828 -22 
Q 2503 -91 2169 -91 
Q 1331 -91 842 396 
Q 353 884 353 1716 
Q 353 2575 817 3079 
Q 1281 3584 2069 3584 
Q 2775 3584 3186 3129 
Q 3597 2675 3597 1894 
z
M 3022 2063 
Q 3016 2534 2758 2815 
Q 2500 3097 2075 3097 
Q 1594 3097 1305 2825 
Q 1016 2553 972 2059 
L 3022 2063 
z
" transform="scale(0.015625)"/>
      <path id="DejaVuSans-67" d="M 2906 1791 
Q 2906 2416 2648 2759 
Q 2391 3103 1925 3103 
Q 1463 3103 1205 2759 
Q 947 2416 947 1791 
Q 947 1169 1205 825 
Q 1463 481 1925 481 
Q 2391 481 2648 825 
Q 2906 1169 2906 1791 
z
M 3481 434 
Q 3481 -459 3084 -895 
Q 2688 -1331 1869 -1331 
Q 1566 -1331 1297 -1286 
Q 1028 -1241 775 -1147 
L 775 -588 
Q 1028 -725 1275 -790 
Q 1522 -856 1778 -856 
Q 2344 -856 2625 -561 
Q 2906 -266 2906 331 
L 2906 616 
Q 2728 306 2450 153 
Q 2172 0 1784 0 
Q 1141 0 747 490 
Q 353 981 353 1791 
Q 353 2603 747 3093 
Q 1141 3584 1784 3584 
Q 2172 3584 2450 3431 
Q 2728 3278 2906 2969 
L 2906 3500 
L 3481 3500 
L 3481 434 
z
" transform="scale(0.015625)"/>
      <path id="DejaVuSans-72" d="M 2631 2963 
Q 2534 3019 2420 3045 
Q 2306 3072 2169 3072 
Q 1681 3072 1420 2755 
Q 1159 2438 1159 1844 
L 1159 0 
L 581 0 
L 581 3500 
L 1159 3500 
L 1159 2956 
Q 1341 3275 1631 3429 
Q 1922 3584 2338 3584 
Q 2397 3584 2469 3576 
Q 2541 3569 2628 3553 
L 2631 2963 
z
" transform="scale(0.015625)"/>
      <path id="DejaVuSans-63" d="M 3122 3366 
L 3122 2828 
Q 2878 2963 2633 3030 
Q 2388 3097 2138 3097 
Q 1578 3097 1268 2742 
Q 959 2388 959 1747 
Q 959 1106 1268 751 
Q 1578 397 2138 397 
Q 2388 397 2633 464 
Q 2878 531 3122 666 
L 3122 134 
Q 2881 22 2623 -34 
Q 2366 -91 2075 -91 
Q 1284 -91 818 406 
Q 353 903 353 1747 
Q 353 2603 823 3093 
Q 1294 3584 2113 3584 
Q 2378 3584 2631 3529 
Q 2884 3475 3122 3366 
z
" transform="scale(0.015625)"/>
      <path id="DejaVuSans-75" d="M 544 1381 
L 544 3500 
L 1119 3500 
L 1119 1403 
Q 1119 906 1312 657 
Q 1506 409 1894 409 
Q 2359 409 2629 706 
Q 2900 1003 2900 1516 
L 2900 3500 
L 3475 3500 
L 3475 0 
L 2900 0 
L 2900 538 
Q 2691 219 2414 64 
Q 2138 -91 1772 -91 
Q 1169 -91 856 284 
Q 544 659 544 1381 
z
M 1991 3584 
L 1991 3584 
z
" transform="scale(0.015625)"/>
      <path id="DejaVuSans-76" d="M 191 3500 
L 800 3500 
L 1894 563 
L 2988 3500 
L 3597 3500 
L 2284 0 
L 1503 0 
L 191 3500 
z
" transform="scale(0.015625)"/>
      <path id="DejaVuSans-73" d="M 2834 3397 
L 2834 2853 
Q 2591 2978 2328 3040 
Q 2066 3103 1784 3103 
Q 1356 3103 1142 2972 
Q 928 2841 928 2578 
Q 928 2378 1081 2264 
Q 1234 2150 1697 2047 
L 1894 2003 
Q 2506 1872 2764 1633 
Q 3022 1394 3022 966 
Q 3022 478 2636 193 
Q 2250 -91 1575 -91 
Q 1294 -91 989 -36 
Q 684 19 347 128 
L 347 722 
Q 666 556 975 473 
Q 1284 391 1588 391 
Q 1994 391 2212 530 
Q 2431 669 2431 922 
Q 2431 1156 2273 1281 
Q 2116 1406 1581 1522 
L 1381 1569 
Q 847 1681 609 1914 
Q 372 2147 372 2553 
Q 372 3047 722 3315 
Q 1072 3584 1716 3584 
Q 2034 3584 2315 3537 
Q 2597 3491 2834 3397 
z
" transform="scale(0.015625)"/>
      <path id="DejaVuSans-6f" d="M 1959 3097 
Q 1497 3097 1228 2736 
Q 959 2375 959 1747 
Q 959 1119 1226 758 
Q 1494 397 1959 397 
Q 2419 397 2687 759 
Q 2956 1122 2956 1747 
Q 2956 2369 2687 2733 
Q 2419 3097 1959 3097 
z
M 1959 3584 
Q 2709 3584 3137 3096 
Q 3566 2609 3566 1747 
Q 3566 888 3137 398 
Q 2709 -91 1959 -91 
Q 1206 -91 779 398 
Q 353 888 353 1747 
Q 353 2609 779 3096 
Q 1206 3584 1959 3584 
z
" transform="scale(0.015625)"/>
      <path id="DejaVuSans-66" d="M 2375 4863 
L 2375 4384 
L 1825 4384 
Q 1516 4384 1395 4259 
Q 1275 4134 1275 3809 
L 1275 3500 
L 2222 3500 
L 2222 3053 
L 1275 3053 
L 1275 0 
L 697 0 
L 697 3053 
L 147 3053 
L 147 3500 
L 697 3500 
L 697 3744 
Q 697 4328 969 4595 
Q 1241 4863 1831 4863 
L 2375 4863 
z
" transform="scale(0.015625)"/>
      <path id="DejaVuSans-69" d="M 603 3500 
L 1178 3500 
L 1178 0 
L 603 0 
L 603 3500 
z
M 603 4863 
L 1178 4863 
L 1178 4134 
L 603 4134 
L 603 4863 
z
" transform="scale(0.015625)"/>
      <path id="DejaVuSans-6e" d="M 3513 2113 
L 3513 0 
L 2938 0 
L 2938 2094 
Q 2938 2591 2744 2837 
Q 2550 3084 2163 3084 
Q 1697 3084 1428 2787 
Q 1159 2491 1159 1978 
L 1159 0 
L 581 0 
L 581 3500 
L 1159 3500 
L 1159 2956 
Q 1366 3272 1645 3428 
Q 1925 3584 2291 3584 
Q 2894 3584 3203 3211 
Q 3513 2838 3513 2113 
z
" transform="scale(0.015625)"/>
      <path id="DejaVuSans-74" d="M 1172 4494 
L 1172 3500 
L 2356 3500 
L 2356 3053 
L 1172 3053 
L 1172 1153 
Q 1172 725 1289 603 
Q 1406 481 1766 481 
L 2356 481 
L 2356 0 
L 1766 0 
Q 1100 0 847 248 
Q 594 497 594 1153 
L 594 3053 
L 172 3053 
L 172 3500 
L 594 3500 
L 594 4494 
L 1172 4494 
z
" transform="scale(0.015625)"/>
      <path id="DejaVuSans-6d" d="M 3328 2828 
Q 3544 3216 3844 3400 
Q 4144 3584 4550 3584 
Q 5097 3584 5394 3201 
Q 5691 2819 5691 2113 
L 5691 0 
L 5113 0 
L 5113 2094 
Q 5113 2597 4934 2840 
Q 4756 3084 4391 3084 
Q 3944 3084 3684 2787 
Q 3425 2491 3425 1978 
L 3425 0 
L 2847 0 
L 2847 2094 
Q 2847 2600 2669 2842 
Q 2491 3084 2119 3084 
Q 1678 3084 1418 2786 
Q 1159 2488 1159 1978 
L 1159 0 
L 581 0 
L 581 3500 
L 1159 3500 
L 1159 2956 
Q 1356 3278 1631 3431 
Q 1906 3584 2284 3584 
Q 2666 3584 2933 3390 
Q 3200 3197 3328 2828 
z
" transform="scale(0.015625)"/>
      <path id="DejaVuSans-68" d="M 3513 2113 
L 3513 0 
L 2938 0 
L 2938 2094 
Q 2938 2591 2744 2837 
Q 2550 3084 2163 3084 
Q 1697 3084 1428 2787 
Q 1159 2491 1159 1978 
L 1159 0 
L 581 0 
L 581 4863 
L 1159 4863 
L 1159 2956 
Q 1366 3272 1645 3428 
Q 1925 3584 2291 3584 
Q 2894 3584 3203 3211 
Q 3513 2838 3513 2113 
z
" transform="scale(0.015625)"/>
     </defs>
     <use xlink:href="#DejaVuSans-33"/>
     <use xlink:href="#DejaVuSans-2b3" x="63.623047"/>
     <use xlink:href="#DejaVuSans-1d48" x="89.501953"/>
     <use xlink:href="#DejaVuSans-20" x="130.029297"/>
     <use xlink:href="#DejaVuSans-64" x="161.816406"/>
     <use xlink:href="#DejaVuSans-65" x="225.292969"/>
     <use xlink:href="#DejaVuSans-67" x="286.816406"/>
     <use xlink:href="#DejaVuSans-72" x="350.292969"/>
     <use xlink:href="#DejaVuSans-65" x="389.15625"/>
     <use xlink:href="#DejaVuSans-65" x="450.679688"/>
     <use xlink:href="#DejaVuSans-20" x="512.203125"/>
     <use xlink:href="#DejaVuSans-63" x="543.990234"/>
     <use xlink:href="#DejaVuSans-75" x="598.970703"/>
     <use xlink:href="#DejaVuSans-72" x="662.349609"/>
     <use xlink:href="#DejaVuSans-76" x="703.462891"/>
     <use xlink:href="#DejaVuSans-65" x="762.642578"/>
     <use xlink:href="#DejaVuSans-73" x="824.166016"/>
     <use xlink:href="#DejaVuSans-20" x="876.265625"/>
     <use xlink:href="#DejaVuSans-6f" x="908.052734"/>
     <use xlink:href="#DejaVuSans-66" x="969.234375"/>
     <use xlink:href="#DejaVuSans-20" x="1004.439453"/>
     <use xlink:href="#DejaVuSans-64" x="1036.226562"/>
     <use xlink:href="#DejaVuSans-69" x="1099.703125"/>
     <use xlink:href="#DejaVuSans-66" x="1127.486328"/>
     <use xlink:href="#DejaVuSans-66" x="1162.691406"/>
     <use xlink:href="#DejaVuSans-65" x="1197.896484"/>
     <use xlink:href="#DejaVuSans-72" x="1259.419922"/>
     <use xlink:href="#DejaVuSans-65" x="1298.283203"/>
     <use xlink:href="#DejaVuSans-6e" x="1359.806641"/>
     <use xlink:href="#DejaVuSans-74" x="1423.185547"/>
     <use xlink:href="#DejaVuSans-20" x="1462.394531"/>
     <use xlink:href="#DejaVuSans-73" x="1494.181641"/>
     <use xlink:href="#DejaVuSans-6d" x="1546.28125"/>
     <use xlink:href="#DejaVuSans-6f" x="1643.693359"/>
     <use xlink:href="#DejaVuSans-6f" x="1704.875"/>
     <use xlink:href="#DejaVuSans-74" x="1766.056641"/>
     <use xlink:href="#DejaVuSans-68" x="1805.265625"/>
     <use xlink:href="#DejaVuSans-6e" x="1868.644531"/>
     <use xlink:href="#DejaVuSans-65" x="1932.023438"/>
     <use xlink:href="#DejaVuSans-73" x="1993.546875"/>
     <use xlink:href="#DejaVuSans-73" x="2045.646484"/>
    </g>
   </g>
   <g id="legend_1">
    <g id="patch_7">
     <path d="M 325.9825 103.70875 
L 388.602813 103.70875 
Q 390.602813 103.70875 390.602813 101.70875 
L 390.602813 29.318125 
Q 390.602813 27.318125 388.602813 27.318125 
L 325.9825 27.318125 
Q 323.9825 27.318125 323.9825 29.318125 
L 323.9825 101.70875 
Q 323.9825 103.70875 325.9825 103.70875 
z
" style="fill: #ffffff; opacity: 0.8; stroke: #cccccc; stroke-linejoin: miter"/>
    </g>
    <g id="PathCollection_2">
     <g>
      <use xlink:href="#maf61498778" x="337.9825" y="36.291562" style="fill: #1f77b4; stroke: #1f77b4"/>
     </g>
    </g>
    <g id="text_16">
     <!-- Y -->
     <g transform="translate(355.9825 38.916562)scale(0.1 -0.1)">
      <defs>
       <path id="DejaVuSans-59" d="M -13 4666 
L 666 4666 
L 1959 2747 
L 3244 4666 
L 3922 4666 
L 2272 2222 
L 2272 0 
L 1638 0 
L 1638 2222 
L -13 4666 
z
" transform="scale(0.015625)"/>
      </defs>
      <use xlink:href="#DejaVuSans-59"/>
     </g>
    </g>
    <g id="line2d_19">
     <path d="M 327.9825 50.094687 
L 337.9825 50.094687 
L 347.9825 50.094687 
" style="fill: none; stroke: #ff7f0e; stroke-width: 1.5; stroke-linecap: square"/>
    </g>
    <g id="text_17">
     <!-- σ=0.5 -->
     <g transform="translate(355.9825 53.594687)scale(0.1 -0.1)">
      <defs>
       <path id="DejaVuSans-3c3" d="M 1959 3044 
Q 1484 3044 1228 2700 
Q 959 2341 959 1747 
Q 959 1119 1226 758 
Q 1494 397 1959 397 
Q 2419 397 2687 759 
Q 2956 1122 2956 1747 
Q 2956 2319 2688 2700 
Q 2441 3044 1959 3044 
z
M 1959 3500 
L 3869 3500 
L 3869 2925 
L 3225 2925 
Q 3566 2438 3566 1747 
Q 3566 888 3138 400 
Q 2709 -91 1959 -91 
Q 1206 -91 781 400 
Q 353 888 353 1747 
Q 353 2613 781 3097 
Q 1134 3500 1959 3500 
z
" transform="scale(0.015625)"/>
       <path id="DejaVuSans-3d" d="M 678 2906 
L 4684 2906 
L 4684 2381 
L 678 2381 
L 678 2906 
z
M 678 1631 
L 4684 1631 
L 4684 1100 
L 678 1100 
L 678 1631 
z
" transform="scale(0.015625)"/>
      </defs>
      <use xlink:href="#DejaVuSans-3c3"/>
      <use xlink:href="#DejaVuSans-3d" x="63.378906"/>
      <use xlink:href="#DejaVuSans-30" x="147.167969"/>
      <use xlink:href="#DejaVuSans-2e" x="210.791016"/>
      <use xlink:href="#DejaVuSans-35" x="242.578125"/>
     </g>
    </g>
    <g id="line2d_20">
     <path d="M 327.9825 64.772812 
L 337.9825 64.772812 
L 347.9825 64.772812 
" style="fill: none; stroke: #2ca02c; stroke-width: 1.5; stroke-linecap: square"/>
    </g>
    <g id="text_18">
     <!-- σ=0.7 -->
     <g transform="translate(355.9825 68.272812)scale(0.1 -0.1)">
      <defs>
       <path id="DejaVuSans-37" d="M 525 4666 
L 3525 4666 
L 3525 4397 
L 1831 0 
L 1172 0 
L 2766 4134 
L 525 4134 
L 525 4666 
z
" transform="scale(0.015625)"/>
      </defs>
      <use xlink:href="#DejaVuSans-3c3"/>
      <use xlink:href="#DejaVuSans-3d" x="63.378906"/>
      <use xlink:href="#DejaVuSans-30" x="147.167969"/>
      <use xlink:href="#DejaVuSans-2e" x="210.791016"/>
      <use xlink:href="#DejaVuSans-37" x="242.578125"/>
     </g>
    </g>
    <g id="line2d_21">
     <path d="M 327.9825 79.450938 
L 337.9825 79.450938 
L 347.9825 79.450938 
" style="fill: none; stroke: #d62728; stroke-width: 1.5; stroke-linecap: square"/>
    </g>
    <g id="text_19">
     <!-- σ=0.9 -->
     <g transform="translate(355.9825 82.950938)scale(0.1 -0.1)">
      <defs>
       <path id="DejaVuSans-39" d="M 703 97 
L 703 672 
Q 941 559 1184 500 
Q 1428 441 1663 441 
Q 2288 441 2617 861 
Q 2947 1281 2994 2138 
Q 2813 1869 2534 1725 
Q 2256 1581 1919 1581 
Q 1219 1581 811 2004 
Q 403 2428 403 3163 
Q 403 3881 828 4315 
Q 1253 4750 1959 4750 
Q 2769 4750 3195 4129 
Q 3622 3509 3622 2328 
Q 3622 1225 3098 567 
Q 2575 -91 1691 -91 
Q 1453 -91 1209 -44 
Q 966 3 703 97 
z
M 1959 2075 
Q 2384 2075 2632 2365 
Q 2881 2656 2881 3163 
Q 2881 3666 2632 3958 
Q 2384 4250 1959 4250 
Q 1534 4250 1286 3958 
Q 1038 3666 1038 3163 
Q 1038 2656 1286 2365 
Q 1534 2075 1959 2075 
z
" transform="scale(0.015625)"/>
      </defs>
      <use xlink:href="#DejaVuSans-3c3"/>
      <use xlink:href="#DejaVuSans-3d" x="63.378906"/>
      <use xlink:href="#DejaVuSans-30" x="147.167969"/>
      <use xlink:href="#DejaVuSans-2e" x="210.791016"/>
      <use xlink:href="#DejaVuSans-39" x="242.578125"/>
     </g>
    </g>
    <g id="line2d_22">
     <path d="M 327.9825 94.129063 
L 337.9825 94.129063 
L 347.9825 94.129063 
" style="fill: none; stroke: #9467bd; stroke-width: 1.5; stroke-linecap: square"/>
    </g>
    <g id="text_20">
     <!-- σ=1.1 -->
     <g transform="translate(355.9825 97.629063)scale(0.1 -0.1)">
      <use xlink:href="#DejaVuSans-3c3"/>
      <use xlink:href="#DejaVuSans-3d" x="63.378906"/>
      <use xlink:href="#DejaVuSans-31" x="147.167969"/>
      <use xlink:href="#DejaVuSans-2e" x="210.791016"/>
      <use xlink:href="#DejaVuSans-31" x="242.578125"/>
     </g>
    </g>
   </g>
  </g>
 </g>
 <defs>
  <clipPath id="p24abc36da9">
   <rect x="38.482813" y="22.318125" width="357.12" height="180.235373"/>
  </clipPath>
 </defs>
</svg>
