<?xml version="1.0" encoding="utf-8" standalone="no"?>
<!DOCTYPE svg PUBLIC "-//W3C//DTD SVG 1.1//EN"
  "http://www.w3.org/Graphics/SVG/1.1/DTD/svg11.dtd">
<svg xmlns:xlink="http://www.w3.org/1999/xlink" width="410.754375pt" height="228.175683pt" viewBox="0 0 410.754375 228.175683" xmlns="http://www.w3.org/2000/svg" version="1.1">
 <metadata>
  <rdf:RDF xmlns:dc="http://purl.org/dc/elements/1.1/" xmlns:cc="http://creativecommons.org/ns#" xmlns:rdf="http://www.w3.org/1999/02/22-rdf-syntax-ns#">
   <cc:Work>
    <dc:type rdf:resource="http://purl.org/dc/dcmitype/StillImage"/>
    <dc:date>2024-05-26T21:02:44.538104</dc:date>
    <dc:format>image/svg+xml</dc:format>
    <dc:creator>
     <cc:Agent>
      <dc:title>Matplotlib v3.5.2, https://matplotlib.org/</dc:title>
     </cc:Agent>
    </dc:creator>
   </cc:Work>
  </rdf:RDF>
 </metadata>
 <defs>
  <style type="text/css">*{stroke-linejoin: round; stroke-linecap: butt}</style>
 </defs>
 <g id="figure_1">
  <g id="patch_1">
   <path d="M 0 228.175683 
L 410.754375 228.175683 
L 410.754375 0 
L 0 0 
z
" style="fill: #ffffff"/>
  </g>
  <g id="axes_1">
   <g id="patch_2">
    <path d="M 38.482813 204.297558 
L 395.602813 204.297558 
L 395.602813 7.2 
L 38.482813 7.2 
z
" style="fill: #ffffff"/>
   </g>
   <g id="PathCollection_1">
    <defs>
     <path id="m031c48c41e" d="M 0 3 
C 0.795609 3 1.55874 2.683901 2.12132 2.12132 
C 2.683901 1.55874 3 0.795609 3 0 
C 3 -0.795609 2.683901 -1.55874 2.12132 -2.12132 
C 1.55874 -2.683901 0.795609 -3 0 -3 
C -0.795609 -3 -1.55874 -2.683901 -2.12132 -2.12132 
C -2.683901 -1.55874 -3 -0.795609 -3 0 
C -3 0.795609 -2.683901 1.55874 -2.12132 2.12132 
C -1.55874 2.683901 -0.795609 3 0 3 
z
" style="stroke: #1f77b4"/>
    </defs>
    <g clip-path="url(#p844188780e)">
     <use xlink:href="#m031c48c41e" x="38.482813" y="155.65898" style="fill: #1f77b4; stroke: #1f77b4"/>
     <use xlink:href="#m031c48c41e" x="157.522813" y="155.65898" style="fill: #1f77b4; stroke: #1f77b4"/>
     <use xlink:href="#m031c48c41e" x="157.522813" y="36.61898" style="fill: #1f77b4; stroke: #1f77b4"/>
     <use xlink:href="#m031c48c41e" x="276.562813" y="36.61898" style="fill: #1f77b4; stroke: #1f77b4"/>
     <use xlink:href="#m031c48c41e" x="276.562813" y="155.65898" style="fill: #1f77b4; stroke: #1f77b4"/>
     <use xlink:href="#m031c48c41e" x="395.602813" y="155.65898" style="fill: #1f77b4; stroke: #1f77b4"/>
    </g>
   </g>
   <g id="matplotlib.axis_1">
    <g id="xtick_1">
     <g id="line2d_1">
      <defs>
       <path id="m0d9aceb876" d="M 0 0 
L 0 3.5 
" style="stroke: #000000; stroke-width: 0.8"/>
      </defs>
      <g>
       <use xlink:href="#m0d9aceb876" x="38.482813" y="204.297558" style="stroke: #000000; stroke-width: 0.8"/>
      </g>
     </g>
     <g id="text_1">
      <!-- 0.0 -->
      <g transform="translate(30.53125 218.895995)scale(0.1 -0.1)">
       <defs>
        <path id="DejaVuSans-30" d="M 2034 4250 
Q 1547 4250 1301 3770 
Q 1056 3291 1056 2328 
Q 1056 1369 1301 889 
Q 1547 409 2034 409 
Q 2525 409 2770 889 
Q 3016 1369 3016 2328 
Q 3016 3291 2770 3770 
Q 2525 4250 2034 4250 
z
M 2034 4750 
Q 2819 4750 3233 4129 
Q 3647 3509 3647 2328 
Q 3647 1150 3233 529 
Q 2819 -91 2034 -91 
Q 1250 -91 836 529 
Q 422 1150 422 2328 
Q 422 3509 836 4129 
Q 1250 4750 2034 4750 
z
" transform="scale(0.015625)"/>
        <path id="DejaVuSans-2e" d="M 684 794 
L 1344 794 
L 1344 0 
L 684 0 
L 684 794 
z
" transform="scale(0.015625)"/>
       </defs>
       <use xlink:href="#DejaVuSans-30"/>
       <use xlink:href="#DejaVuSans-2e" x="63.623047"/>
       <use xlink:href="#DejaVuSans-30" x="95.410156"/>
      </g>
     </g>
    </g>
    <g id="xtick_2">
     <g id="line2d_2">
      <g>
       <use xlink:href="#m0d9aceb876" x="98.002813" y="204.297558" style="stroke: #000000; stroke-width: 0.8"/>
      </g>
     </g>
     <g id="text_2">
      <!-- 0.5 -->
      <g transform="translate(90.05125 218.895995)scale(0.1 -0.1)">
       <defs>
        <path id="DejaVuSans-35" d="M 691 4666 
L 3169 4666 
L 3169 4134 
L 1269 4134 
L 1269 2991 
Q 1406 3038 1543 3061 
Q 1681 3084 1819 3084 
Q 2600 3084 3056 2656 
Q 3513 2228 3513 1497 
Q 3513 744 3044 326 
Q 2575 -91 1722 -91 
Q 1428 -91 1123 -41 
Q 819 9 494 109 
L 494 744 
Q 775 591 1075 516 
Q 1375 441 1709 441 
Q 2250 441 2565 725 
Q 2881 1009 2881 1497 
Q 2881 1984 2565 2268 
Q 2250 2553 1709 2553 
Q 1456 2553 1204 2497 
Q 953 2441 691 2322 
L 691 4666 
z
" transform="scale(0.015625)"/>
       </defs>
       <use xlink:href="#DejaVuSans-30"/>
       <use xlink:href="#DejaVuSans-2e" x="63.623047"/>
       <use xlink:href="#DejaVuSans-35" x="95.410156"/>
      </g>
     </g>
    </g>
    <g id="xtick_3">
     <g id="line2d_3">
      <g>
       <use xlink:href="#m0d9aceb876" x="157.522813" y="204.297558" style="stroke: #000000; stroke-width: 0.8"/>
      </g>
     </g>
     <g id="text_3">
      <!-- 1.0 -->
      <g transform="translate(149.57125 218.895995)scale(0.1 -0.1)">
       <defs>
        <path id="DejaVuSans-31" d="M 794 531 
L 1825 531 
L 1825 4091 
L 703 3866 
L 703 4441 
L 1819 4666 
L 2450 4666 
L 2450 531 
L 3481 531 
L 3481 0 
L 794 0 
L 794 531 
z
" transform="scale(0.015625)"/>
       </defs>
       <use xlink:href="#DejaVuSans-31"/>
       <use xlink:href="#DejaVuSans-2e" x="63.623047"/>
       <use xlink:href="#DejaVuSans-30" x="95.410156"/>
      </g>
     </g>
    </g>
    <g id="xtick_4">
     <g id="line2d_4">
      <g>
       <use xlink:href="#m0d9aceb876" x="217.042813" y="204.297558" style="stroke: #000000; stroke-width: 0.8"/>
      </g>
     </g>
     <g id="text_4">
      <!-- 1.5 -->
      <g transform="translate(209.09125 218.895995)scale(0.1 -0.1)">
       <use xlink:href="#DejaVuSans-31"/>
       <use xlink:href="#DejaVuSans-2e" x="63.623047"/>
       <use xlink:href="#DejaVuSans-35" x="95.410156"/>
      </g>
     </g>
    </g>
    <g id="xtick_5">
     <g id="line2d_5">
      <g>
       <use xlink:href="#m0d9aceb876" x="276.562813" y="204.297558" style="stroke: #000000; stroke-width: 0.8"/>
      </g>
     </g>
     <g id="text_5">
      <!-- 2.0 -->
      <g transform="translate(268.61125 218.895995)scale(0.1 -0.1)">
       <defs>
        <path id="DejaVuSans-32" d="M 1228 531 
L 3431 531 
L 3431 0 
L 469 0 
L 469 531 
Q 828 903 1448 1529 
Q 2069 2156 2228 2338 
Q 2531 2678 2651 2914 
Q 2772 3150 2772 3378 
Q 2772 3750 2511 3984 
Q 2250 4219 1831 4219 
Q 1534 4219 1204 4116 
Q 875 4013 500 3803 
L 500 4441 
Q 881 4594 1212 4672 
Q 1544 4750 1819 4750 
Q 2544 4750 2975 4387 
Q 3406 4025 3406 3419 
Q 3406 3131 3298 2873 
Q 3191 2616 2906 2266 
Q 2828 2175 2409 1742 
Q 1991 1309 1228 531 
z
" transform="scale(0.015625)"/>
       </defs>
       <use xlink:href="#DejaVuSans-32"/>
       <use xlink:href="#DejaVuSans-2e" x="63.623047"/>
       <use xlink:href="#DejaVuSans-30" x="95.410156"/>
      </g>
     </g>
    </g>
    <g id="xtick_6">
     <g id="line2d_6">
      <g>
       <use xlink:href="#m0d9aceb876" x="336.082813" y="204.297558" style="stroke: #000000; stroke-width: 0.8"/>
      </g>
     </g>
     <g id="text_6">
      <!-- 2.5 -->
      <g transform="translate(328.13125 218.895995)scale(0.1 -0.1)">
       <use xlink:href="#DejaVuSans-32"/>
       <use xlink:href="#DejaVuSans-2e" x="63.623047"/>
       <use xlink:href="#DejaVuSans-35" x="95.410156"/>
      </g>
     </g>
    </g>
    <g id="xtick_7">
     <g id="line2d_7">
      <g>
       <use xlink:href="#m0d9aceb876" x="395.602813" y="204.297558" style="stroke: #000000; stroke-width: 0.8"/>
      </g>
     </g>
     <g id="text_7">
      <!-- 3.0 -->
      <g transform="translate(387.65125 218.895995)scale(0.1 -0.1)">
       <defs>
        <path id="DejaVuSans-33" d="M 2597 2516 
Q 3050 2419 3304 2112 
Q 3559 1806 3559 1356 
Q 3559 666 3084 287 
Q 2609 -91 1734 -91 
Q 1441 -91 1130 -33 
Q 819 25 488 141 
L 488 750 
Q 750 597 1062 519 
Q 1375 441 1716 441 
Q 2309 441 2620 675 
Q 2931 909 2931 1356 
Q 2931 1769 2642 2001 
Q 2353 2234 1838 2234 
L 1294 2234 
L 1294 2753 
L 1863 2753 
Q 2328 2753 2575 2939 
Q 2822 3125 2822 3475 
Q 2822 3834 2567 4026 
Q 2313 4219 1838 4219 
Q 1578 4219 1281 4162 
Q 984 4106 628 3988 
L 628 4550 
Q 988 4650 1302 4700 
Q 1616 4750 1894 4750 
Q 2613 4750 3031 4423 
Q 3450 4097 3450 3541 
Q 3450 3153 3228 2886 
Q 3006 2619 2597 2516 
z
" transform="scale(0.015625)"/>
       </defs>
       <use xlink:href="#DejaVuSans-33"/>
       <use xlink:href="#DejaVuSans-2e" x="63.623047"/>
       <use xlink:href="#DejaVuSans-30" x="95.410156"/>
      </g>
     </g>
    </g>
   </g>
   <g id="matplotlib.axis_2">
    <g id="ytick_1">
     <g id="line2d_8">
      <defs>
       <path id="mdeefad6cb6" d="M 0 0 
L -3.5 0 
" style="stroke: #000000; stroke-width: 0.8"/>
      </defs>
      <g>
       <use xlink:href="#mdeefad6cb6" x="38.482813" y="203.27498" style="stroke: #000000; stroke-width: 0.8"/>
      </g>
     </g>
     <g id="text_8">
      <!-- −0.4 -->
      <g transform="translate(7.2 207.074199)scale(0.1 -0.1)">
       <defs>
        <path id="DejaVuSans-2212" d="M 678 2272 
L 4684 2272 
L 4684 1741 
L 678 1741 
L 678 2272 
z
" transform="scale(0.015625)"/>
        <path id="DejaVuSans-34" d="M 2419 4116 
L 825 1625 
L 2419 1625 
L 2419 4116 
z
M 2253 4666 
L 3047 4666 
L 3047 1625 
L 3713 1625 
L 3713 1100 
L 3047 1100 
L 3047 0 
L 2419 0 
L 2419 1100 
L 313 1100 
L 313 1709 
L 2253 4666 
z
" transform="scale(0.015625)"/>
       </defs>
       <use xlink:href="#DejaVuSans-2212"/>
       <use xlink:href="#DejaVuSans-30" x="83.789062"/>
       <use xlink:href="#DejaVuSans-2e" x="147.412109"/>
       <use xlink:href="#DejaVuSans-34" x="179.199219"/>
      </g>
     </g>
    </g>
    <g id="ytick_2">
     <g id="line2d_9">
      <g>
       <use xlink:href="#mdeefad6cb6" x="38.482813" y="179.46698" style="stroke: #000000; stroke-width: 0.8"/>
      </g>
     </g>
     <g id="text_9">
      <!-- −0.2 -->
      <g transform="translate(7.2 183.266199)scale(0.1 -0.1)">
       <use xlink:href="#DejaVuSans-2212"/>
       <use xlink:href="#DejaVuSans-30" x="83.789062"/>
       <use xlink:href="#DejaVuSans-2e" x="147.412109"/>
       <use xlink:href="#DejaVuSans-32" x="179.199219"/>
      </g>
     </g>
    </g>
    <g id="ytick_3">
     <g id="line2d_10">
      <g>
       <use xlink:href="#mdeefad6cb6" x="38.482813" y="155.65898" style="stroke: #000000; stroke-width: 0.8"/>
      </g>
     </g>
     <g id="text_10">
      <!-- 0.0 -->
      <g transform="translate(15.579688 159.458199)scale(0.1 -0.1)">
       <use xlink:href="#DejaVuSans-30"/>
       <use xlink:href="#DejaVuSans-2e" x="63.623047"/>
       <use xlink:href="#DejaVuSans-30" x="95.410156"/>
      </g>
     </g>
    </g>
    <g id="ytick_4">
     <g id="line2d_11">
      <g>
       <use xlink:href="#mdeefad6cb6" x="38.482813" y="131.85098" style="stroke: #000000; stroke-width: 0.8"/>
      </g>
     </g>
     <g id="text_11">
      <!-- 0.2 -->
      <g transform="translate(15.579688 135.650199)scale(0.1 -0.1)">
       <use xlink:href="#DejaVuSans-30"/>
       <use xlink:href="#DejaVuSans-2e" x="63.623047"/>
       <use xlink:href="#DejaVuSans-32" x="95.410156"/>
      </g>
     </g>
    </g>
    <g id="ytick_5">
     <g id="line2d_12">
      <g>
       <use xlink:href="#mdeefad6cb6" x="38.482813" y="108.04298" style="stroke: #000000; stroke-width: 0.8"/>
      </g>
     </g>
     <g id="text_12">
      <!-- 0.4 -->
      <g transform="translate(15.579688 111.842199)scale(0.1 -0.1)">
       <use xlink:href="#DejaVuSans-30"/>
       <use xlink:href="#DejaVuSans-2e" x="63.623047"/>
       <use xlink:href="#DejaVuSans-34" x="95.410156"/>
      </g>
     </g>
    </g>
    <g id="ytick_6">
     <g id="line2d_13">
      <g>
       <use xlink:href="#mdeefad6cb6" x="38.482813" y="84.23498" style="stroke: #000000; stroke-width: 0.8"/>
      </g>
     </g>
     <g id="text_13">
      <!-- 0.6 -->
      <g transform="translate(15.579688 88.034199)scale(0.1 -0.1)">
       <defs>
        <path id="DejaVuSans-36" d="M 2113 2584 
Q 1688 2584 1439 2293 
Q 1191 2003 1191 1497 
Q 1191 994 1439 701 
Q 1688 409 2113 409 
Q 2538 409 2786 701 
Q 3034 994 3034 1497 
Q 3034 2003 2786 2293 
Q 2538 2584 2113 2584 
z
M 3366 4563 
L 3366 3988 
Q 3128 4100 2886 4159 
Q 2644 4219 2406 4219 
Q 1781 4219 1451 3797 
Q 1122 3375 1075 2522 
Q 1259 2794 1537 2939 
Q 1816 3084 2150 3084 
Q 2853 3084 3261 2657 
Q 3669 2231 3669 1497 
Q 3669 778 3244 343 
Q 2819 -91 2113 -91 
Q 1303 -91 875 529 
Q 447 1150 447 2328 
Q 447 3434 972 4092 
Q 1497 4750 2381 4750 
Q 2619 4750 2861 4703 
Q 3103 4656 3366 4563 
z
" transform="scale(0.015625)"/>
       </defs>
       <use xlink:href="#DejaVuSans-30"/>
       <use xlink:href="#DejaVuSans-2e" x="63.623047"/>
       <use xlink:href="#DejaVuSans-36" x="95.410156"/>
      </g>
     </g>
    </g>
    <g id="ytick_7">
     <g id="line2d_14">
      <g>
       <use xlink:href="#mdeefad6cb6" x="38.482813" y="60.42698" style="stroke: #000000; stroke-width: 0.8"/>
      </g>
     </g>
     <g id="text_14">
      <!-- 0.8 -->
      <g transform="translate(15.579688 64.226199)scale(0.1 -0.1)">
       <defs>
        <path id="DejaVuSans-38" d="M 2034 2216 
Q 1584 2216 1326 1975 
Q 1069 1734 1069 1313 
Q 1069 891 1326 650 
Q 1584 409 2034 409 
Q 2484 409 2743 651 
Q 3003 894 3003 1313 
Q 3003 1734 2745 1975 
Q 2488 2216 2034 2216 
z
M 1403 2484 
Q 997 2584 770 2862 
Q 544 3141 544 3541 
Q 544 4100 942 4425 
Q 1341 4750 2034 4750 
Q 2731 4750 3128 4425 
Q 3525 4100 3525 3541 
Q 3525 3141 3298 2862 
Q 3072 2584 2669 2484 
Q 3125 2378 3379 2068 
Q 3634 1759 3634 1313 
Q 3634 634 3220 271 
Q 2806 -91 2034 -91 
Q 1263 -91 848 271 
Q 434 634 434 1313 
Q 434 1759 690 2068 
Q 947 2378 1403 2484 
z
M 1172 3481 
Q 1172 3119 1398 2916 
Q 1625 2713 2034 2713 
Q 2441 2713 2670 2916 
Q 2900 3119 2900 3481 
Q 2900 3844 2670 4047 
Q 2441 4250 2034 4250 
Q 1625 4250 1398 4047 
Q 1172 3844 1172 3481 
z
" transform="scale(0.015625)"/>
       </defs>
       <use xlink:href="#DejaVuSans-30"/>
       <use xlink:href="#DejaVuSans-2e" x="63.623047"/>
       <use xlink:href="#DejaVuSans-38" x="95.410156"/>
      </g>
     </g>
    </g>
    <g id="ytick_8">
     <g id="line2d_15">
      <g>
       <use xlink:href="#mdeefad6cb6" x="38.482813" y="36.61898" style="stroke: #000000; stroke-width: 0.8"/>
      </g>
     </g>
     <g id="text_15">
      <!-- 1.0 -->
      <g transform="translate(15.579688 40.418199)scale(0.1 -0.1)">
       <use xlink:href="#DejaVuSans-31"/>
       <use xlink:href="#DejaVuSans-2e" x="63.623047"/>
       <use xlink:href="#DejaVuSans-30" x="95.410156"/>
      </g>
     </g>
    </g>
    <g id="ytick_9">
     <g id="line2d_16">
      <g>
       <use xlink:href="#mdeefad6cb6" x="38.482813" y="12.81098" style="stroke: #000000; stroke-width: 0.8"/>
      </g>
     </g>
     <g id="text_16">
      <!-- 1.2 -->
      <g transform="translate(15.579688 16.610199)scale(0.1 -0.1)">
       <use xlink:href="#DejaVuSans-31"/>
       <use xlink:href="#DejaVuSans-2e" x="63.623047"/>
       <use xlink:href="#DejaVuSans-32" x="95.410156"/>
      </g>
     </g>
    </g>
   </g>
   <g id="line2d_17">
    <path d="M 44.590067 161.741242 
L 51.654653 160.47037 
L 58.543179 159.023711 
L 65.248014 157.393908 
L 71.762694 155.574881 
L 78.082138 153.562063 
L 84.202836 151.352627 
L 90.123026 148.945699 
L 95.842843 146.34256 
L 101.364434 143.54681 
L 106.692031 140.564507 
L 111.831979 137.404262 
L 116.792711 134.0773 
L 121.584675 130.597469 
L 126.870446 126.454528 
L 131.973041 122.161994 
L 137.52388 117.194746 
L 144.086976 110.998666 
L 155.61318 99.713114 
L 163.552784 92.109296 
L 169.240261 86.986774 
L 173.82886 83.143305 
L 177.884648 80.004032 
L 181.985886 77.103433 
L 186.136905 74.468223 
L 189.735851 72.439436 
L 193.372072 70.637873 
L 197.043639 69.07618 
L 200.747332 67.765406 
L 204.478772 66.714886 
L 207.605651 66.043742 
L 210.744541 65.561938 
L 213.891608 65.271886 
L 217.042813 65.17504 
L 220.194017 65.271886 
L 223.341084 65.561938 
L 226.479974 66.043742 
L 229.606853 66.714886 
L 233.338293 67.765406 
L 237.041986 69.07618 
L 240.713553 70.637873 
L 244.349774 72.439436 
L 247.94872 74.468223 
L 251.509852 76.710128 
L 255.617998 79.574405 
L 259.679913 82.681286 
L 264.27408 86.492828 
L 269.398174 91.060324 
L 275.633846 96.952565 
L 299.006112 119.417497 
L 304.642404 124.325017 
L 309.833786 128.546578 
L 314.534733 132.106548 
L 319.397622 135.522727 
L 324.433997 138.779781 
L 329.653454 141.864987 
L 335.063538 144.768243 
L 339.856656 147.106171 
L 344.796048 149.301613 
L 349.882789 151.352627 
L 356.003487 153.562063 
L 362.322931 155.574881 
L 368.837611 157.393908 
L 375.542446 159.023711 
L 382.430972 160.47037 
L 389.495558 161.741242 
L 389.495558 161.741242 
" clip-path="url(#p844188780e)" style="fill: none; stroke: #ff7f0e; stroke-width: 1.5; stroke-linecap: square"/>
   </g>
   <g id="line2d_18">
    <path d="M 39.142356 156.346578 
L 47.026014 158.252776 
L 54.571482 159.815674 
L 61.780836 161.036675 
L 67.308046 161.768542 
L 72.62339 162.28396 
L 77.728718 162.584338 
L 82.626151 162.671327 
L 87.318098 162.54684 
L 91.807278 162.213066 
L 96.09674 161.672493 
L 100.189876 160.927925 
L 104.090445 159.982504 
L 107.802586 158.839725 
L 111.330841 157.503461 
L 114.680165 155.977976 
L 117.855942 154.267947 
L 120.863998 152.378479 
L 123.710609 150.315123 
L 126.402509 148.083883 
L 128.94689 145.691236 
L 131.351405 143.144136 
L 133.624158 140.450018 
L 136.29287 136.88774 
L 138.78671 133.124694 
L 141.12427 129.178574 
L 143.32501 125.068199 
L 145.813808 119.947005 
L 148.553394 113.758058 
L 151.906573 105.555746 
L 160.813751 83.332358 
L 163.631195 77.035696 
L 166.191034 71.79822 
L 168.909332 66.75079 
L 171.309363 62.717945 
L 173.840944 58.865831 
L 176.509908 55.21514 
L 179.319465 51.785492 
L 182.270129 48.595322 
L 184.730862 46.227184 
L 187.278152 44.031475 
L 189.908523 42.015762 
L 192.617438 40.186996 
L 195.399356 38.55149 
L 198.247786 37.114893 
L 201.155373 35.882176 
L 204.113978 34.857604 
L 207.114788 34.044728 
L 210.148428 33.446367 
L 213.205081 33.064598 
L 216.27462 32.900745 
L 219.346744 32.955378 
L 222.41112 33.228308 
L 225.457516 33.718586 
L 228.475943 34.424511 
L 231.456791 35.343633 
L 234.390949 36.472766 
L 237.269928 37.808001 
L 240.085969 39.344716 
L 242.832139 41.077601 
L 245.502413 43.00067 
L 248.091745 45.107289 
L 250.596124 47.390196 
L 253.012614 49.841525 
L 255.906948 53.129619 
L 258.660054 56.649965 
L 261.27353 60.383641 
L 263.751648 64.310588 
L 266.101259 68.409711 
L 268.764415 73.524897 
L 271.276398 78.816809 
L 274.049015 85.159635 
L 277.434475 93.479866 
L 285.91483 114.654222 
L 288.676476 120.813456 
L 291.190778 125.902475 
L 293.417287 129.981557 
L 295.784572 133.892532 
L 298.31193 137.616803 
L 301.017763 141.136905 
L 303.322672 143.794993 
L 305.761411 146.304158 
L 308.341973 148.657086 
L 311.071894 150.846943 
L 313.958253 152.867373 
L 317.007668 154.712483 
L 320.226303 156.376838 
L 323.619872 157.85544 
L 327.19365 159.143717 
L 330.952489 160.237504 
L 334.900826 161.133026 
L 339.042706 161.826875 
L 343.381793 162.315999 
L 347.921393 162.597673 
L 352.664469 162.669485 
L 357.613661 162.529317 
L 362.771305 162.175324 
L 368.139453 161.605917 
L 373.719887 160.819744 
L 379.514143 159.815674 
L 387.059611 158.252776 
L 394.943269 156.346578 
L 394.943269 156.346578 
" clip-path="url(#p844188780e)" style="fill: none; stroke: #2ca02c; stroke-width: 1.5; stroke-linecap: square"/>
   </g>
   <g id="line2d_19">
    <path d="M 38.503427 155.669617 
L 48.155525 160.74672 
L 57.25423 165.268613 
L 65.816358 169.251306 
L 73.85882 172.710853 
L 81.398623 175.663361 
L 88.452868 178.124986 
L 93.435248 179.65881 
L 98.161463 180.932485 
L 102.638833 181.952884 
L 106.87471 182.726895 
L 110.876469 183.261423 
L 114.65152 183.563392 
L 118.207295 183.639739 
L 121.551257 183.49742 
L 124.690893 183.143404 
L 127.633717 182.584679 
L 130.387263 181.828246 
L 132.959092 180.881125 
L 135.356783 179.750349 
L 137.587933 178.442965 
L 139.660159 176.966035 
L 141.581091 175.326637 
L 143.35837 173.531858 
L 144.999648 171.588802 
L 146.512582 169.504582 
L 147.904832 167.286322 
L 149.586673 164.132467 
L 151.085714 160.769935 
L 152.420054 157.215679 
L 153.607724 153.486666 
L 154.91338 148.6055 
L 156.052659 143.510921 
L 157.248512 137.16229 
L 158.647802 128.3919 
L 162.941537 100.124646 
L 164.464183 92.352304 
L 165.977276 85.858431 
L 167.410293 80.602444 
L 169.016822 75.516367 
L 170.80958 70.625508 
L 172.797975 65.95372 
L 174.533684 62.389054 
L 176.399943 58.989546 
L 178.39676 55.765147 
L 180.522719 52.725093 
L 182.775013 49.877894 
L 185.149486 47.231333 
L 187.640702 44.792469 
L 190.242019 42.567648 
L 192.94568 40.562515 
L 195.742909 38.782041 
L 198.624016 37.230535 
L 201.578511 35.911672 
L 204.595213 34.828515 
L 207.662368 33.983536 
L 210.767761 33.378636 
L 213.898838 33.015162 
L 217.042812 32.893915 
L 220.186787 33.015162 
L 223.317864 33.378636 
L 226.423257 33.983536 
L 229.490412 34.828515 
L 232.507114 35.911672 
L 235.461609 37.230535 
L 238.342716 38.782041 
L 241.139945 40.562515 
L 243.843606 42.567648 
L 246.444923 44.792469 
L 248.936139 47.231333 
L 251.310612 49.877894 
L 253.562906 52.725093 
L 255.688865 55.765147 
L 257.685682 58.989546 
L 259.551941 62.389054 
L 261.28765 65.95372 
L 262.894258 69.672888 
L 264.725499 74.521793 
L 266.368361 79.570806 
L 267.834909 84.794901 
L 269.383692 91.257689 
L 270.732567 97.886657 
L 272.103778 105.763591 
L 273.815105 117.12602 
L 276.47063 134.998226 
L 277.822044 142.469308 
L 279.172245 148.6055 
L 280.477901 153.486666 
L 281.665571 157.215679 
L 282.999911 160.769935 
L 284.498952 164.132467 
L 286.180793 167.286322 
L 287.573043 169.504582 
L 289.085977 171.588802 
L 290.727255 173.531858 
L 292.504534 175.326637 
L 294.425466 176.966035 
L 296.497692 178.442965 
L 298.728842 179.750349 
L 301.126533 180.881125 
L 303.698362 181.828246 
L 306.451908 182.584679 
L 309.394732 183.143404 
L 312.534368 183.49742 
L 315.87833 183.639739 
L 319.434105 183.563392 
L 323.209156 183.261423 
L 327.210915 182.726895 
L 331.446792 181.952884 
L 335.924162 180.932485 
L 340.650377 179.65881 
L 345.632757 178.124986 
L 350.87859 176.324155 
L 358.295397 173.495884 
L 366.210596 170.164609 
L 374.641218 166.31421 
L 383.604198 161.928619 
L 393.116376 156.991817 
L 395.582198 155.669617 
L 395.582198 155.669617 
" clip-path="url(#p844188780e)" style="fill: none; stroke: #d62728; stroke-width: 1.5; stroke-linecap: square"/>
   </g>
   <g id="line2d_20">
    <path d="M 38.482984 155.65898 
L 52.747397 163.141015 
L 65.811187 169.740212 
L 77.734365 175.493748 
L 88.575726 180.438194 
L 98.392851 184.609508 
L 105.117488 187.251914 
L 111.321044 189.494019 
L 117.026454 191.350318 
L 122.256263 192.835115 
L 127.032628 193.962518 
L 131.377311 194.746445 
L 135.311683 195.20062 
L 138.85672 195.338574 
L 142.033002 195.173645 
L 144.860712 194.71898 
L 146.561988 194.261309 
L 148.122909 193.684418 
L 149.549158 192.992057 
L 150.846343 192.187942 
L 152.019987 191.275748 
L 153.075539 190.259113 
L 154.449158 188.546198 
L 155.586897 186.61837 
L 156.506123 184.487424 
L 157.223798 182.164964 
L 157.756473 179.6624 
L 158.120289 176.990948 
L 158.369838 173.185325 
L 158.383259 169.124632 
L 158.19539 164.833859 
L 157.728441 159.183925 
L 156.909871 152.044739 
L 155.364082 140.760733 
L 153.024523 123.69023 
L 151.969291 114.333473 
L 151.291771 106.320676 
L 150.935793 99.693851 
L 150.804783 93.147781 
L 150.928463 86.713563 
L 151.228684 81.666672 
L 151.720964 76.724822 
L 152.415995 71.901878 
L 153.32309 67.211097 
L 154.450156 62.665126 
L 155.803647 58.276002 
L 157.388525 54.055154 
L 159.208198 50.013398 
L 160.728175 47.105775 
L 162.381394 44.30873 
L 164.167428 41.62615 
L 166.085275 39.061732 
L 168.133331 36.61898 
L 170.309374 34.301204 
L 172.610542 32.111521 
L 175.033316 30.052856 
L 177.573506 28.127942 
L 180.226238 26.339318 
L 182.98595 24.689329 
L 185.846396 23.18013 
L 188.800652 21.81368 
L 192.872389 20.21683 
L 197.077646 18.880534 
L 201.394907 17.807841 
L 205.80106 17.001188 
L 210.27169 16.462403 
L 214.781406 16.192706 
L 219.304219 16.192706 
L 223.813935 16.462403 
L 228.284565 17.001188 
L 232.690718 17.807841 
L 237.007979 18.880534 
L 241.213236 20.21683 
L 245.284973 21.81368 
L 248.239229 23.18013 
L 251.099675 24.689329 
L 253.859387 26.339318 
L 256.512119 28.127942 
L 259.052309 30.052856 
L 261.475083 32.111521 
L 263.776251 34.301204 
L 265.952294 36.61898 
L 268.00035 39.061732 
L 269.918197 41.62615 
L 271.704231 44.30873 
L 273.35745 47.105775 
L 274.877427 50.013398 
L 276.6971 54.055154 
L 278.281978 58.276002 
L 279.635469 62.665126 
L 280.762535 67.211097 
L 281.66963 71.901878 
L 282.364661 76.724822 
L 282.856941 81.666672 
L 283.157162 86.713563 
L 283.280842 93.147781 
L 283.149832 99.693851 
L 282.793854 106.320676 
L 282.116334 114.333473 
L 281.061102 123.69023 
L 279.45918 135.580113 
L 276.877373 154.463679 
L 276.143015 161.479478 
L 275.773266 167.006468 
L 275.681768 171.185286 
L 275.808817 175.121606 
L 276.189903 178.790133 
L 276.664519 181.35023 
L 277.318708 183.733983 
L 278.168886 185.930046 
L 279.231878 187.926881 
L 280.524916 189.712757 
L 281.523438 190.78026 
L 282.63736 191.745127 
L 283.872089 192.603738 
L 285.23311 193.352438 
L 286.725989 193.987531 
L 288.356372 194.505283 
L 290.129982 194.901924 
L 292.052623 195.173645 
L 295.228905 195.338574 
L 298.773942 195.20062 
L 302.708314 194.746445 
L 307.052997 193.962518 
L 311.829362 192.835115 
L 317.059171 191.350318 
L 322.764581 189.494019 
L 328.968137 187.251914 
L 335.692774 184.609508 
L 342.961818 181.552112 
L 350.79898 178.064846 
L 362.173976 172.720388 
L 374.660034 166.548631 
L 388.316559 159.5127 
L 395.602641 155.65898 
L 395.602641 155.65898 
" clip-path="url(#p844188780e)" style="fill: none; stroke: #9467bd; stroke-width: 1.5; stroke-linecap: square"/>
   </g>
   <g id="line2d_21">
    <path d="M 38.482813 155.65898 
L 83.434545 171.256438 
L 107.163915 179.275958 
L 123.559272 184.609508 
L 137.179063 188.79023 
L 146.253978 191.350318 
L 153.850098 193.249935 
L 158.65111 194.261309 
L 162.739838 194.933803 
L 166.164697 195.281077 
L 168.972474 195.316598 
L 171.208352 195.053639 
L 172.402813 194.71898 
L 173.375039 194.261309 
L 174.137261 193.684418 
L 174.701405 192.992057 
L 175.079099 192.187942 
L 175.281676 191.275748 
L 175.320176 190.259113 
L 175.093719 188.546198 
L 174.557289 186.61837 
L 173.744535 184.487424 
L 172.286562 181.35023 
L 169.963921 176.990948 
L 166.013267 170.162341 
L 156.848371 154.463679 
L 152.840307 147.103317 
L 149.621649 140.760733 
L 146.591551 134.272876 
L 144.346968 129.005142 
L 142.294063 123.69023 
L 140.459143 118.347491 
L 138.865471 112.995667 
L 137.533356 107.65289 
L 136.480259 102.336682 
L 135.720882 97.063958 
L 135.351447 93.147781 
L 135.158192 89.271899 
L 135.144461 85.442774 
L 135.312838 81.666672 
L 135.665164 77.949668 
L 136.202563 74.297644 
L 136.925465 70.716288 
L 137.833629 67.211097 
L 138.926166 63.787374 
L 140.201562 60.45023 
L 141.657703 57.204581 
L 143.291893 54.055154 
L 145.100883 51.006478 
L 147.080892 48.062894 
L 149.227629 45.228548 
L 151.536317 42.507393 
L 154.001716 39.903189 
L 156.618148 37.419504 
L 159.379516 35.059713 
L 162.279331 32.826998 
L 165.310734 30.724348 
L 168.466517 28.754559 
L 171.739152 26.920234 
L 175.120805 25.223785 
L 178.603368 23.667428 
L 183.389267 21.81368 
L 188.319212 20.21683 
L 193.372114 18.880534 
L 198.526349 17.807841 
L 203.759853 17.001188 
L 209.050223 16.462403 
L 214.374809 16.192706 
L 219.710816 16.192706 
L 225.035402 16.462403 
L 230.325772 17.001188 
L 235.559276 17.807841 
L 240.713511 18.880534 
L 245.766413 20.21683 
L 250.696358 21.81368 
L 255.482257 23.667428 
L 258.96482 25.223785 
L 262.346473 26.920234 
L 265.619108 28.754559 
L 268.774891 30.724348 
L 271.806294 32.826998 
L 274.706109 35.059713 
L 277.467477 37.419504 
L 280.083909 39.903189 
L 282.549308 42.507393 
L 284.857996 45.228548 
L 287.004733 48.062894 
L 288.984742 51.006478 
L 290.793732 54.055154 
L 292.427922 57.204581 
L 293.884063 60.45023 
L 295.159459 63.787374 
L 296.251996 67.211097 
L 297.16016 70.716288 
L 297.883062 74.297644 
L 298.420461 77.949668 
L 298.772787 81.666672 
L 298.941163 85.442774 
L 298.927433 89.271899 
L 298.734178 93.147781 
L 298.364743 97.063958 
L 297.605366 102.336682 
L 296.552269 107.65289 
L 295.220154 112.995667 
L 293.626482 118.347491 
L 291.791563 123.69023 
L 289.738657 129.005142 
L 287.494074 134.272876 
L 284.463976 140.760733 
L 281.245318 147.103317 
L 277.237254 154.463679 
L 271.883165 163.728086 
L 263.61848 177.899513 
L 261.39792 182.164964 
L 260.041486 185.219587 
L 259.317197 187.284127 
L 258.880273 189.141636 
L 258.764867 190.780259 
L 258.884049 191.745126 
L 259.172791 192.60374 
L 259.642283 193.352441 
L 260.303985 193.987533 
L 261.169707 194.505285 
L 262.251485 194.901922 
L 263.56176 195.173649 
L 265.113145 195.316597 
L 267.920934 195.281076 
L 271.345783 194.9338 
L 275.434483 194.261301 
L 280.235538 193.249939 
L 285.799052 191.885854 
L 294.49216 189.494 
L 304.760411 186.4163 
L 320.013004 181.552102 
L 338.206043 175.493778 
L 364.321264 166.548619 
L 395.602812 155.65898 
L 395.602812 155.65898 
" clip-path="url(#p844188780e)" style="fill: none; stroke: #8c564b; stroke-width: 1.5; stroke-linecap: square"/>
   </g>
   <g id="patch_3">
    <path d="M 38.482813 204.297558 
L 38.482813 7.2 
" style="fill: none; stroke: #000000; stroke-width: 0.8; stroke-linejoin: miter; stroke-linecap: square"/>
   </g>
   <g id="patch_4">
    <path d="M 395.602813 204.297558 
L 395.602813 7.2 
" style="fill: none; stroke: #000000; stroke-width: 0.8; stroke-linejoin: miter; stroke-linecap: square"/>
   </g>
   <g id="patch_5">
    <path d="M 38.482813 204.297558 
L 395.602813 204.297558 
" style="fill: none; stroke: #000000; stroke-width: 0.8; stroke-linejoin: miter; stroke-linecap: square"/>
   </g>
   <g id="patch_6">
    <path d="M 38.482813 7.2 
L 395.602813 7.2 
" style="fill: none; stroke: #000000; stroke-width: 0.8; stroke-linejoin: miter; stroke-linecap: square"/>
   </g>
   <g id="legend_1">
    <g id="patch_7">
     <path d="M 315.193438 103.26875 
L 388.602813 103.26875 
Q 390.602813 103.26875 390.602813 101.26875 
L 390.602813 14.2 
Q 390.602813 12.2 388.602813 12.2 
L 315.193438 12.2 
Q 313.193438 12.2 313.193438 14.2 
L 313.193438 101.26875 
Q 313.193438 103.26875 315.193438 103.26875 
z
" style="fill: #ffffff; opacity: 0.8; stroke: #cccccc; stroke-linejoin: miter"/>
    </g>
    <g id="PathCollection_2">
     <g>
      <use xlink:href="#m031c48c41e" x="327.193438" y="21.173438" style="fill: #1f77b4; stroke: #1f77b4"/>
     </g>
    </g>
    <g id="text_17">
     <!-- Y -->
     <g transform="translate(345.193438 23.798438)scale(0.1 -0.1)">
      <defs>
       <path id="DejaVuSans-59" d="M -13 4666 
L 666 4666 
L 1959 2747 
L 3244 4666 
L 3922 4666 
L 2272 2222 
L 2272 0 
L 1638 0 
L 1638 2222 
L -13 4666 
z
" transform="scale(0.015625)"/>
      </defs>
      <use xlink:href="#DejaVuSans-59"/>
     </g>
    </g>
    <g id="line2d_22">
     <path d="M 317.193438 34.976562 
L 327.193438 34.976562 
L 337.193438 34.976562 
" style="fill: none; stroke: #ff7f0e; stroke-width: 1.5; stroke-linecap: square"/>
    </g>
    <g id="text_18">
     <!-- order=1 -->
     <g transform="translate(345.193438 38.476562)scale(0.1 -0.1)">
      <defs>
       <path id="DejaVuSans-6f" d="M 1959 3097 
Q 1497 3097 1228 2736 
Q 959 2375 959 1747 
Q 959 1119 1226 758 
Q 1494 397 1959 397 
Q 2419 397 2687 759 
Q 2956 1122 2956 1747 
Q 2956 2369 2687 2733 
Q 2419 3097 1959 3097 
z
M 1959 3584 
Q 2709 3584 3137 3096 
Q 3566 2609 3566 1747 
Q 3566 888 3137 398 
Q 2709 -91 1959 -91 
Q 1206 -91 779 398 
Q 353 888 353 1747 
Q 353 2609 779 3096 
Q 1206 3584 1959 3584 
z
" transform="scale(0.015625)"/>
       <path id="DejaVuSans-72" d="M 2631 2963 
Q 2534 3019 2420 3045 
Q 2306 3072 2169 3072 
Q 1681 3072 1420 2755 
Q 1159 2438 1159 1844 
L 1159 0 
L 581 0 
L 581 3500 
L 1159 3500 
L 1159 2956 
Q 1341 3275 1631 3429 
Q 1922 3584 2338 3584 
Q 2397 3584 2469 3576 
Q 2541 3569 2628 3553 
L 2631 2963 
z
" transform="scale(0.015625)"/>
       <path id="DejaVuSans-64" d="M 2906 2969 
L 2906 4863 
L 3481 4863 
L 3481 0 
L 2906 0 
L 2906 525 
Q 2725 213 2448 61 
Q 2172 -91 1784 -91 
Q 1150 -91 751 415 
Q 353 922 353 1747 
Q 353 2572 751 3078 
Q 1150 3584 1784 3584 
Q 2172 3584 2448 3432 
Q 2725 3281 2906 2969 
z
M 947 1747 
Q 947 1113 1208 752 
Q 1469 391 1925 391 
Q 2381 391 2643 752 
Q 2906 1113 2906 1747 
Q 2906 2381 2643 2742 
Q 2381 3103 1925 3103 
Q 1469 3103 1208 2742 
Q 947 2381 947 1747 
z
" transform="scale(0.015625)"/>
       <path id="DejaVuSans-65" d="M 3597 1894 
L 3597 1613 
L 953 1613 
Q 991 1019 1311 708 
Q 1631 397 2203 397 
Q 2534 397 2845 478 
Q 3156 559 3463 722 
L 3463 178 
Q 3153 47 2828 -22 
Q 2503 -91 2169 -91 
Q 1331 -91 842 396 
Q 353 884 353 1716 
Q 353 2575 817 3079 
Q 1281 3584 2069 3584 
Q 2775 3584 3186 3129 
Q 3597 2675 3597 1894 
z
M 3022 2063 
Q 3016 2534 2758 2815 
Q 2500 3097 2075 3097 
Q 1594 3097 1305 2825 
Q 1016 2553 972 2059 
L 3022 2063 
z
" transform="scale(0.015625)"/>
       <path id="DejaVuSans-3d" d="M 678 2906 
L 4684 2906 
L 4684 2381 
L 678 2381 
L 678 2906 
z
M 678 1631 
L 4684 1631 
L 4684 1100 
L 678 1100 
L 678 1631 
z
" transform="scale(0.015625)"/>
      </defs>
      <use xlink:href="#DejaVuSans-6f"/>
      <use xlink:href="#DejaVuSans-72" x="61.181641"/>
      <use xlink:href="#DejaVuSans-64" x="100.544922"/>
      <use xlink:href="#DejaVuSans-65" x="164.021484"/>
      <use xlink:href="#DejaVuSans-72" x="225.544922"/>
      <use xlink:href="#DejaVuSans-3d" x="266.658203"/>
      <use xlink:href="#DejaVuSans-31" x="350.447266"/>
     </g>
    </g>
    <g id="line2d_23">
     <path d="M 317.193438 49.654687 
L 327.193438 49.654687 
L 337.193438 49.654687 
" style="fill: none; stroke: #2ca02c; stroke-width: 1.5; stroke-linecap: square"/>
    </g>
    <g id="text_19">
     <!-- order=2 -->
     <g transform="translate(345.193438 53.154687)scale(0.1 -0.1)">
      <use xlink:href="#DejaVuSans-6f"/>
      <use xlink:href="#DejaVuSans-72" x="61.181641"/>
      <use xlink:href="#DejaVuSans-64" x="100.544922"/>
      <use xlink:href="#DejaVuSans-65" x="164.021484"/>
      <use xlink:href="#DejaVuSans-72" x="225.544922"/>
      <use xlink:href="#DejaVuSans-3d" x="266.658203"/>
      <use xlink:href="#DejaVuSans-32" x="350.447266"/>
     </g>
    </g>
    <g id="line2d_24">
     <path d="M 317.193438 64.332813 
L 327.193438 64.332813 
L 337.193438 64.332813 
" style="fill: none; stroke: #d62728; stroke-width: 1.5; stroke-linecap: square"/>
    </g>
    <g id="text_20">
     <!-- order=3 -->
     <g transform="translate(345.193438 67.832813)scale(0.1 -0.1)">
      <use xlink:href="#DejaVuSans-6f"/>
      <use xlink:href="#DejaVuSans-72" x="61.181641"/>
      <use xlink:href="#DejaVuSans-64" x="100.544922"/>
      <use xlink:href="#DejaVuSans-65" x="164.021484"/>
      <use xlink:href="#DejaVuSans-72" x="225.544922"/>
      <use xlink:href="#DejaVuSans-3d" x="266.658203"/>
      <use xlink:href="#DejaVuSans-33" x="350.447266"/>
     </g>
    </g>
    <g id="line2d_25">
     <path d="M 317.193438 79.010938 
L 327.193438 79.010938 
L 337.193438 79.010938 
" style="fill: none; stroke: #9467bd; stroke-width: 1.5; stroke-linecap: square"/>
    </g>
    <g id="text_21">
     <!-- order=4 -->
     <g transform="translate(345.193438 82.510938)scale(0.1 -0.1)">
      <use xlink:href="#DejaVuSans-6f"/>
      <use xlink:href="#DejaVuSans-72" x="61.181641"/>
      <use xlink:href="#DejaVuSans-64" x="100.544922"/>
      <use xlink:href="#DejaVuSans-65" x="164.021484"/>
      <use xlink:href="#DejaVuSans-72" x="225.544922"/>
      <use xlink:href="#DejaVuSans-3d" x="266.658203"/>
      <use xlink:href="#DejaVuSans-34" x="350.447266"/>
     </g>
    </g>
    <g id="line2d_26">
     <path d="M 317.193438 93.689063 
L 327.193438 93.689063 
L 337.193438 93.689063 
" style="fill: none; stroke: #8c564b; stroke-width: 1.5; stroke-linecap: square"/>
    </g>
    <g id="text_22">
     <!-- order=5 -->
     <g transform="translate(345.193438 97.189063)scale(0.1 -0.1)">
      <use xlink:href="#DejaVuSans-6f"/>
      <use xlink:href="#DejaVuSans-72" x="61.181641"/>
      <use xlink:href="#DejaVuSans-64" x="100.544922"/>
      <use xlink:href="#DejaVuSans-65" x="164.021484"/>
      <use xlink:href="#DejaVuSans-72" x="225.544922"/>
      <use xlink:href="#DejaVuSans-3d" x="266.658203"/>
      <use xlink:href="#DejaVuSans-35" x="350.447266"/>
     </g>
    </g>
   </g>
  </g>
 </g>
 <defs>
  <clipPath id="p844188780e">
   <rect x="38.482813" y="7.2" width="357.12" height="197.097558"/>
  </clipPath>
 </defs>
</svg>
